<svg id="Poland_-_Provinces" data-name="Poland - Provinces" xmlns="http://www.w3.org/2000/svg" viewBox="0 0 259.51 245.88"><defs><style>.cls-1{fill:#878787;stroke:#f9f9f9;stroke-linecap:round;stroke-linejoin:round;stroke-width:0.25px;fill-rule:evenodd;}</style></defs><title>mapa</title><polygon id="zachodniopomorskie" class="cls-1" points="76.04 45.04 75.55 43.99 74.95 43.13 74.23 42.48 73.25 40.49 72.62 39.74 71.52 38.95 71.51 36.53 71.31 34.1 69.66 29.08 73.27 28.18 73.68 27.55 73.58 26.45 73.09 25.76 72.81 25.12 73 24.33 73.68 23.63 73.96 22.43 73.77 20.31 72.97 18.67 70.84 15.58 69.04 11.94 68.99 11.85 68.99 11.84 68.81 11.91 63.41 12.71 61.64 13.82 60.74 14.72 60.21 15.79 60.6 15.42 60.93 15.28 61.08 15.46 60.92 16.06 60.59 16.45 60.17 16.61 59.91 16.5 60.05 16.06 60.05 15.79 57.05 19.66 55.96 21.55 56.34 21.17 56.56 20.89 57.08 20.91 57.38 21.55 57.05 21.94 56.14 22.37 55.78 22.8 55.37 22.97 54.9 23.07 54.67 23.15 54.89 22.82 55.47 22.21 55.8 21.55 54.2 23.44 53.12 24.14 52.23 24.59 53.64 24.14 54.24 24.17 54.19 24.89 54.28 24.95 54.33 24.93 54.35 24.98 54.37 25.19 53.13 25.19 53.13 25.52 53.31 25.52 53.31 25.79 51.03 26.19 50.47 25.79 51.75 25.22 52.07 24.89 49.21 25.85 45.04 26.37 40.02 28.65 34.92 30.04 30.25 31.29 23.06 34.33 17.15 35.88 10.3 38.94 8.45 40.31 7.44 40.85 6.42 41.06 3.85 40.85 3.06 40.55 2.78 40.31 2.35 40.12 1.91 41.3 1.7 41.45 1.45 41.52 1.91 42.08 2.12 42.76 2.12 42.76 2.17 42.76 2.78 43.04 4.03 44.84 4.46 45.13 4.76 45.18 5.17 45.4 5.41 45.43 5.75 45.36 5.77 45.27 5.41 45.13 5.41 44.83 5.78 44.8 6.14 44.68 6.84 44.23 7.08 44.41 7.41 44.26 7.67 43.87 7.72 43.34 7.51 43.05 7.08 42.86 6.31 42.71 6.53 42.42 6.71 42.14 6.88 41.92 7.11 41.84 7.42 41.92 7.64 42.04 7.84 41.98 8.09 41.53 8.14 41.7 8.15 41.73 8.17 41.75 8.26 41.84 7.93 42.69 8.33 43.14 11.2 43.44 11.82 43.79 12.18 44.53 12.01 44.69 11.78 45.01 11.64 45.13 11.78 45.36 11.93 45.52 12.11 45.64 12.34 45.73 12.18 45.43 12.79 44.81 13 44.46 13.06 43.93 13.24 43.93 13.15 44.76 12.97 45.54 12.88 46.42 13.06 47.53 12.66 47.55 12.38 47.72 12.12 47.79 11.82 47.53 11.19 49.42 11.02 50.39 11.82 52.33 12.12 52.49 12.78 52.55 13.06 52.63 13.03 52.88 13.04 53.06 13.06 53.22 12.7 53.51 12.48 53.77 12.37 54.18 12.34 54.88 12.2 55.01 11.9 54.62 11.05 52.98 10.66 52.41 10.18 52.03 8.79 51.53 7.64 51.34 7.36 51.1 6.84 50.54 6.14 50.2 5.77 49.92 5.47 49.07 5.15 48.83 4.79 48.65 4.53 48.42 4.39 48.75 4.64 48.9 4.72 49.04 4.64 49.19 4.39 49.34 4.84 49.66 4.81 50.02 4.47 50.34 4 50.54 3.75 50.57 3.75 50.57 3.75 50.57 3.78 51.8 3.67 52.48 4.06 53.34 4.6 55.03 4.65 55.46 4.58 57.06 4.6 58.02 4.79 58.92 5.42 59.89 5.69 60.8 6.23 61.72 6.5 63.97 7.04 66.5 7.22 67.31 7.26 67.68 7.27 68.46 7.35 68.89 7.51 69.16 7.91 69.5 8.01 69.74 8.35 70.05 7.67 71.39 7.48 71.67 7.21 71.82 6.95 72.2 6.77 72.73 6.7 73.31 6.79 74.01 6.94 74.62 7 75.24 6.22 77.68 6.15 78.04 5.8 78.82 5.01 79.66 3.48 80.88 1.91 81.7 0.66 82.64 0.66 82.9 0.81 83.33 1.13 84.86 1.19 85.39 1.08 86.2 0.81 86.72 0.13 87.32 0.42 87.93 0.87 88.28 1.41 88.45 1.99 88.49 2.51 88.72 3.35 89.72 4.06 90.1 6.81 92.14 7.21 92.61 8.09 94.36 8.37 94.62 8.86 94.85 9.6 95.87 11.15 96.49 12.65 98.18 13.28 95.91 13.85 95.05 16.05 94.7 17.36 94.15 19.39 91.28 21.03 87.67 23.57 86.27 27.86 87.69 29.23 87.5 30.82 85.65 31.8 83.78 31.09 83.66 30.58 82.96 32.05 82.88 36.43 81.37 41.77 81.39 43.07 80.43 45.39 77.46 46.75 76.38 48.16 76.18 49.46 76.47 50.14 78.58 49.67 80.62 51.1 81.1 52.68 82.05 54.3 81.83 55.88 81.2 58.38 78.84 60.48 75.54 64.22 73.35 66.13 72.75 66.88 72.04 67.49 70.96 68.28 69.97 68.12 68.73 67.31 67.69 66.35 67.19 64.4 66.69 62.77 65.11 62.37 63.56 62.35 61.83 62.93 61 67.69 61.13 68.47 60.98 69.13 58.2 69.63 56.77 70.32 55.58 71.24 55.17 72.23 55.14 73.19 55.45 72.74 50.71 73.82 49.6 74.59 48.24 74.3 47.31 73.86 46.56 73.34 46.32 73.31 45.45 74.61 44.84 76.04 45.04"/><polygon id="swietokrzyskie" class="cls-1" points="199.98 172.53 199.9 171.98 199.77 171.1 199.11 168.59 199.06 168.2 199 168.06 198.88 167.99 198.76 167.88 198.71 167.64 198.74 167.38 198.8 167.26 198.87 167.19 198.9 167.06 199.09 165.28 199.01 164.48 198.53 164.12 198.53 163.84 198.72 163.81 198.94 163.7 199.14 163.52 199.25 163.28 199.15 162.72 190.87 164.45 186.59 163.1 184.6 162.93 182.83 161.78 182.66 161.15 182.55 160.47 181.78 159.59 181.56 158.21 180.78 157.94 179.97 158.71 179.21 159.77 178.35 160.26 174.76 160.83 171.63 160.18 170.96 159.68 170.41 158.8 169.81 158.12 165.55 155.49 164.78 153.55 163.35 153.03 162.61 153.59 161.66 155.94 160.8 156.33 159.94 156.47 159.12 156.87 157.32 158.58 156.49 158.82 153.63 158.42 152.82 158.72 152.19 159.55 151.55 162.04 152.73 163.84 153.53 164.48 153.78 165.85 153.57 167.19 152.99 167.89 149.57 165.38 148.65 165.55 148.32 166.87 148.3 168.19 148.41 169.48 147.97 170.71 147.07 171.31 146.32 172.01 145.72 173.02 147.93 173.45 148.26 173.63 148.35 174.09 148.36 174.59 148.24 174.91 146.46 175.21 145.49 177.05 146.2 177.9 148.15 178.46 149.04 179.15 149.77 180.75 150.99 182.26 149.96 182.41 148.17 183.92 147.65 185.05 148.56 185.52 150.32 185.79 151.04 186.07 153.49 186.07 154.5 186.62 155.37 187.54 157.55 188.23 159.54 189.56 160.72 191.9 161.16 193.77 161.6 194.71 162.78 196.37 163.27 197.4 165.17 198.55 168.57 198.64 169.34 197.81 169.44 197.38 169.76 196.88 170.6 196.48 170.96 196.13 171.03 195.91 171.07 195.48 171.16 195.28 171.26 195.21 171.49 195.2 171.58 195.15 172.13 194.59 172.29 193.9 172.46 193.65 173.45 194.59 173.88 194.4 174.23 194.03 174.57 193.8 174.97 194.07 175.32 193.83 176.03 193.76 176.27 193.63 176.52 193.29 176.74 193.1 177.01 193 178.93 192.94 179.32 192.83 179.61 192.58 179.85 192.31 180.09 192.11 181.16 191.59 181.42 191.53 181.8 191.68 182.03 191.98 182.28 192.2 182.74 192.11 182.74 192.04 183.19 191.4 183.38 191.26 183.52 191.25 183.61 191.17 183.64 190.83 183.78 190.62 184.08 190.47 184.39 190.19 184.53 189.61 184.76 189.82 184.94 189.83 185.23 189.61 185.26 189.49 185.23 189.29 185.22 189.11 185.32 189.03 185.69 189.06 185.78 189.03 187.37 187.65 187.85 187.86 188.51 187.72 189.17 187.33 189.66 186.81 189.41 186.17 189.31 185.98 191.78 184.87 193.44 184.44 193.92 184.04 194.71 183.08 195.04 182.44 195.17 181.66 195.36 181.02 196.59 179.56 197.33 178.32 197.77 178 198.45 177.89 198.91 177.64 199.31 177.04 199.61 176.3 199.8 175.66 200.01 174.05 199.98 172.53"/><polygon id="slaskie" class="cls-1" points="151.22 186.95 151.04 186.07 150.32 185.79 148.56 185.52 147.65 185.05 148.17 183.92 149.96 182.41 150.99 182.26 149.77 180.75 149.04 179.15 148.15 178.46 146.2 177.9 145.49 177.05 146.46 175.21 148.24 174.91 148.36 174.59 148.35 174.09 148.26 173.63 147.93 173.45 145.72 173.02 142.91 171.59 140.31 171.73 139.44 171.46 137.03 167.6 135.47 166.17 133.72 165.84 132.84 166.62 130.77 166.63 129.09 166.28 125.71 164.45 124.92 163.64 124.01 163.46 123.19 164.03 122.34 164.43 118.69 164.55 117.39 165.19 116.49 168.34 116.17 168.73 115.98 169.37 116.14 170.3 116.49 171.06 116.3 172.51 114.28 173.82 113.58 175.28 113.13 177.84 112.51 179.51 113.01 181.06 113.7 181.99 114.53 182.64 115.36 183.53 115.66 184.99 111.89 184.96 111.14 185.14 110.8 186.06 111.08 186.77 111.03 187.5 110.46 187.77 109.91 187.88 109.67 188.71 110.11 193.91 110.09 195.99 109.81 197.16 107.31 198.34 105.75 199.52 102.49 200.2 100.95 203.22 100.92 203.89 100.92 203.9 101.28 203.99 102.79 204.98 102.63 205.72 102.96 206.11 104.61 206.43 105.01 206.65 105.82 207.35 106.13 207.49 106.74 207.62 107.04 207.84 107.15 208.06 107.33 208.69 107.48 208.96 107.99 209.38 108.36 209.31 109.09 208.67 109.06 208.6 109.03 208.56 108.98 208.53 108.92 208.53 109.97 208.41 110.97 208.76 112.89 209.83 113.49 209.83 114.51 209.17 114.89 209.41 115.05 210.13 114.99 210.75 115.1 211.24 115.79 211.61 115.08 212.44 115.09 213.52 115.54 214.73 116.15 215.99 116.41 217.16 116.57 217.46 116.91 217.7 117.71 217.77 118.08 217.88 118.42 218.16 118.92 218.76 119.25 218.96 119.63 218.93 120.03 218.75 120.44 218.68 120.82 218.97 120.93 219.28 121.11 220.66 121.22 221.04 121.53 221.74 121.64 222.1 122.02 223.8 122.09 224.62 121.98 225.29 124.54 225.53 125.29 225.98 125.07 226.66 125.09 227.22 125.22 227.76 125.28 228.35 125.18 229.66 125.32 230.11 125.83 230.2 126.48 230.15 127.48 229.57 128.05 229.43 128.28 229.52 128.8 229.89 129.05 230.02 129.31 230.04 129.97 229.91 130.76 229.59 130.95 229.27 131.02 228.77 131.2 228 131.27 227.98 131.59 227.97 131.71 227.89 131.77 227.62 131.72 227.43 131.63 227.31 131.59 227.27 132 225.98 132.36 225.41 132.73 225.05 133.16 224.84 133.65 224.73 134.45 224.74 134.72 224.7 135.08 224.55 135.28 224.38 137.52 221.9 137.62 221.7 137.77 221.64 137.91 221.7 137.91 221.69 137.78 221.23 137.17 220.82 136.84 220.1 137.06 219.26 137.5 218.37 137.59 217.32 135.84 217.01 134.87 216.57 134.03 215.78 133.64 214.55 133.12 213.59 131.8 213.07 131.02 211.68 130.97 210.34 130.41 209.64 129.73 209.57 129.21 208.88 129.5 207.54 130.07 206.35 130.64 205.51 136.78 198.61 135.57 196.94 134.2 195.56 135.01 194.93 136.74 195.18 137.87 193.57 138.58 192.12 139.28 191.08 140.71 191.91 141.38 191.91 142.03 191.76 144.33 189.97 145.74 189.75 147.2 189.87 148.01 189.74 151.28 187.68 151.22 186.95"/><polygon id="mazowieckie" class="cls-1" points="231.66 111.36 231.24 111.5 230.81 111.23 230.89 111.03 231.02 110.59 231.15 110.36 230.42 109.48 229.95 109.2 229.4 109.49 229.16 108.53 228.56 107.95 227.8 107.71 225.78 107.99 221.75 107.15 220.39 107.23 219.76 107.07 219.46 106.58 219.01 106.77 218.49 106.36 218.05 105.74 217.87 105.28 218.02 103.88 217.96 103.68 217.59 103.62 217.38 103.42 217.25 103.06 217.16 102.52 217.18 102.14 217.3 101.81 217.38 101.46 217.32 101.04 217.14 100.79 216.57 100.3 216.03 99.55 214.58 98 214.66 97.08 214.58 95.49 214.27 93.98 214.11 91.75 213.7 89.74 212.2 90.17 210.75 90.9 209.94 90.34 209.29 89.42 209.7 87.06 208.45 86.11 207.16 87.51 205.19 87.8 203.35 86.84 202.66 85.58 202.31 84.01 201.93 82.94 201.3 82.29 200.31 81.75 199.65 80.56 199.54 79.47 199.96 78.69 198.77 77.77 197.35 77.56 195.98 76.81 195.02 74.97 193.59 71.34 192.94 66.37 192.52 64.66 191.93 63.25 191.58 61.74 188.45 61.99 187.82 62.34 187.08 63.8 186.02 64.55 184.84 64.73 182.55 64.52 180.58 66.86 178.26 67.61 175.78 67.59 173.89 68.69 172.24 69.03 170.39 69.01 169.46 69.77 168.6 70.8 164.98 72.89 164.03 73.18 163.04 73.07 162.24 73.7 161.8 75.15 161.13 75.94 160.35 76.34 158.4 76.69 150.23 75.43 150 75.16 149.83 74.78 149.43 74.5 148.99 74.4 147.96 74.72 147.29 76.05 146.54 76.68 145.65 76.9 144.41 77.91 143.08 78.53 143.24 79.35 143.26 80.2 143.47 81.46 143.39 82.31 143.26 83.15 143.01 83.88 142.52 83.82 142.04 83.48 141.54 83.27 140.99 83.8 140.5 84.53 139.42 85.44 138.16 85.28 138.56 87.04 138.43 88.62 137.91 89.19 137.69 90.06 137.98 90.95 138.41 91.76 139.16 93.56 139.18 94.98 138.07 95.27 136.33 100.35 135.64 101.76 135.51 103.39 136.04 103.94 136.14 104.72 134.23 107.89 134.13 108.6 133.96 109.32 136.45 111.05 139.17 111.62 140.5 112.25 142.9 114.18 148.27 113.07 149.09 112.22 150.06 112.14 150.76 113.04 151.38 114.12 152.2 114.54 153.11 114.82 153.83 115.31 154.15 116.39 154.24 117.87 154.77 119.05 155.14 119.25 155.54 119.15 157.32 119.87 158.33 120.54 158.69 121 158.42 123.1 157.55 123.61 157.77 124.5 158.47 125.3 159.08 126.23 159.02 127.02 159.24 127.7 160.17 128 162.92 127.68 164.63 128.48 166.51 129.93 168.03 131.97 168.2 132.66 167.97 133.14 167.71 133.53 167.57 134.06 167.81 135.25 169.21 136.7 169.6 137.77 169.54 138.76 169.2 139.45 167.32 139.19 165.77 138.34 163.75 138.35 163.08 140.69 163.85 142.54 164.11 143.82 164.21 145.15 164.4 145.82 165.35 146.28 165.69 146.66 165.69 147.99 165.25 149.13 163.59 150.69 163.27 151.81 163.35 153.03 164.78 153.55 165.55 155.49 169.81 158.12 170.41 158.8 170.96 159.68 171.63 160.18 174.76 160.83 178.35 160.26 179.21 159.77 179.97 158.71 180.78 157.94 181.56 158.21 181.78 159.59 182.55 160.47 182.66 161.15 182.83 161.78 184.6 162.93 186.59 163.1 190.87 164.45 199.15 162.72 198.52 161.14 198.31 159.82 198.07 159.08 198.02 158.75 198.06 158.28 198.15 157.92 198.37 157.32 198.84 154.75 199.16 154.09 199.4 153.88 199.68 153.84 199.63 152.97 199.95 151.72 200.11 150.53 199.07 149.29 199.13 148.28 199.73 147.79 200.36 146.92 200.39 145.22 199.59 145.14 199.59 144.85 199.98 144.39 199.89 143.87 199.43 143.15 199.37 142.56 199.39 142.08 199.3 141.72 198.9 141.44 198.65 141.42 198.02 141.7 197.56 141.75 196.23 141.47 195.51 141.13 195.13 140.68 194.8 140.12 194.76 139.69 195.03 138.63 195.97 138.38 196.89 138.76 198.78 139.05 200.61 138.4 201.26 137.79 201.43 136.84 200.13 134.83 201.12 133.42 202.55 132.56 201.64 131.17 201.01 129.62 200.91 128.5 200.4 127.41 199.98 126.23 199.82 125.17 201.66 123.8 203.63 123.23 207.37 123.25 210.91 122.55 212.23 122.79 213.13 122.5 215.61 120.65 216.6 120.53 219.44 120.8 220.88 119.63 221 119 221.17 118.46 221.6 118.01 222.07 117.69 223.13 117.94 226.16 119.5 227.17 119.12 228.03 118.03 228.77 116.29 231.22 112.66 232.05 111.09 231.66 111.36"/><polygon id="warminskie" class="cls-1" points="224.92 20.04 224.26 21.26 223.78 21.66 222 22.25 217.13 21.99 211.1 21.67 203.9 21.28 196.7 20.9 185.49 20.3 176.23 19.81 168.76 19.41 161.28 19.01 151.26 18.48 145.92 18.19 145.81 18.25 145.53 18.22 145.57 18.42 145.64 18.9 145.69 19.1 145.28 19.18 145.08 19.63 144.94 20.11 144.72 20.34 144.34 20.4 144 20.54 142.32 21.78 141.3 21.92 140.88 22.1 138.86 23.38 138.53 23.46 138.2 23.67 137.55 24.28 136.89 25.35 136.73 25.52 136.55 25.79 136.09 26.99 135.75 27.34 135.76 26.68 135.87 26.15 136.05 25.75 136.29 25.52 136.29 25.19 135.69 25.27 133.39 24.97 132.76 25.69 132.58 27.2 133.15 28.9 133.68 29.84 133.95 30.95 133.66 31.75 133.25 32.47 132.13 33.62 131.71 34.23 131.78 35.1 132.25 36.99 133.12 38.42 134.37 39.16 135.7 39.34 136.37 40.26 135.87 41.99 136.79 42.44 139.35 42.23 140.64 42.59 140.54 43.3 140.54 44.03 140.23 44.61 139.76 45.09 139.35 46.34 139.04 46.83 138.99 47.53 137.53 48.18 135.44 48.04 134.35 48.73 133.44 49.73 129.62 56.86 131.86 61.23 132.5 63.1 133.28 64.59 133.69 65.17 134.29 65.43 134.78 65.45 136.77 66.11 139.53 67.78 142.49 68.56 143.93 69.57 145.26 72.96 145.65 76.9 146.54 76.68 147.29 76.05 147.96 74.72 148.99 74.4 149.43 74.5 149.83 74.78 150 75.16 150.23 75.43 158.4 76.69 160.35 76.34 161.13 75.94 161.8 75.15 162.24 73.7 163.04 73.07 164.03 73.18 164.98 72.89 168.6 70.8 169.46 69.77 170.39 69.01 172.24 69.03 173.89 68.69 175.78 67.59 178.26 67.61 180.58 66.86 182.55 64.52 184.84 64.73 186.02 64.55 187.08 63.8 187.82 62.34 188.45 61.99 191.58 61.74 193.47 60.92 197.17 61.13 198.79 60.56 199.55 59.96 200.37 59.61 202.3 59.32 206.77 56.25 209.28 53.4 216.49 48.91 217.98 47.34 218.88 44.78 219.93 42.76 220.02 40.72 217.28 36.86 215.96 35.57 215.69 34.35 215.55 33.03 212.93 29.53 215.37 26.06 221.14 25.25 222.86 24.08 224.34 22.53 224.99 20.38 224.92 20.04"/><polygon id="pomorskie" class="cls-1" points="145.92 18.19 143.9 18.08 142.62 17.64 142.07 17.19 141.63 17.38 140.04 19.05 139.22 19.43 138.2 19.67 136.06 20.71 126.35 22.16 125.64 21.95 125.34 21.78 125.12 21.55 124.31 22 123.35 21.93 118.98 20.51 118.55 19.9 118.39 19.51 118.02 19.27 117.59 19.14 117.24 19.1 116.83 18.96 116.05 18.35 115.64 18.22 115.28 17.47 115.11 15.8 115.09 14.04 115.19 13.02 114.99 12.59 114.33 10.56 114.01 10.06 113.8 9.46 113.95 8.72 113.53 9.28 113.03 9.38 112.74 9.01 112.89 8.14 112.59 7.82 112.59 7.53 112.69 7.23 112.7 6.89 112.32 6.06 112.01 5.51 111.87 5.34 111.25 5.07 111.11 4.9 111.11 4.25 111.16 3.95 111.53 2.67 111.69 2.44 112.01 2.3 112.23 2.4 113.07 3.05 113.31 3.4 114.83 4.13 116.38 5.2 117.11 5.45 117.36 5.88 117.59 5.97 118.5 6.16 118.74 6.27 119.97 8.37 120.39 8.91 120.71 9.75 121.18 10.09 121.34 10.41 121.47 10.73 121.58 10.89 122.04 10.66 122.01 10.06 121.75 9.36 121.48 8.87 119.87 6.77 111.04 1.47 110.49 1.35 110.15 1.17 109.21 0.34 108.62 0.13 104.36 0.13 97.46 0.76 93.06 2.28 83.28 4.13 75.47 7.8 72.99 10.53 72.02 10.89 70.91 11.07 68.99 11.84 68.99 11.85 69.04 11.94 70.84 15.58 72.97 18.67 73.77 20.31 73.96 22.43 73.68 23.63 73 24.33 72.81 25.12 73.09 25.76 73.58 26.45 73.68 27.55 73.27 28.18 69.66 29.08 71.31 34.1 71.51 36.53 71.52 38.95 72.62 39.74 73.25 40.49 74.23 42.48 74.95 43.13 75.55 43.99 76.04 45.04 74.61 44.84 73.31 45.45 73.34 46.32 73.86 46.56 74.3 47.31 74.59 48.24 73.82 49.6 72.74 50.71 73.19 55.45 74.44 56.99 75.51 58.88 77.02 59.81 82.29 60.02 83.67 60.79 84.82 62.17 85.55 61.72 86.33 58.99 86.96 57.61 87.68 56.61 88.64 56.51 92.22 57.45 93.84 56.8 93.85 55.87 93.95 55.25 94.1 54.68 94.93 53.9 96.71 53.24 97.76 51.3 98.46 50.76 101.75 51.4 106.13 50.74 107.04 50.82 107.8 51.8 108.65 52.61 113.3 53.39 115.51 54.7 116.47 54.07 117.96 53.53 120.07 53.83 120.58 54.12 120.93 54.54 121.35 54.81 123.05 56.58 123.86 57.09 125.27 57.66 128.22 57.48 129.62 56.86 133.44 49.73 134.35 48.73 135.44 48.04 137.53 48.18 138.99 47.53 139.04 46.83 139.35 46.34 139.76 45.09 140.23 44.61 140.54 44.03 140.54 43.3 140.64 42.59 139.35 42.23 136.79 42.44 135.87 41.99 136.37 40.26 135.7 39.34 134.37 39.16 133.12 38.42 132.25 36.99 131.78 35.1 131.71 34.23 132.13 33.62 133.25 32.47 133.66 31.75 133.95 30.95 133.68 29.84 133.15 28.9 132.58 27.2 132.76 25.69 133.39 24.97 135.69 25.27 136.29 25.19 136.29 25.52 136.05 25.75 135.87 26.15 135.76 26.68 135.75 27.34 136.09 26.99 136.55 25.79 136.73 25.52 136.89 25.35 137.55 24.28 138.2 23.67 138.53 23.46 138.86 23.38 140.88 22.1 141.3 21.92 142.32 21.78 144 20.54 144.34 20.4 144.72 20.34 144.94 20.11 145.08 19.63 145.28 19.18 145.69 19.1 145.64 18.9 145.57 18.42 145.53 18.22 145.81 18.25 145.92 18.19"/><polygon id="Podlaskie" class="cls-1" points="253.62 90.66 253.4 85.47 253.34 85.14 253.23 84.93 253.14 84.67 253.12 84.21 253.19 83.87 253.48 83.29 253.56 83.03 253.54 82.68 253.32 81.49 253.32 81.21 253.38 80.69 253.34 80.36 253.04 79.73 252.26 78.72 252.04 77.99 252.07 77.15 252.32 76.55 252.63 76.03 252.87 75.41 252.93 74.37 252.65 73.85 252.21 73.5 251.75 72.99 251.44 72.32 251.24 71.7 250.99 71.08 250.52 70.46 250.06 69.23 249.03 65.13 248.51 63.76 247.29 61.22 245.09 54.44 244.48 51.4 244.42 48.71 244.41 48.71 244.41 48.71 243.79 47.79 243.51 46.89 243.28 44.55 243.01 43.45 242.67 42.44 242.4 41.37 242.37 40.08 242.47 39.82 242.49 39.58 242.42 39.36 242.26 39.16 241.99 38.94 241.78 38.62 241.67 38.22 241.69 37.75 241.81 37.55 241.95 37.38 242.26 37.12 242.65 36.44 242.64 35.45 242.26 33.39 242.07 32.45 241.78 31.46 241.42 30.57 240.99 29.94 240.76 29.8 240.2 29.64 239.93 29.46 239.69 29.12 239.22 28.22 238.97 27.83 238.5 27.42 237.98 26.98 235.89 26.18 234.91 25.58 233.3 24.23 232.83 24 232.31 24.12 231.69 24.38 231.1 24.38 230.63 23.73 230.64 23.26 230.79 22.76 230.88 22.34 230.72 22.09 229.83 21.98 229.54 21.79 229.37 21.5 229.26 21.15 229.11 20.81 228.84 20.53 228.57 20.47 227.98 20.59 227.7 20.55 226.15 19.75 225.6 19.67 224.96 19.98 224.92 20.04 224.99 20.38 224.34 22.53 222.86 24.08 221.14 25.25 215.37 26.06 212.93 29.53 215.55 33.03 215.69 34.35 215.96 35.57 217.28 36.86 220.02 40.72 219.93 42.76 218.88 44.78 217.98 47.34 216.49 48.91 209.28 53.4 206.77 56.25 202.3 59.32 200.37 59.61 199.55 59.96 198.79 60.56 197.17 61.13 193.47 60.92 191.58 61.74 191.93 63.25 192.52 64.66 192.94 66.37 193.59 71.34 195.02 74.97 195.98 76.81 197.35 77.56 198.77 77.77 199.96 78.69 199.54 79.47 199.65 80.56 200.31 81.75 201.3 82.29 201.93 82.94 202.31 84.01 202.66 85.58 203.35 86.84 205.19 87.8 207.16 87.51 208.45 86.11 209.7 87.06 209.29 89.42 209.94 90.34 210.75 90.9 212.2 90.17 213.7 89.74 214.11 91.75 214.27 93.98 214.58 95.49 214.66 97.08 214.58 98 216.03 99.55 216.57 100.3 217.14 100.79 217.32 101.04 217.38 101.46 217.3 101.81 217.18 102.14 217.16 102.52 217.25 103.06 217.38 103.42 217.59 103.62 217.96 103.68 218.02 103.88 217.87 105.28 218.05 105.74 218.49 106.36 219.01 106.77 219.46 106.58 219.76 107.07 220.39 107.23 221.75 107.15 225.78 107.99 227.8 107.71 228.56 107.95 229.16 108.53 229.4 109.49 229.95 109.2 230.42 109.48 231.15 110.36 231.02 110.59 230.89 111.03 230.81 111.23 231.24 111.5 231.66 111.36 232.05 111.09 232.4 110.94 232.88 111.06 233.69 111.55 234.15 111.54 234.36 111.4 234.36 111.4 234.17 111.24 234.09 111.22 235.29 108.76 235.76 108.01 236.8 106.74 239.95 101.88 242.24 99.97 244.53 98.63 248.85 97.4 252.29 95.05 253.32 93.77 253.67 91.95 253.62 90.66"/><polygon id="Podkarpackie" class="cls-1" points="246.83 192.46 244.24 190.94 243.4 189.68 241.77 188.63 239.87 188.42 238.39 188.56 237.71 188.86 235.57 191.28 233.9 192.64 231.94 193.05 226.13 192.86 222.59 191.86 222.34 191.26 223.21 191.04 223.62 190.8 222.93 190.33 219.32 191.04 218.41 190.62 217.74 189.58 217.55 188.57 217.99 187.73 218.63 186.88 219.44 186.61 220.24 186.71 220.95 186.29 220.65 185.3 220.04 184.16 219.98 183.59 220 183.04 219.76 182.67 215.69 180.47 209.66 178.93 209.18 178.1 210.36 175.88 210.72 174.84 209.89 174.11 208.97 173.54 207.98 173.16 206.97 173.2 205.25 174.41 203.31 174.31 199.9 171.98 199.98 172.53 200.01 174.05 199.8 175.66 199.61 176.3 199.31 177.04 198.91 177.64 198.45 177.89 197.77 178 197.33 178.32 196.59 179.56 195.36 181.02 195.17 181.66 195.04 182.44 194.71 183.08 193.92 184.04 193.44 184.44 191.78 184.87 189.31 185.98 189.41 186.17 189.66 186.81 189.17 187.33 188.51 187.72 187.85 187.86 187.37 187.65 185.78 189.03 185.69 189.06 185.4 192.48 184.61 194.39 183.65 196.06 183.49 198.33 184.18 204.42 183.97 206.2 183.95 207.75 184.18 208.22 184.39 208.77 184.94 209.43 185.68 209.49 186.65 210.01 186.99 211.16 184.42 213.15 183.98 214.14 184.74 214.85 187.53 216.04 189.08 217.72 189.98 220.51 190.07 221.93 189.92 223.32 190.4 226.22 191.32 228.87 191.36 228.98 191.36 228.99 191.75 228.83 193.61 228.62 194.09 228.75 194.35 228.93 194.83 229.4 195.1 229.58 195.29 229.61 195.69 229.52 195.95 229.59 196.38 230.04 197.25 231.38 197.65 231.71 197.92 231.53 198.29 231.09 198.74 230.68 199.26 230.58 199.73 230.85 200.68 231.73 202.07 232.43 203.01 233.31 203.75 234.51 204.08 235.91 204.25 237.18 204.98 237.71 206.81 238.06 207.66 238.61 207.96 238.74 208.21 238.76 208.83 238.68 209.05 238.72 209.33 239.04 209.34 239.32 209.26 239.57 209.32 239.82 209.51 239.99 210.73 240.36 212.16 240.31 212.71 240.52 214.02 241.84 214.97 242.14 216.99 242.22 217.89 242.67 218.44 242.14 218.95 242.3 219.93 243.38 220.56 243.81 221.12 243.88 221.67 243.83 222.61 243.9 223.19 243.72 223.47 243.75 223.73 244 224.21 244.68 224.5 244.77 224.96 245.01 225.53 245.53 226.06 245.75 226.36 245.12 226.31 245 226.28 244.91 225.86 244.19 225.74 243.82 225.78 243.28 226.01 242.51 226.01 242.17 225.7 241.77 224.54 241.12 224.06 240.77 223.3 239.77 222.46 239.18 222.56 239.15 222.59 239.13 222.19 238.85 221.84 239.28 221.72 239.36 221.57 239.15 221.71 238.67 222.12 237.81 222.48 236.41 222.92 235.2 223.02 234.63 222.67 230.99 222.55 230.35 222.41 230.05 221.85 229.46 221.51 228.92 221.44 228.7 221.34 228.25 221.18 226.56 221.01 225.98 220.51 224.55 221.16 223.01 223.12 220.36 223.56 219.09 223.75 218.74 224.04 218.49 224.6 218.38 224.88 218.26 225.32 217.82 226.91 214.92 227.16 214.61 227.39 214.46 227.85 214.29 228.07 214.06 228.19 213.78 228.4 212.97 228.54 212.64 229.62 211.52 232.43 207.4 233.46 206.26 234.4 205.51 235.18 204.31 241.09 197.87 242.26 196.96 243.67 195.88 243.68 195.88 243.68 195.87 243.68 195.87 244.43 195.27 246.47 193.04 246.83 192.52 246.85 192.46 246.83 192.46"/><polygon id="opolskie" class="cls-1" points="116.49 168.34 117.39 165.19 115.45 163.62 114.84 162.44 114.15 161.59 113.84 161.76 113.6 162.19 113.27 162.49 111.44 162.54 105.65 161.04 104.89 160.43 104.31 159.38 101.35 161.15 98.28 162.28 96.64 162.19 95.28 161.09 95.13 160.08 94.79 159.2 93.93 158.75 93.04 158.81 92.18 159.33 91.28 159.55 90.39 159.49 89.55 159.77 88.88 160.5 87.37 163.97 87.1 164.98 86.93 166.04 86.52 167.29 85.69 167.84 84.46 169.44 83.54 171.59 81.38 174.79 79.52 178.34 78.93 180.63 78 182.23 76.43 182.49 75.07 183.53 73.21 188.2 73.1 188.68 73.1 188.68 73.48 188.91 74.08 188.84 76.74 189.59 77.02 189.76 77.62 190.27 77.95 190.44 78.31 190.45 79.1 190.28 79.4 190.38 79.34 190.49 79.43 190.93 79.59 191.45 79.75 191.81 80 192.08 80.92 192.66 81.53 192.84 82.74 192.8 83.28 193.03 82.8 193.22 82.88 193.38 82.97 193.51 83.07 193.63 83.19 193.73 83.16 194.26 83.21 194.77 83.39 195.19 83.73 195.45 84.01 194.71 84.59 194.67 85.15 195.12 85.39 195.88 85.52 195.97 85.66 196 85.8 195.97 85.93 195.88 86.69 194.95 87.92 194.84 90.24 195.25 90.84 195.09 91.28 194.73 92.05 193.66 92.19 193.33 92.26 193.06 92.43 192.95 92.87 193.11 93.01 193.25 93.49 193.89 93.55 193.98 93.56 194.09 93.55 194.21 93.49 194.34 93.21 195.1 93.16 195.47 93.21 195.88 93.49 196.15 93.89 196.9 93.65 197.51 93.12 197.97 92.02 198.63 91.33 198.9 90.08 198.95 89.8 199.09 89.61 199.5 89.66 199.79 90.92 201.39 91.32 201.57 91.58 201.52 91.81 201.4 92.08 201.33 92.42 201.42 93.12 201.77 93.49 201.85 93.5 201.89 93.5 201.93 93.5 201.96 93.49 201.99 93.25 202.19 93.16 202.41 93.24 202.65 93.49 202.89 93.77 203.23 93.95 203.68 94.09 204.18 94.3 204.66 94.59 205.06 96.27 206.73 97.21 206.93 98.15 206.65 98.91 205.96 99.38 205.84 100.42 205.81 101.26 205.56 101.39 205.38 101.35 204.98 101.17 204.7 100.94 204.69 100.74 204.76 100.6 204.7 100.49 203.79 100.92 203.9 100.92 203.89 100.95 203.22 102.49 200.2 105.75 199.52 107.31 198.34 109.81 197.16 110.09 195.99 110.11 193.91 109.67 188.71 109.91 187.88 110.46 187.77 111.03 187.5 111.08 186.77 110.8 186.06 111.14 185.14 111.89 184.96 115.66 184.99 115.36 183.53 114.53 182.64 113.7 181.99 113.01 181.06 112.51 179.51 113.13 177.84 113.58 175.28 114.28 173.82 116.3 172.51 116.49 171.06 116.14 170.3 115.98 169.37 116.17 168.73 116.49 168.34"/><polygon id="lubuskie" class="cls-1" points="57.47 130.82 55.78 128.95 53.88 130.24 52.71 129.85 51.6 129.09 51.22 127.97 51.33 126.52 51.57 125.72 51.53 124.88 51.1 124.61 50.65 124.8 49.69 124.78 48.77 123.86 48.17 122.77 47.71 121.45 46.29 120.69 45.58 119.96 44.97 119.06 44.77 117.73 44.78 116.31 45.08 115.06 45.14 114.42 45.27 113.81 46.11 111.32 46.06 108.72 45.54 107.46 44.44 105.5 44.99 105.12 45.69 105.12 45.69 103.85 45.49 102.3 45.17 100.81 44.26 98.3 44.16 95.92 44.27 95.01 44.3 94.05 44.48 93.65 44.87 93.7 47.32 92.92 47.82 92.6 48.07 91.93 47.52 89.82 46.72 89.08 49.24 85.84 49.15 83.1 49.67 80.62 50.14 78.58 49.46 76.47 48.16 76.18 46.75 76.38 45.39 77.46 43.07 80.43 41.77 81.39 36.43 81.37 32.05 82.88 30.58 82.96 31.09 83.66 31.8 83.78 30.82 85.65 29.23 87.5 27.86 87.69 23.57 86.27 21.03 87.67 19.39 91.28 17.36 94.15 16.05 94.7 13.85 95.05 13.28 95.91 12.65 98.18 12.8 98.35 13.6 99.02 12.88 100.54 12.68 101.53 13.16 101.97 13.28 102.43 12.85 103.42 12.23 104.42 10.89 105.61 11.03 107.29 11.65 109.14 12.19 110.37 12.03 111.14 12.61 111.8 13.49 112.25 14.23 112.42 14.95 112.74 15.35 113.48 15.35 114.34 14.84 115.01 14.84 115.28 15.21 115.86 15.12 116.47 14.84 117.23 14.68 118.33 14.94 118.93 16.62 120.2 16.14 120.79 15.95 121.15 15.86 121.53 15.81 121.91 15.71 122.31 15.15 123.33 15.01 123.74 14.92 126.3 14.7 127.12 14.3 127.88 13.82 128.52 12.34 130.03 12 130.76 12.08 131.65 12.5 132.3 12.97 132.62 13.33 133.1 13.43 134.21 13.7 135.27 14.28 135.96 15.54 137 15.87 137.73 16.13 138.78 16.17 139.88 15.86 140.72 15.36 141.51 15.15 142.32 15.21 142.62 15.29 143.06 15.86 143.66 17.55 144.23 18.1 144.62 18.1 144.63 18.69 144.97 19.9 145.33 20.49 145.61 20.89 145.93 21.37 146.43 21.64 147 21.42 147.52 21.52 148.62 22 148.33 26.14 146.16 26.89 146.15 28.41 147.47 29.17 147.53 30.47 145.27 31.34 144.24 33.23 143.58 36.87 145.59 38.7 145.13 41.56 141.34 44.11 136.36 44.67 135.94 45.58 135.64 46.35 134.85 46.73 133.77 47.24 133.07 51.17 133.8 51.86 134.55 51.94 135.99 53.38 137.83 55.43 137.38 57.01 135.99 58.27 133.93 57.47 130.82"/><polygon id="lubelskie" class="cls-1" points="255.49 171.71 256.21 171.62 256.89 172 257.42 171.77 258.28 171.76 259.06 171.6 259.38 170.88 259.05 170.37 256.89 169.18 255.14 167.56 254.76 166.91 254.61 166.37 254.59 166 254.51 165.67 254.23 165.23 253.91 165.01 253.58 164.88 253.4 164.71 253.5 164.39 253.5 164.13 253.2 162.41 252.97 161.86 252.29 160.8 251.91 159.99 252.01 159.61 252.44 159.38 252.15 158.88 250.92 157.63 249.6 156.79 249.02 156.08 247.59 152.93 247.15 152.64 246.65 152.63 246.24 152.42 246.07 151.54 246.21 150.99 246.56 150.38 247.02 149.89 247.5 149.7 247.34 149.14 247.37 148.72 247.55 148.43 247.85 148.29 247.64 147.79 246.59 146.23 246.55 145.97 246.95 145.14 246.59 144.89 246.12 144.72 245.71 144.44 245.54 143.85 245.49 143.6 245.39 143.04 245.03 142.83 244.62 142.67 244.3 142.02 244.48 142.04 244.66 142.02 244.09 141.04 243.86 140.46 243.77 139.86 243.91 138.74 243.87 138.33 243.58 138.01 243.58 137.7 243.81 137.67 243.97 137.57 244.3 137.16 244.17 136.98 244.02 136.69 243.93 136.42 244.03 136.3 244.27 136.19 244.21 135.93 244.04 135.64 243.95 135.42 244.09 134.46 244.2 134.01 244.3 133.71 244.74 133.2 245.28 132.87 245.78 132.37 246.07 131.4 245.59 130.75 245.19 130 245.48 129.65 245.58 128.74 245.89 128.57 245.88 128.37 245.86 128.32 245.81 128.32 245.71 128.28 245.88 127.81 245.9 126.45 246.07 125.67 246.56 124.51 246.9 123.97 247.31 123.67 247.01 122.95 246.64 121.36 246.43 120.84 246.4 120.35 246.3 119.87 245.98 119.65 245.74 119.54 245.58 119.27 245.45 118.93 245.28 118.6 244.79 118.31 243.57 118.34 243.06 118.18 242.34 116.74 242.45 116.59 242.52 116.09 242.42 115.77 241.99 116.19 241.82 116 241.56 115.78 241.46 115.59 241.1 116.02 240.86 115.98 240.63 115.73 240.3 115.59 239.93 115.73 239.85 115.67 240.04 115.28 240.04 115.01 239.5 114.96 237.89 114.35 237.55 114.01 237.16 114.16 235.29 113.66 234.71 113.28 234.92 112.53 234.84 111.98 234.55 111.56 234.36 111.4 234.36 111.4 234.15 111.54 233.69 111.55 232.88 111.06 232.4 110.94 232.05 111.09 231.22 112.66 228.77 116.29 228.03 118.03 227.17 119.12 226.16 119.5 223.13 117.94 222.07 117.69 221.6 118.01 221.17 118.46 221 119 220.88 119.63 219.44 120.8 216.6 120.53 215.61 120.65 213.13 122.5 212.23 122.79 210.91 122.55 207.37 123.25 203.63 123.23 201.66 123.8 199.82 125.17 199.98 126.23 200.4 127.41 200.91 128.5 201.01 129.62 201.64 131.17 202.55 132.56 201.12 133.42 200.13 134.83 201.43 136.84 201.26 137.79 200.61 138.4 198.78 139.05 196.89 138.76 195.97 138.38 195.03 138.63 194.76 139.69 194.8 140.12 195.13 140.68 195.51 141.13 196.23 141.47 197.56 141.75 198.02 141.7 198.65 141.42 198.9 141.44 199.3 141.72 199.39 142.08 199.37 142.56 199.43 143.15 199.89 143.87 199.98 144.39 199.59 144.85 199.59 145.14 200.39 145.22 200.36 146.92 199.73 147.79 199.13 148.28 199.07 149.29 200.11 150.53 199.95 151.72 199.63 152.97 199.68 153.84 199.4 153.88 199.16 154.09 198.84 154.75 198.37 157.32 198.15 157.92 198.06 158.28 198.02 158.75 198.07 159.08 198.31 159.82 198.52 161.14 199.15 162.72 199.25 163.28 199.14 163.52 198.94 163.7 198.72 163.81 198.53 163.84 198.53 164.12 199.01 164.48 199.09 165.28 198.9 167.06 198.87 167.19 198.8 167.26 198.74 167.38 198.71 167.64 198.76 167.88 198.88 167.99 199 168.06 199.06 168.2 199.11 168.59 199.77 171.1 199.9 171.98 203.31 174.31 205.25 174.41 206.97 173.2 207.98 173.16 208.97 173.54 209.89 174.11 210.72 174.84 210.36 175.88 209.18 178.1 209.66 178.93 215.69 180.47 219.76 182.67 220 183.04 219.98 183.59 220.04 184.16 220.65 185.3 220.95 186.29 220.24 186.71 219.44 186.61 218.63 186.88 217.99 187.73 217.55 188.57 217.74 189.58 218.41 190.62 219.32 191.04 222.93 190.33 223.62 190.8 223.21 191.04 222.34 191.26 222.59 191.86 226.13 192.86 231.94 193.05 233.9 192.64 235.57 191.28 237.71 188.86 238.39 188.56 239.87 188.42 241.77 188.63 243.4 189.68 244.24 190.94 246.83 192.46 246.85 192.46 247.17 191.39 247.46 190.79 247.81 190.45 248.25 190.22 249.15 189.93 253.83 189.88 255.19 189.31 255.76 187.97 255.88 187.53 255.92 187.01 255.88 186.22 255.95 185.73 257.62 184.86 258.11 184.34 258.43 183.87 258.46 183.78 258.33 183.66 258.15 183.13 257.88 181.19 258.48 180.15 258.48 180.13 257.82 178.55 257.62 177.69 257.77 176.76 257.08 176.59 256.37 176.14 256.01 175.52 256.35 174.8 256.35 174.54 255.63 174.46 255.01 174.17 254.63 173.65 254.58 172.87 254.9 172.17 255.49 171.71"/><polygon id="dolnyslask" class="cls-1" points="92.41 152.51 93.14 150.77 92.2 150.01 91.22 149.74 89.63 150.06 88.1 149.7 87.5 148.18 87.36 146.39 87.7 145.5 88.33 145.09 88.69 144.06 88.95 142.86 86.38 141.19 83.52 140.41 80.48 140.4 79.4 140.62 78.42 142.85 73.07 143.79 70.09 142.73 68.67 141.16 66.17 139.76 65.05 137.78 64.96 136.42 64.5 135.37 61.58 133.78 60.53 133.5 58.27 133.93 57.01 135.99 55.43 137.38 53.38 137.83 51.94 135.99 51.86 134.55 51.17 133.8 47.24 133.07 46.73 133.77 46.35 134.85 45.58 135.64 44.67 135.94 44.11 136.36 41.56 141.34 38.7 145.13 36.87 145.59 33.23 143.58 31.34 144.24 30.47 145.27 29.17 147.53 28.41 147.47 26.89 146.15 26.14 146.16 22 148.33 21.52 148.62 21.67 150.37 21.67 150.41 21.79 151.15 21.86 151.44 22.34 152.28 22.92 152.98 23.3 153.79 23.16 154.99 23.26 155.12 23.36 155.23 22.92 156.1 22.57 157.21 22.36 158.36 22.33 159.41 22.28 159.94 22.11 160.21 21.91 160.4 21.77 160.69 21.72 161.09 21.71 161.88 21.64 162.35 20.48 165.29 19.18 168.41 18.26 169.43 17.89 170.04 17.89 170.8 18.44 170.82 19.38 170.56 22.33 170.78 22.38 170.42 22.35 169 22.32 168.88 22.31 168.72 22.33 168.5 22.4 168.36 22.66 168.07 22.74 167.86 22.71 166.67 22.31 166.09 21.89 165.76 21.79 165.29 21.79 165.29 21.91 165.15 22.04 165.04 22.18 164.97 22.33 164.94 22.7 164.67 22.82 164.48 22.9 164.14 23.39 164.59 24.7 164.88 24.92 165.29 25.22 165.59 25.59 165.77 25.88 165.71 25.96 165.29 25.96 165.29 26.2 164.75 26.53 164.51 26.83 164.67 26.95 165.29 27.2 165.9 28.67 165.92 29.36 166.26 29.78 166.94 29.75 167.33 29.52 167.76 29.34 168.52 29.42 169.1 29.66 169.82 29.96 170.5 30.24 170.95 30.76 171.36 31.23 171.57 31.62 171.9 31.93 172.66 31.94 173.06 31.86 173.47 31.84 173.86 32.01 174.2 32.33 174.3 32.38 174.32 32.66 174.01 32.91 173.58 33.15 173.28 34.23 173.19 36.3 173.92 39.4 175.01 39.7 175.2 40.04 175.73 40.23 175.91 40.5 176 42.65 175.48 43.29 175.54 43.35 175.82 43.43 176.07 44.74 178.3 44.91 178.36 45.62 178.34 47.16 177.76 47.58 177.82 47.93 178.16 48.27 178.8 48.49 179.35 48.63 179.92 48.58 180.4 48.2 180.71 48.15 180.84 48.13 180.97 48.15 181.1 48.2 181.22 49.3 181.02 50.91 179.46 52 179.57 52.82 180.2 53.21 180.38 53.65 180.28 53.96 179.88 54.15 179.36 54.34 178.96 54.67 178.88 55.61 178.9 56.46 179.12 57.25 179.57 59.46 181.91 59.69 182.69 58.88 183.02 58.98 183.33 58.98 183.47 58.91 183.58 58.79 183.81 58.75 184.02 58.72 184.34 58.72 184.57 58.79 184.55 58.57 184.86 58.04 185.39 57.8 185.73 57.35 185.83 56.52 185.6 56.12 185.73 55.91 186.26 55.53 186.59 55.07 186.86 54.67 187.2 54.53 187.25 54.29 187.41 54.14 187.42 54.26 187.87 54.31 188 53.79 187.88 53.59 188.52 53.83 189.25 54.67 189.4 55.01 190.44 55.13 190.68 55.46 190.95 55.65 190.91 55.84 190.74 56.14 190.65 57.32 190.65 57.56 190.72 57.75 191.1 57.77 191.48 57.74 191.85 57.81 192.2 58.27 192.81 59.42 193.24 60 193.64 60.37 194.17 61.03 195.37 61.4 195.88 61.73 196.47 62.52 197.29 62.8 198.06 63.09 199.44 63.33 199.94 63.79 200.54 64.68 201.36 65.76 201.93 66.81 201.85 67.61 200.76 68.19 200.34 68.5 199.89 68.78 199.34 69.25 198.64 69.83 198.14 70.34 198.06 70.86 198.1 71.18 198.02 71.47 197.95 71.71 197.73 72.14 197.13 72.45 196.91 72.68 196.91 73.16 197.08 73.39 197.06 73.45 196.91 73.45 196.42 73.52 196.31 73.9 196.32 74.06 196.43 74.17 196.67 74.45 197.08 74.76 197.2 74.93 196.86 74.88 196.32 74.54 195.88 74.5 194.89 74.23 194.17 73.76 193.65 73.13 193.28 72.64 192.78 72.39 191.99 72.2 191.13 71.91 190.39 71.08 189.16 71.07 188.59 71.78 188.16 72.37 188.24 73.1 188.68 73.1 188.68 73.21 188.2 75.07 183.53 76.43 182.49 78 182.23 78.93 180.63 79.52 178.34 81.38 174.79 83.54 171.59 84.46 169.44 85.69 167.84 86.52 167.29 86.93 166.04 87.1 164.98 87.37 163.97 88.88 160.5 89.55 159.77 90.39 159.49 91.28 159.55 92.18 159.33 93.04 158.81 92.7 156.75 92.41 152.51"/><polygon id="lodzkie" class="cls-1" points="169.21 136.7 167.81 135.25 167.57 134.06 167.71 133.53 167.97 133.14 168.2 132.66 168.03 131.97 166.51 129.93 164.63 128.48 162.92 127.68 160.17 128 159.24 127.7 159.02 127.02 159.08 126.23 158.47 125.3 157.77 124.5 157.55 123.61 158.42 123.1 158.69 121 158.33 120.54 157.32 119.87 155.54 119.15 155.14 119.25 154.77 119.05 154.24 117.87 154.15 116.39 153.83 115.31 153.11 114.82 152.2 114.54 151.38 114.12 150.76 113.04 150.06 112.14 149.09 112.22 148.27 113.07 142.9 114.18 140.5 112.25 139.17 111.62 136.45 111.05 133.96 109.32 133.45 109.3 132.96 109.39 132.63 109.87 132.4 110.35 131.42 110.65 128.22 110.71 127.77 110.96 127.58 111.36 127.34 111.68 127.38 113.04 127.88 114.1 128.26 114.22 128.33 114.63 126.73 116.17 124.15 117.27 123.88 118.45 123.64 121.09 122.33 122.64 120.6 123.05 119.7 122.94 118.89 123.01 118.53 124.31 118.34 125.74 118.64 127.22 119.12 128.57 119.02 129.89 117.78 132.08 117.48 132.41 113.73 132 112.25 132.7 111.58 133.62 110.38 136.49 109.72 139.04 109.59 141.8 109.84 144.08 109.89 146.29 109.16 148.26 107.93 149.15 106.52 148.45 105.23 148.84 104.8 150.14 104.15 151.17 102.26 151.59 101.84 152.51 101.91 153.85 102.4 155 103.88 156.32 104.14 157.46 104.31 159.38 104.89 160.43 105.65 161.04 111.44 162.54 113.27 162.49 113.6 162.19 113.84 161.76 114.15 161.59 114.84 162.44 115.45 163.62 117.39 165.19 118.69 164.55 122.34 164.43 123.19 164.03 124.01 163.46 124.92 163.64 125.71 164.45 129.09 166.28 130.77 166.63 132.84 166.62 133.72 165.84 135.47 166.17 137.03 167.6 139.44 171.46 140.31 171.73 142.91 171.59 145.72 173.02 146.32 172.01 147.07 171.31 147.97 170.71 148.41 169.48 148.3 168.19 148.32 166.87 148.65 165.55 149.57 165.38 152.99 167.89 153.57 167.19 153.78 165.85 153.53 164.48 152.73 163.84 151.55 162.04 152.19 159.55 152.82 158.72 153.63 158.42 156.49 158.82 157.32 158.58 159.12 156.87 159.94 156.47 160.8 156.33 161.66 155.94 162.61 153.59 163.35 153.03 163.27 151.81 163.59 150.69 165.25 149.13 165.69 147.99 165.69 146.66 165.35 146.28 164.4 145.82 164.21 145.15 164.11 143.82 163.85 142.54 163.08 140.69 163.75 138.35 165.77 138.34 167.32 139.19 169.2 139.45 169.54 138.76 169.6 137.77 169.21 136.7"/><polygon id="Lesser_Poland" data-name="Lesser Poland" class="cls-1" points="191.36 228.98 191.32 228.87 190.4 226.22 189.92 223.32 190.07 221.93 189.98 220.51 189.08 217.72 187.53 216.04 184.74 214.85 183.98 214.14 184.42 213.15 186.99 211.16 186.65 210.01 185.68 209.49 184.94 209.43 184.39 208.77 184.18 208.22 183.95 207.75 183.97 206.2 184.18 204.42 183.49 198.33 183.65 196.06 184.61 194.39 185.4 192.48 185.69 189.06 185.32 189.03 185.22 189.11 185.23 189.29 185.26 189.49 185.23 189.61 184.94 189.83 184.76 189.82 184.53 189.61 184.39 190.19 184.08 190.47 183.78 190.62 183.64 190.83 183.61 191.17 183.52 191.25 183.38 191.26 183.19 191.4 182.74 192.04 182.74 192.11 182.28 192.2 182.03 191.98 181.8 191.68 181.42 191.53 181.16 191.59 180.09 192.11 179.85 192.31 179.61 192.58 179.32 192.83 178.93 192.94 177.01 193 176.74 193.1 176.52 193.29 176.27 193.63 176.03 193.76 175.32 193.83 174.97 194.07 174.57 193.8 174.23 194.03 173.88 194.4 173.45 194.59 172.46 193.65 172.29 193.9 172.13 194.59 171.58 195.15 171.49 195.2 171.26 195.21 171.16 195.28 171.07 195.48 171.03 195.91 170.96 196.13 170.6 196.48 169.76 196.88 169.44 197.38 169.34 197.81 168.57 198.64 165.17 198.55 163.27 197.4 162.78 196.37 161.6 194.71 161.16 193.77 160.72 191.9 159.54 189.56 157.55 188.23 155.37 187.54 154.5 186.62 153.49 186.07 151.04 186.07 151.22 186.95 151.28 187.68 148.01 189.74 147.2 189.87 145.74 189.75 144.33 189.97 142.03 191.76 141.38 191.91 140.71 191.91 139.28 191.08 138.58 192.12 137.87 193.57 136.74 195.18 135.01 194.93 134.2 195.56 135.57 196.94 136.78 198.61 130.64 205.51 130.07 206.35 129.5 207.54 129.21 208.88 129.73 209.57 130.41 209.64 130.97 210.34 131.02 211.68 131.8 213.07 133.12 213.59 133.64 214.55 134.03 215.78 134.87 216.57 135.84 217.01 137.59 217.32 137.5 218.37 137.06 219.26 136.84 220.1 137.17 220.82 137.78 221.23 137.91 221.69 137.91 221.7 138.13 221.79 138.57 222.56 138.76 222.77 139.37 223.17 139.68 223.97 140.15 225.98 140.57 227.25 140.71 227.53 141.15 227.88 141.69 228.02 142.72 228.03 142.6 228.28 142.56 228.5 142.58 229.12 142.53 229.59 142.52 229.6 144.01 230.11 144.57 230.17 145.1 230.12 145.97 229.77 146.2 229.95 146.2 229.95 146.44 230.7 146.57 231.36 146.73 233.28 146.69 233.45 146.49 233.74 146.47 233.91 146.47 233.91 146.56 234.05 146.92 234.31 146.92 234.31 146.96 234.4 146.97 234.41 147.16 234.62 147.17 234.63 147.22 234.8 147.16 235.03 147.01 235.12 146.84 235.16 146.73 235.26 145.75 236.86 145.65 237.38 145.65 237.38 145.98 237.84 146.63 238.08 147.83 238.17 148.4 237.96 148.77 237.58 149.27 237.06 149.74 236.71 150.57 236.62 151.29 236.99 152.62 238.25 153.48 238.67 153.99 238.28 154.25 237.29 154.4 235.91 154.72 235.52 154.9 235.08 155.05 234.61 155.54 233.49 155.69 233.3 155.75 233.36 156.32 233.43 156.58 233.19 157.14 232.51 157.53 232.29 159.53 232.12 159.66 231.94 159.85 231.39 159.98 230.82 160.03 230.46 160.13 230.21 160.39 230.01 160.7 230 161.76 230.41 163.1 230.35 163.09 229.67 163.5 229.58 165.68 230.7 166.25 230.84 166.86 230.62 167.16 230.34 167.57 229.83 167.84 229.68 168.07 229.66 168.63 229.74 169.61 229.59 170.02 229.66 172.31 232.41 172.72 232.71 173.3 232.8 173.74 232.77 174.15 232.84 174.63 233.2 175.06 233.64 175.48 233.94 175.95 234.03 176.56 233.81 177.12 233.33 177.96 232.09 178.5 231.57 178.9 231.48 179.45 231.47 179.93 231.38 180.14 231.01 179.82 230.42 179.23 230.05 178.91 229.69 179.44 229.1 179.83 228.91 180.88 228.7 181.28 228.74 181.75 229.06 182.12 229.47 182.52 229.75 183.07 229.65 183.52 229.24 184.32 228.04 184.79 227.71 185.15 227.8 186.6 228.57 189.12 229.29 189.55 229.28 190.51 229.07 190.89 229.19 191.36 228.99 191.36 228.98"/><polygon id="kujawsko" class="cls-1" points="145.65 76.9 145.26 72.96 143.93 69.57 142.49 68.56 139.53 67.78 136.77 66.11 134.78 65.45 134.29 65.43 133.69 65.17 133.28 64.59 132.5 63.1 131.86 61.23 129.62 56.86 128.22 57.48 125.27 57.66 123.86 57.09 123.05 56.58 121.35 54.81 120.93 54.54 120.58 54.12 120.07 53.83 117.96 53.53 116.47 54.07 115.51 54.7 113.3 53.39 108.65 52.61 107.8 51.8 107.04 50.82 106.13 50.74 101.75 51.4 98.46 50.76 97.76 51.3 96.71 53.24 94.93 53.9 94.1 54.68 93.95 55.25 93.85 55.87 93.84 56.8 92.22 57.45 88.64 56.51 87.68 56.61 86.96 57.61 86.33 58.99 85.55 61.72 84.82 62.17 84.11 63.76 82.24 66.22 82.54 67.52 84.74 69.24 85.98 72.06 83.62 74.06 83.85 75.88 84.65 77.43 84.28 80.11 83.12 82.79 85.22 83.56 87.19 85.03 88.45 87.83 87.9 90.86 87.59 91.44 87.17 91.59 86.71 91.56 86.28 91.9 86.1 93 87.03 93.9 87.44 94.9 87.96 95.73 89.01 95.93 90.05 95.58 90.5 95.17 91.31 95.85 91.53 96.42 91.64 97.13 91.85 97.39 92.14 97.56 93.79 98.12 95.59 98.22 97.54 99.27 100.19 101.71 101.11 102.19 102.07 102.25 102.94 102.61 103.69 103.55 104.53 104.34 107.15 105.03 108.03 104.63 109.54 102.86 110.04 102.99 110.41 103.25 110.61 104.03 110.93 104.72 111.42 105.45 112.04 105.65 112.43 105.42 112.68 104.94 113.16 104.74 113.65 104.69 114.55 105.11 115.33 106.03 119.61 109.55 120.32 111.15 121.25 111.07 123.96 109.92 124.88 109.8 127.34 111.68 127.58 111.36 127.77 110.96 128.22 110.71 131.42 110.65 132.4 110.35 132.63 109.87 132.96 109.39 133.45 109.3 133.96 109.32 134.13 108.6 134.23 107.89 136.14 104.72 136.04 103.94 135.51 103.39 135.64 101.76 136.33 100.35 138.07 95.27 139.18 94.98 139.16 93.56 138.41 91.76 137.98 90.95 137.69 90.06 137.91 89.19 138.43 88.62 138.56 87.04 138.16 85.28 139.42 85.44 140.5 84.53 140.99 83.8 141.54 83.27 142.04 83.48 142.52 83.82 143.01 83.88 143.26 83.15 143.39 82.31 143.47 81.46 143.26 80.2 143.24 79.35 143.08 78.53 144.41 77.91 145.65 76.9"/><polygon id="wielkopolska" class="cls-1" points="128.26 114.22 127.88 114.1 127.38 113.04 127.34 111.68 124.88 109.8 123.96 109.92 121.25 111.07 120.32 111.15 119.61 109.55 115.33 106.03 114.55 105.11 113.65 104.69 113.16 104.74 112.68 104.94 112.43 105.42 112.04 105.65 111.42 105.45 110.93 104.72 110.61 104.03 110.41 103.25 110.04 102.99 109.54 102.86 108.03 104.63 107.15 105.03 104.53 104.34 103.69 103.55 102.94 102.61 102.07 102.25 101.11 102.19 100.19 101.71 97.54 99.27 95.59 98.22 93.79 98.12 92.14 97.56 91.85 97.39 91.64 97.13 91.53 96.42 91.31 95.85 90.5 95.17 90.05 95.58 89.01 95.93 87.96 95.73 87.44 94.9 87.03 93.9 86.1 93 86.28 91.9 86.71 91.56 87.17 91.59 87.59 91.44 87.9 90.86 88.45 87.83 87.19 85.03 85.22 83.56 83.12 82.79 84.28 80.11 84.65 77.43 83.85 75.88 83.62 74.06 85.98 72.06 84.74 69.24 82.54 67.52 82.24 66.22 84.11 63.76 84.82 62.17 83.67 60.79 82.29 60.02 77.02 59.81 75.51 58.88 74.44 56.99 73.19 55.45 72.23 55.14 71.24 55.17 70.32 55.58 69.63 56.77 69.13 58.2 68.47 60.98 67.69 61.13 62.93 61 62.35 61.83 62.37 63.56 62.77 65.11 64.4 66.69 66.35 67.19 67.31 67.69 68.12 68.73 68.28 69.97 67.49 70.96 66.88 72.04 66.13 72.75 64.22 73.35 60.48 75.54 58.38 78.84 55.88 81.2 54.3 81.83 52.68 82.05 51.1 81.1 49.67 80.62 49.15 83.1 49.24 85.84 46.72 89.08 47.52 89.82 48.07 91.93 47.82 92.6 47.32 92.92 44.87 93.7 44.48 93.65 44.3 94.05 44.27 95.01 44.16 95.92 44.26 98.3 45.17 100.81 45.49 102.3 45.69 103.85 45.69 105.12 44.99 105.12 44.44 105.5 45.54 107.46 46.06 108.72 46.11 111.32 45.27 113.81 45.14 114.42 45.08 115.06 44.78 116.31 44.77 117.73 44.97 119.06 45.58 119.96 46.29 120.69 47.71 121.45 48.17 122.77 48.77 123.86 49.69 124.78 50.65 124.8 51.1 124.61 51.53 124.88 51.57 125.72 51.33 126.52 51.22 127.97 51.6 129.09 52.71 129.85 53.88 130.24 55.78 128.95 57.47 130.82 58.27 133.93 60.53 133.5 61.58 133.78 64.5 135.37 64.96 136.42 65.05 137.78 66.17 139.76 68.67 141.16 70.09 142.73 73.07 143.79 78.42 142.85 79.4 140.62 80.48 140.4 83.52 140.41 86.38 141.19 88.95 142.86 88.69 144.06 88.33 145.09 87.7 145.5 87.36 146.39 87.5 148.18 88.1 149.7 89.63 150.06 91.22 149.74 92.2 150.01 93.14 150.77 92.41 152.51 92.7 156.75 93.04 158.81 93.93 158.75 94.79 159.2 95.13 160.08 95.28 161.09 96.64 162.19 98.28 162.28 101.35 161.15 104.31 159.38 104.14 157.46 103.88 156.32 102.4 155 101.91 153.85 101.84 152.51 102.26 151.59 104.15 151.17 104.8 150.14 105.23 148.84 106.52 148.45 107.93 149.15 109.16 148.26 109.89 146.29 109.84 144.08 109.59 141.8 109.72 139.04 110.38 136.49 111.58 133.62 112.25 132.7 113.73 132 117.48 132.41 117.78 132.08 119.02 129.89 119.12 128.57 118.64 127.22 118.34 125.74 118.53 124.31 118.89 123.01 119.7 122.94 120.6 123.05 122.33 122.64 123.64 121.09 123.88 118.45 124.15 117.27 126.73 116.17 128.33 114.63 128.26 114.22"/></svg>