<?xml version="1.0" encoding="utf-8"?>
<!-- Generator: Adobe Illustrator 22.1.0, SVG Export Plug-In . SVG Version: 6.00 Build 0)  -->
<svg version="1.1" xmlns="http://www.w3.org/2000/svg" xmlns:xlink="http://www.w3.org/1999/xlink" x="0px" y="0px"
	 viewBox="0 0 583.2 550.6" style="enable-background:new 0 0 583.2 550.6;" xml:space="preserve">
<style type="text/css">
	.st0{fill:#EAEAEA;}
	.st1{display:none;fill:none;stroke:#9FAAC1;stroke-miterlimit:10;}
	.st2{display:none;}
	.st3{display:inline;fill:none;stroke:#9FAAC1;stroke-miterlimit:10;}
</style>
<g id="Warstwa_2">
	<g>
		
			<image style="overflow:visible;opacity:0.23;" width="586" height="557" xlink:href="F0CD6625ABEAE6E2.png"  transform="matrix(1 0 0 1 -6.3454 -3.5039)">
		</image>
		<g>
			<g>
				<path id="zachodniopomorskie_13_" class="st0" d="M32.5,216c-0.3-0.3-26.8-34.5-26.8-34.5l8.6-75.2l14.6,2.2L30.3,96L8.5,90.6
					l109.6-35.5l21.8-25l15.8-4.2l11.1,20.8l-5.2,38.7l8.8,11.1l-16.2,55.1l-40.5,20.1L32.5,216z"/>
				<path id="pomorskie_13_" class="st0" d="M325.1,39.7l-65.7,0.3L245.8,7.6l26.7,14.3L240.6,0l-84.9,26l11.1,20.8l-5.2,38.7
					l8.8,11.1l-7.2,24.5c0,0,27.6,15.5,29.2,14.4c1.6-1,28.4-24.1,28.4-24.1l68.5,15.9l24.1-32.4c0,0-18.3-21.5-18-21.8
					C295.6,72.8,325.1,39.7,325.1,39.7z"/>
				<polygon id="lubuskie_13_" class="st0" points="32.5,216 51.6,326.5 132.5,294.2 103.3,230.9 117.5,169.9 				"/>
				<polygon id="wielkopolskie_12_" class="st0" points="192.4,135.4 203.8,212.6 284.4,248.3 232.1,351 207,350 189.2,308.7 
					132.5,294.2 103.3,230.9 117.5,169.9 154.2,151.6 163.2,121 				"/>
				<polygon id="dolnoslaskie_12_" class="st0" points="51.6,326.5 49.9,374.9 59.1,363.1 136.2,401.7 125.3,418.5 151.2,443.5 
					207,350 189.2,308.7 132.5,294.2 				"/>
				<polygon id="opolskie_13_" class="st0" points="168.2,415.1 209.1,424.9 203.9,442 227.1,450.4 246.4,430.6 262.4,362.9 
					232.1,351 207,350 				"/>
				<polygon id="slaskie_13_" class="st0" points="262.4,362.8 262.4,362.8 331.3,382.6 337,412.3 298.8,429.4 305,436.4 288.4,459 
					307.2,486.1 284.6,504.4 227.1,450.4 246.4,430.6 				"/>
				<polygon id="malopolskie_12_" class="st0" points="307.2,486.1 339.9,523.5 377.2,504.5 392.5,513.8 425.9,502.8 411.6,415.9 
					375,436.4 363.3,433.8 335.8,406.2 337,412.3 298.8,429.4 305,436.4 288.4,459 				"/>
				<polygon id="podkarpackie_25_" class="st0" points="501.9,538.6 489.7,492 547.7,420.6 442.5,377.8 411.6,415.9 425.9,502.8 
									"/>
				<polygon id="swietokrzyskie_13_" class="st0" points="331.3,382.6 364.9,336.7 442.2,357.5 442.5,377.8 411.6,415.9 375,436.4 
					363.3,433.8 335.8,406.2 				"/>
				<polygon id="lodzkie_13_" class="st0" points="284.4,248.3 298.8,240.1 376.4,306.3 364.9,336.7 331.3,382.6 262.4,362.9 
					232.1,351 				"/>
				<polygon id="Podlaskie_13_" class="st0" points="518,245 562,199 537.1,74.1 498.9,44.6 473.3,63.5 487.9,91.3 421.8,122.9 				
					"/>
				<polygon id="mazowieckie_13_" class="st0" points="442.2,357.5 443.7,274.9 518,245 421.8,122.9 326.5,168.3 298.8,240.1 
					376.4,306.3 364.9,336.7 				"/>
				<polygon id="podkarpackie_24_" class="st0" points="547.7,420.6 573.2,398.6 518,245 441.8,275.7 442.5,377.8 				"/>
				<polygon id="kujawsko_13_" class="st0" points="203.8,212.6 192.4,135.4 220.8,111.3 289.2,127.3 326.5,168.3 298.8,240.1 
					284.4,248.3 				"/>
				<polygon id="warminsko_12_" class="st0" points="473.3,63.5 498.9,44.6 325.1,39.7 295.3,73.1 313.3,94.9 289.2,127.3 
					326.5,168.3 487.9,91.3 				"/>
			</g>
		</g>
	</g>
</g>
<g id="Warstwa_1">
	<polygon id="zachodniopomorskie" class="st1" points="171.5,98.7 170.4,96.5 169.1,94.5 167.5,93.1 165.4,88.7 164,87.1 
		161.6,85.4 161.6,80.1 161.1,74.7 157.5,63.7 165.4,61.8 166.3,60.4 166.1,57.9 165,56.4 164.3,55 164.8,53.3 166.3,51.7 
		166.9,49.1 166.5,44.4 164.8,40.8 160.1,33.9 156.1,26 156,25.8 156,25.8 155.6,26 143.7,27.7 139.9,30.1 137.8,32.1 136.6,34.4 
		137.6,33.6 138.3,33.4 138.6,33.7 138.3,35.1 137.6,35.9 136.6,36.3 136.1,36 136.3,35.1 136.3,34.4 129.7,43 127.4,47.2 
		128.2,46.3 128.7,45.6 129.8,45.8 130.5,47.2 129.7,48 127.7,48.9 126.9,49.9 126.1,50.3 125.1,50.5 124.5,50.6 124.9,49.9 
		126.2,48.5 127,47.2 123.4,51.3 121.1,52.8 119.2,53.8 122.3,52.8 123.6,52.8 123.4,54.5 123.7,54.6 123.8,54.6 123.8,54.7 
		123.8,55.1 121.1,55.1 121.1,55.8 121.5,55.8 121.5,56.4 116.5,57.3 115.2,56.4 118.1,55.1 118.8,54.5 112.6,56.5 103.3,57.7 
		92.3,62.8 81,65.8 70.8,68.6 55,75.2 42,78.7 26.9,85.4 22.9,88.4 20.7,89.6 18.5,90 12.8,89.6 11.1,88.9 10.5,88.4 9.4,87.9 
		8.5,90.6 8.1,90.8 7.5,91.1 8.5,92.2 9,93.7 9,93.7 9.1,93.7 10.5,94.3 13.1,98.4 14.1,98.9 14.8,99.1 15.7,99.5 16.3,99.6 
		17,99.5 17,99.3 16.3,98.9 16.3,98.4 17.1,98.2 17.8,98 19.4,97 19.9,97.4 20.6,97.1 21.1,96.2 21.3,95 20.8,94.4 19.9,94 
		18.2,93.6 18.7,93 19.1,92.5 19.4,91.9 20,91.8 20.7,91.9 21.1,92.2 21.6,92 22.1,91.1 22.2,91.4 22.2,91.5 22.3,91.5 22.4,91.8 
		21.7,93.6 22.6,94.5 28.9,95.2 30.3,96 31.1,97.7 30.8,98 30.2,98.7 29.9,98.9 30.2,99.5 30.5,99.9 31,100.1 31.5,100.3 31.1,99.6 
		32.5,98.2 32.8,97.4 33.1,96.4 33.4,96.4 33.2,98.1 32.8,99.9 32.6,101.8 33.1,104.3 32.1,104.3 31.6,104.6 31,104.8 30.3,104.3 
		28.9,108.4 28.6,110.5 30.3,114.8 31,115.2 32.4,115.3 33.1,115.5 33,116 33,116.4 33.1,116.8 32.3,117.4 31.8,117.9 31.5,118.9 
		31.5,120.4 31.1,120.7 30.5,119.8 28.7,116.2 27.7,114.9 26.7,114.1 23.7,113.1 21.1,112.6 20.4,112.1 19.4,110.9 17.8,110.1 
		17,109.5 16.4,107.6 15.6,107 14.9,106.7 14.3,106.2 14,106.9 14.5,107.3 14.7,107.6 14.5,107.9 14,108.2 15,108.9 14.9,109.7 
		14.2,110.4 13.1,110.9 12.6,110.9 12.6,110.9 12.6,111 12.6,113.7 12.3,115.2 13.3,117 14.4,120.7 14.5,121.6 14.4,125.2 
		14.4,127.3 14.9,129.3 16.3,131.4 16.9,133.5 18,135.4 18.6,140.4 19.8,146 20.2,147.7 20.3,148.5 20.3,150.3 20.4,151.2 
		20.8,151.8 21.7,152.6 22,153 22.6,153.7 21.1,156.6 20.8,157.3 20.2,157.7 19.6,158.5 19.2,159.6 19.1,160.9 19.3,162.4 
		19.6,163.8 19.8,165.2 18,170.5 17.8,171.3 17.1,173.1 15.3,174.8 12,177.6 8.5,179.3 5.7,181.4 5.7,182 6.1,182.9 6.8,186.3 
		6.9,187.5 6.7,189.3 6.1,190.5 4.6,191.7 5.3,193 6.2,193.8 7.5,194.2 8.7,194.3 9.8,194.8 11.6,197 13.3,197.9 19.3,202.3 
		20.2,203.3 22.1,207.1 22.8,207.7 23.8,208.3 25.4,210.5 28.8,211.9 32.1,215.6 33.5,210.6 34.8,208.8 39.6,208 42.5,206.7 
		47,200.4 50.6,192.4 56.1,189.4 65.5,192.6 68.5,192.1 72.1,188 74.2,184 72.7,183.6 71.5,182.1 74.8,182 84.4,178.6 96.1,178.6 
		99,176.6 104.1,170.1 107.1,167.6 110.2,167.2 113,167.9 114.5,172.5 113.5,177 116.6,178.1 120.1,180.2 123.7,179.7 127.1,178.3 
		132.7,173.1 137.2,165.8 145.5,161 149.7,159.6 151.4,158.1 152.6,155.7 154.5,153.6 154,150.8 152.3,148.5 150.2,147.5 
		145.9,146.3 142.3,142.8 141.4,139.5 141.4,135.7 142.7,133.8 153.1,134.2 154.8,133.8 156.3,127.7 157.4,124.5 158.9,122 
		161,121.1 163.1,121 165.3,121.6 164.2,111.2 166.7,108.8 168.3,105.8 167.7,103.8 166.7,102.1 165.5,101.6 165.5,99.6 168.4,98.4 
			"/>
	<polygon id="swietokrzyskie" class="st1" points="444,379.1 443.8,377.8 443.5,375.9 442,370.4 441.9,369.6 441.8,369.2 
		441.6,369.1 441.3,368.9 441.2,368.3 441.2,367.7 441.3,367.5 441.6,367.3 441.6,367 442,363.1 441.8,361.4 440.8,360.5 440.8,360 
		441.2,359.8 441.7,359.6 442.2,359.3 442.4,358.7 442.2,357.5 424,361.2 414.6,358.3 410.2,358 406.2,355.4 405.9,354.1 
		405.7,352.5 403.9,350.6 403.5,347.6 401.7,347 400,348.7 398.4,351 396.4,352.1 388.5,353.4 381.7,352 380.2,350.8 379,348.8 
		377.6,347.3 368.2,341.7 366.6,337.4 363.5,336.2 361.9,337.4 359.8,342.6 357.8,343.5 356,343.7 354.1,344.7 350.2,348.4 
		348.3,349 342.1,348 340.3,348.7 338.9,350.6 337.5,356 340.1,360 341.8,361.4 342.4,364.4 341.9,367.4 340.7,368.9 333.1,363.3 
		331.2,363.7 330.4,366.6 330.4,369.5 330.6,372.4 329.7,375 327.7,376.4 326,377.9 324.7,380.1 329.5,381 330.2,381.5 330.5,382.4 
		330.5,383.6 330.2,384.3 326.3,385 324.2,389 325.7,390.9 330,392.1 332,393.6 333.6,397.2 336.3,400.4 334,400.7 330.1,404.1 
		329,406.5 330.9,407.6 334.8,408.2 336.4,408.9 341.7,408.9 344,410 345.9,412.1 350.6,413.6 355,416.5 357.7,421.6 358.6,425.8 
		359.6,427.9 362.2,431.4 363.3,433.8 367.4,436.3 375,436.4 376.6,434.7 376.8,433.6 377.5,432.6 379.4,431.7 380.2,431 
		380.3,430.5 380.4,429.5 380.6,429.1 380.9,428.9 381.3,428.9 381.6,428.8 382.7,427.6 383.1,426 383.4,425.5 385.6,427.6 
		386.5,427.2 387.4,426.3 388.1,425.9 389,426.5 389.8,425.9 391.3,425.8 391.9,425.4 392.5,424.7 392.9,424.3 393.5,424 
		397.7,423.9 398.6,423.7 399.2,423.1 399.8,422.5 400.2,422.1 402.7,421 403.1,420.8 404,421.1 404.5,421.8 405.1,422.3 
		406.1,422.1 406.1,421.9 407.1,420.6 407.5,420.2 407.8,420.2 408,420.1 408.1,419.3 408.3,418.8 409,418.5 409.7,417.9 410,416.6 
		410.5,417.1 410.9,417.1 411.6,416.6 411.6,416.4 411.6,415.9 411.6,415.6 411.7,415.3 412.6,415.5 412.7,415.3 416.2,412.3 
		417.4,412.8 418.8,412.4 420.3,411.6 421.3,410.5 420.7,409.1 420.5,408.6 425.9,406.2 429.6,405.3 430.7,404.3 432.4,402.2 
		433.1,400.9 433.5,399.1 433.8,397.7 436.5,394.5 438.1,391.8 439.1,391.1 440.7,390.8 441.6,390.3 442.5,388.9 443.2,387.3 
		443.5,385.9 444,382.4 	"/>
	<polygon id="slaskie" class="st1" points="336.7,410.8 336.4,408.9 334.8,408.2 330.9,407.6 329,406.5 330.1,404.1 334,400.7 
		336.3,400.4 333.6,397.2 332,393.6 330,392.1 325.7,390.9 324.2,389 326.3,385 330.2,384.3 330.5,383.6 330.5,382.4 330.2,381.5 
		329.5,381 324.7,380.1 318.5,377 312.7,377.3 310.9,376.8 305.6,368.2 302.1,365.1 298.3,364.4 296.4,366.1 291.8,366.1 
		288.2,365.3 280.7,361.4 278.9,359.5 276.9,359.2 275.1,360.4 273.2,361.2 265.2,361.5 262.4,362.9 260.4,369.8 259.7,370.7 
		259.3,372.1 259.7,374.2 260.4,375.8 260,379 255.5,381.9 254,385.1 253,390.8 251.7,394.4 252.7,397.8 254.2,399.8 256.1,401.3 
		257.9,403.3 258.6,406.4 250.3,406.4 248.7,406.8 247.9,408.9 248.6,410.4 248.4,412 247.2,412.6 245.9,412.8 245.4,414.6 
		246.4,426.1 246.4,430.6 245.8,433.2 240.2,435.8 236.9,438.4 229.7,439.9 226.3,446.5 226.2,448 226.2,448 227,448.2 230.3,450.4 
		229.9,452.1 230.7,452.9 234.3,453.6 235.1,454 237,455.7 237.7,455.9 238.9,456.2 239.6,456.7 239.9,457.2 240.3,458.6 
		240.6,459.1 241.7,460.1 242.5,459.9 244.2,458.6 244,458.3 244,458.3 243.9,458.2 243.8,458.2 246.1,458 248.3,458.7 252.5,461.1 
		253.8,461.1 256.1,459.6 256.9,460.2 257.3,461.7 257.1,463.1 257.4,464.1 258.9,465 257.4,466.8 257.4,469.2 258.3,471.9 
		259.7,474.7 260.3,477.2 260.6,477.8 261.3,478.4 263.2,478.5 264,478.7 264.7,479.4 265.8,480.7 266.5,481.1 267.3,481 
		268.3,480.7 269.1,480.6 270,481.1 270.2,481.8 270.6,484.9 270.8,485.7 271.5,487.3 271.7,488 272.5,491.8 272.8,493.5 272.5,495 
		278.1,495.6 279.7,496.6 279.3,498.1 279.4,499.3 279.6,500.5 279.7,501.8 279.5,504.7 279.8,505.6 281,505.8 282.4,505.7 
		284.6,504.4 285.9,504.2 286.3,504.3 287.5,505.1 288.1,505.5 288.7,505.5 290,505.2 291.8,504.5 292.2,503.9 292.4,502.7 
		292.7,501 292.9,501 293.6,501 293.9,500.7 294,500.1 293.9,499.8 293.7,499.5 293.6,499.5 294.6,496.6 295.3,495.3 296.2,494.5 
		297.1,494.1 298.2,493.9 299.9,493.9 300.5,493.8 301.3,493.4 301.7,493.1 306.6,487.6 306.8,487.2 307.2,487.1 307.5,487.2 
		307.5,487.2 307.2,486.1 305.9,485.2 305.2,483.7 305.7,481.8 306.6,479.9 306.8,477.6 303,476.9 300.8,475.9 299,474.2 
		298.2,471.4 297,469.3 294.1,468.2 292.4,465.2 292.2,462.1 291.1,460.6 289.6,460.5 288.4,459 289,456 290.3,453.5 291.5,451.6 
		305,436.4 302.3,432.7 299.3,429.7 301.2,428.3 305,428.9 307.4,425.3 309,422.2 310.5,419.9 313.7,421.7 315.2,421.7 316.6,421.4 
		321.7,417.4 324.7,417 327.9,417.2 329.8,416.8 337,412.3 	"/>
	<polygon id="mazowieckie" class="st1" points="513.6,244.6 512.7,244.9 511.8,244.3 511.9,243.9 512.3,242.8 512.5,242.4 
		510.9,240.4 509.8,239.8 508.7,240.5 508.1,238.3 506.8,237 505.2,236.6 500.7,237.2 491.9,235.3 488.8,235.5 487.5,235.2 
		486.8,234 485.8,234.5 484.7,233.6 483.8,232.2 483.3,231.2 483.6,228.1 483.5,227.7 482.7,227.5 482.2,227.1 481.9,226.4 
		481.8,225.1 481.8,224.3 482,223.6 482.2,222.8 482.1,221.9 481.7,221.3 480.5,220.2 479.2,218.6 476.1,215.3 476.2,213.2 
		476.1,209.7 475.4,206.3 475.1,201.5 474.1,197.1 470.9,198 467.6,199.6 465.9,198.3 464.4,196.4 465.3,191.2 462.5,189.1 
		459.8,192.1 455.5,192.8 451.4,190.7 449.9,187.9 449.1,184.4 448.3,182.1 446.9,180.6 444.7,179.5 443.2,176.9 443,174.5 
		443.9,172.7 441.3,170.8 438.2,170.3 435.2,168.6 433.1,164.5 429.9,156.6 428.5,145.6 427.6,141.9 426.3,138.8 425.5,135.6 
		418.6,136 417.3,136.8 415.6,140.1 413.3,141.7 410.8,142 405.7,141.6 401.4,146.8 396.2,148.4 390.8,148.4 386.7,150.7 383,151.5 
		378.9,151.4 376.8,153.2 375,155.4 367,160 365,160.6 362.8,160.3 360.9,161.7 360,165 358.5,166.7 356.9,167.5 352.6,168.3 
		334.6,165.6 334.1,165 333.7,164.2 332.8,163.6 331.9,163.4 329.7,164.1 328.2,166.9 326.5,168.3 324.6,168.8 321.8,171 
		318.9,172.4 319.2,174.2 319.2,176.1 319.7,178.9 319.6,180.7 319.2,182.6 318.8,184.2 317.6,184 316.6,183.3 315.5,182.8 
		314.3,184 313.2,185.6 310.9,187.6 308.1,187.2 308.9,191.2 308.7,194.6 307.5,195.8 307.1,197.8 307.7,199.7 308.6,201.5 
		310.3,205.4 310.3,208.5 307.9,209.2 304.1,220.4 302.6,223.5 302.2,227.1 303.4,228.2 303.6,230 299.4,236.9 299.2,238.5 
		298.8,240.1 304.3,243.9 310.3,245.1 313.2,246.5 318.4,250.8 330.2,248.3 332.1,246.4 334.2,246.3 335.8,248.3 337.2,250.6 
		338.9,251.5 340.9,252.2 342.5,253.3 343.2,255.7 343.5,258.9 344.6,261.5 345.4,261.9 346.2,261.7 350.2,263.2 352.4,264.7 
		353.2,265.8 352.6,270.4 350.7,271.4 351.2,273.4 352.7,275.3 354.1,277.2 353.9,279 354.5,280.5 356.4,281.2 362.5,280.5 
		366.3,282.2 370.4,285.5 373.7,289.9 374.2,291.4 373.6,292.4 373,293.3 372.8,294.5 373.2,297.1 376.4,300.3 377.2,302.6 
		377,304.8 376.4,306.3 372.2,305.7 368.8,303.9 364.3,303.9 362.9,309.1 364.5,313.2 365.1,315.9 365.3,318.8 365.8,320.3 
		367.9,321.4 368.6,322.2 368.6,325.1 367.7,327.6 364,331 363.3,333.5 363.5,336.2 366.6,337.4 368.2,341.7 377.6,347.3 379,348.8 
		380.2,350.8 381.7,352 388.5,353.4 396.4,352.1 398.4,351 400,348.7 401.7,347 403.5,347.6 403.9,350.6 405.7,352.5 405.9,354.1 
		406.2,355.4 410.2,358 414.6,358.3 424,361.2 442.2,357.5 440.8,354.1 440.3,351.2 439.8,349.5 439.6,348.7 439.7,347.7 440,347 
		440.4,345.6 441.5,339.9 442.2,338.5 442.7,338.1 443.3,337.9 443.2,336.1 443.9,333.3 444.2,330.7 441.9,328 442.2,325.8 
		443.4,324.6 444.8,322.8 444.8,319.1 443.1,318.8 443.1,318.3 444,317.2 443.8,316.1 442.7,314.4 442.6,313.2 442.7,312.1 
		442.5,311.3 441.6,310.7 441.1,310.6 439.6,311.3 438.7,311.4 435.8,310.7 434.2,310 433.4,309 432.5,307.8 432.5,306.9 
		433.1,304.5 435.2,304 437.2,304.8 441.3,305.5 445.4,304 446.8,302.7 447.1,300.6 444.2,296.1 446.4,293.1 449.6,291.1 
		447.6,288.1 446.2,284.7 446,282.2 444.9,279.9 444,277.2 443.7,274.9 447.7,271.9 452,270.6 460.2,270.8 468,269.1 470.9,269.7 
		472.9,269 478.3,265 480.5,264.7 486.8,265.3 489.9,262.8 490.2,261.4 490.6,260.2 491.5,259.2 492.6,258.5 494.9,259.1 
		501.6,262.5 503.8,261.6 505.6,259.3 507.3,255.5 512.7,247.5 514.5,244 	"/>
	<polygon id="warminskie" class="st1" points="498.8,43.8 497.4,46.5 496.3,47.4 492.4,48.7 481.7,48.1 468.5,47.4 452.6,46.6 
		436.7,45.6 412.2,44.4 391.8,43.3 375.3,42.4 358.9,41.6 336.8,40.3 325.1,39.7 324.9,39.9 324.2,39.9 324.3,40.2 324.6,41.4 
		324.6,41.7 323.8,41.9 323.3,42.9 322.9,43.9 322.5,44.5 321.7,44.6 320.9,45 317.3,47.6 315,48 314,48.3 309.6,51.1 308.9,51.3 
		308.1,51.8 306.7,53.2 305.3,55.5 304.9,55.8 304.5,56.4 303.5,59.1 302.8,59.9 302.8,58.4 303,57.2 303.5,56.4 303.9,55.8 
		303.9,55.1 302.7,55.3 297.6,54.7 296.2,56.2 295.8,59.5 297.1,63.3 298.3,65.3 298.8,67.8 298.2,69.5 297.2,71.1 294.8,73.7 
		293.9,75 294.1,76.9 295,81.1 297,84.2 299.8,85.8 302.7,86.2 304.2,88.3 303,92.1 305.1,93 310.7,92.6 313.6,93.4 313.3,94.9 
		313.3,96.5 312.6,97.8 311.6,98.9 310.7,101.6 310,102.6 309.9,104.3 306.7,105.7 302.1,105.3 299.7,106.8 297.7,109 289.2,124.8 
		294.2,134.4 295.6,138.4 297.3,141.8 298.3,143.1 299.5,143.7 300.6,143.7 305,145.1 311.1,148.8 317.6,150.5 320.7,152.7 
		323.6,160.1 324.6,168.8 326.5,168.3 328.2,166.9 329.7,164.1 331.9,163.4 332.8,163.6 333.7,164.2 334.1,165 334.6,165.6 
		352.6,168.3 356.9,167.5 358.5,166.7 360,165 360.9,161.7 362.8,160.3 365,160.6 367,160 375,155.4 376.8,153.2 378.9,151.4 
		383,151.5 386.7,150.7 390.8,148.4 396.2,148.4 401.4,146.8 405.7,141.6 410.8,142 413.3,141.7 415.6,140.1 417.3,136.8 418.6,136 
		425.5,135.6 429.6,133.7 437.8,134.2 441.3,132.9 443.1,131.6 444.8,130.8 449.1,130.1 459,123.4 464.4,117.1 480.3,107.3 
		483.5,103.8 485.5,98.2 487.8,93.7 488,89.2 482,80.8 479.1,78 478.5,75.3 478.2,72.4 472.5,64.6 477.8,57 490.5,55.3 494.3,52.7 
		497.5,49.2 498.9,44.6 	"/>
	<polygon id="pomorskie" class="st1" points="325.1,39.7 320.7,39.5 317.8,38.6 316.7,37.5 315.6,38 312.2,41.6 310.4,42.5 
		308.1,43 303.5,45.3 282.2,48.4 280.5,48 279.8,47.6 279.4,47.2 277.6,48.1 275.4,48 265.9,44.8 264.9,43.4 264.6,42.6 263.7,42.2 
		262.8,41.8 262.1,41.7 261.2,41.5 259.5,40.1 258.5,39.9 257.7,38.1 257.4,34.5 257.4,30.6 257.6,28.4 257.1,27.5 255.6,22.9 
		254.9,21.9 254.5,20.5 254.8,18.9 253.9,20.2 252.9,20.4 252.2,19.6 252.5,17.6 251.8,16.9 251.8,16.3 252,15.6 252,14.9 
		251.2,13.1 250.5,11.8 250.3,11.5 248.9,10.9 248.6,10.5 248.6,9 248.7,8.5 249.5,5.6 249.8,5.1 250.5,4.8 251.1,5 252.9,6.5 
		253.4,7.2 256.8,8.8 260.2,11.1 261.8,11.7 262.4,12.6 262.8,12.9 264.8,13.3 265.4,13.6 268,18.2 269,19.3 269.7,21.2 270.7,21.9 
		271,22.6 271.4,23.3 271.6,23.6 272.7,23.2 272.5,21.9 272,20.3 271.4,19.2 267.9,14.6 248.4,3 247.3,2.7 246.5,2.3 244.4,0.5 
		243.1,0 233.7,0 218.6,1.4 208.9,4.8 187.4,8.8 170.2,16.9 164.8,22.9 162.6,23.6 160.2,24.1 156,25.8 156,25.8 156.1,26 
		160.1,33.9 164.8,40.8 166.5,44.4 166.9,49.1 166.3,51.7 164.8,53.3 164.3,55 165,56.4 166.1,57.9 166.3,60.4 165.4,61.8 
		157.5,63.7 161.1,74.7 161.6,80.1 161.6,85.4 164,87.1 165.4,88.7 167.5,93.1 169.1,94.5 170.4,96.5 171.5,98.7 168.4,98.4 
		165.5,99.6 165.5,101.6 166.7,102.1 167.7,103.8 168.3,105.8 166.7,108.8 164.2,111.2 165.3,121.6 167.9,125 170.4,129.2 
		173.6,131.3 185.2,131.7 188.3,133.3 190.8,136.5 192.4,135.4 194.1,129.4 195.5,126.4 197.1,124.2 199.2,124 207.1,126.1 
		210.6,124.7 210.7,122.6 210.9,121.2 211.1,119.9 213,118.3 216.9,116.8 219.3,112.5 220.8,111.3 228.1,112.7 237.7,111.3 
		239.6,111.5 241.4,113.7 243.2,115.4 253.4,117.1 258.3,120 260.4,118.6 263.6,117.5 268.3,118.1 269.4,118.8 270.2,119.7 
		271.2,120.3 274.9,124.1 276.6,125.2 279.7,126.5 286.2,126.2 289.2,124.8 297.7,109 299.7,106.8 302.1,105.3 306.7,105.7 
		309.9,104.3 310,102.6 310.7,101.6 311.6,98.9 312.6,97.8 313.3,96.5 313.3,94.9 313.6,93.4 310.7,92.6 305.1,93 303,92.1 
		304.2,88.3 302.7,86.2 299.8,85.8 297,84.2 295,81.1 294.1,76.9 293.9,75 294.8,73.7 297.2,71.1 298.2,69.5 298.8,67.8 298.3,65.3 
		297.1,63.3 295.8,59.5 296.2,56.2 297.6,54.7 302.7,55.3 303.9,55.1 303.9,55.8 303.5,56.4 303,57.2 302.8,58.4 302.8,59.9 
		303.5,59.1 304.5,56.4 304.9,55.8 305.3,55.5 306.7,53.2 308.1,51.8 308.9,51.3 309.6,51.1 314,48.3 315,48 317.3,47.6 320.9,45 
		321.7,44.6 322.5,44.5 322.9,43.9 323.3,42.9 323.8,41.9 324.6,41.7 324.6,41.4 324.3,40.2 324.2,39.9 324.9,39.9 	"/>
	<polygon id="Podlaskie" class="st1" points="562,199 561.4,187.7 561.3,187 561,186.4 560.9,185.9 560.8,184.9 560.9,184.1 
		561.6,182.8 561.7,182.2 561.7,181.5 561.3,178.9 561.3,178.3 561.4,177.1 561.3,176.4 560.7,175.1 558.9,172.9 558.5,171.2 
		558.5,169.4 559.1,168.1 559.8,166.9 560.2,165.6 560.3,163.2 559.8,162.1 558.8,161.4 557.8,160.2 557.1,158.7 556.6,157.3 
		556.2,156.1 555.1,154.7 554.1,152 551.8,143 550.7,140 547.9,134.3 543.2,119.4 541.8,112.7 541.7,106.8 541.7,106.8 541.7,106.8 
		540.3,104.8 539.7,102.9 539.1,97.7 538.6,95.2 537.9,93 537.3,90.7 537.2,87.8 537.4,87.4 537.4,86.8 537.3,86.3 536.9,85.8 
		536.3,85.4 535.9,84.7 535.7,83.8 535.7,82.7 536,82.3 536.2,81.9 536.9,81.3 537.7,79.8 537.7,77.6 536.9,73.1 536.5,71.1 
		535.9,68.9 535.1,67 534.1,65.6 533.6,65.2 532.4,64.9 531.8,64.5 531.3,63.7 530.2,61.8 529.7,60.9 528.7,60 527.5,59.1 
		522.9,57.3 520.7,56 517.2,53.1 516.2,52.5 515,52.7 513.6,53.3 512.4,53.4 511.3,51.9 511.3,50.9 511.7,49.8 511.9,48.9 
		511.6,48.3 509.6,48.1 509,47.6 508.5,47 508.3,46.2 508.1,45.5 507.4,44.8 506.8,44.7 505.5,45.1 505,45 501.5,43.2 500.3,43 
		498.9,43.7 498.8,43.8 498.9,44.6 497.5,49.2 494.3,52.7 490.5,55.3 477.8,57 472.5,64.6 478.2,72.4 478.5,75.3 479.1,78 482,80.8 
		488,89.2 487.8,93.7 485.5,98.2 483.5,103.8 480.3,107.3 464.4,117.1 459,123.4 449.1,130.1 444.8,130.8 443.1,131.6 441.3,132.9 
		437.8,134.2 429.6,133.7 425.5,135.6 426.3,138.8 427.6,141.9 428.5,145.6 429.9,156.6 433.1,164.5 435.2,168.6 438.2,170.3 
		441.3,170.8 443.9,172.7 443,174.5 443.2,176.9 444.7,179.5 446.9,180.6 448.3,182.1 449.1,184.4 449.9,187.9 451.4,190.7 
		455.5,192.8 459.8,192.1 462.5,189.1 465.3,191.2 464.4,196.4 465.9,198.3 467.6,199.6 470.9,198 474.1,197.1 475.1,201.5 
		475.4,206.3 476.1,209.7 476.2,213.2 476.1,215.3 479.2,218.6 480.5,220.2 481.7,221.3 482.1,221.9 482.2,222.8 482,223.6 
		481.8,224.3 481.8,225.1 481.9,226.4 482.2,227.1 482.7,227.5 483.5,227.7 483.6,228.1 483.3,231.2 483.8,232.2 484.7,233.6 
		485.8,234.5 486.8,234 487.5,235.2 488.8,235.5 491.9,235.3 500.7,237.2 505.2,236.6 506.8,237 508.1,238.3 508.7,240.5 
		509.8,239.8 510.9,240.4 512.5,242.4 512.3,242.8 511.9,243.9 511.8,244.3 512.7,244.9 513.6,244.6 514.5,244 515.3,243.6 
		516.3,243.9 518,245 519.1,245 519.6,244.7 519.6,244.7 519.1,244.3 519,244.2 521.6,238.9 522.7,237.3 524.9,234.4 531.8,223.7 
		536.9,219.5 541.9,216.6 551.4,213.9 558.9,208.7 561.3,205.9 562.1,201.9 	"/>
	<polygon id="Podkarpackie" class="st1" points="547,422.9 541.3,419.5 539.5,416.7 535.9,414.4 531.7,413.9 528.5,414.3 527,415 
		522.2,420.3 518.5,423.2 514.2,424.1 501.5,423.8 493.7,421.6 493.1,420.2 495.1,419.7 495.9,419.3 494.4,418.2 486.5,419.7 
		484.4,418.8 483.1,416.5 482.6,414.3 483.5,412.4 485,410.6 486.8,410 488.5,410.2 490.1,409.3 489.4,407.1 488,404.7 487.9,403.4 
		488,402.1 487.5,401.3 478.5,396.6 465.2,393.1 464.2,391.4 466.8,386.4 467.5,384.2 465.8,382.6 463.7,381.3 461.6,380.5 
		459.3,380.6 455.6,383.1 451.3,383 443.8,377.8 444,379.1 444,382.4 443.5,385.9 443.2,387.3 442.5,388.9 441.6,390.3 440.7,390.8 
		439.1,391.1 438.1,391.8 436.5,394.5 433.8,397.7 433.5,399.1 433.1,400.9 432.4,402.2 430.7,404.3 429.6,405.3 425.9,406.2 
		420.5,408.6 420.7,409.1 421.3,410.5 420.3,411.6 418.8,412.4 417.4,412.8 416.2,412.3 412.7,415.3 412.6,415.5 411.9,422.9 
		410.2,427.2 408.1,430.7 407.8,435.7 409.3,449.2 408.8,453.1 408.8,456.5 409.3,457.5 409.7,458.8 410.9,460.2 412.5,460.3 
		414.7,461.5 415.4,464 409.7,468.4 408.8,470.6 410.5,472.1 416.6,474.8 420,478.4 422,484.5 422.2,487.6 421.9,490.8 422.9,497.1 
		424.9,502.9 425,503.2 425,503.2 425.9,502.8 430,502.3 431,502.7 431.6,503 432.7,504.1 433.2,504.4 433.7,504.5 434.5,504.3 
		435.1,504.5 436,505.5 438,508.5 438.9,509.2 439.5,508.7 440.3,507.8 441.2,506.9 442.4,506.6 443.4,507.3 445.5,509.2 
		448.5,510.7 450.6,512.7 452.2,515.3 452.9,518.5 453.4,521.2 455,522.4 459,523.1 460.8,524.4 461.5,524.6 462.1,524.7 
		463.5,524.5 463.9,524.6 464.5,525.3 464.5,525.9 464.4,526.4 464.5,527 465,527.4 467.6,528.2 470.8,528.1 471.9,528.5 
		474.8,531.4 476.9,532.1 481.4,532.2 483.4,533.3 484.6,532.1 485.7,532.5 487.8,534.8 489.2,535.8 490.5,535.9 491.6,535.8 
		493.7,535.9 495,535.6 495.6,535.6 496.1,536.2 497.3,537.7 497.9,537.9 498.9,538.4 500.2,539.5 501.4,540 501.9,538.6 
		501.8,538.4 501.8,538.1 500.9,536.6 500.7,535.8 500.7,534.6 501.2,532.9 501.2,532.1 500.5,531.3 498,529.8 497,529.1 
		495.2,526.9 493.4,525.6 493.6,525.5 493.7,525.5 492.8,524.8 492.1,525.9 491.7,526 491.4,525.5 491.7,524.5 492.7,522.6 
		493.5,519.5 494.4,516.8 494.6,515.6 493.8,507.6 493.6,506.2 493.3,505.5 492.1,504.2 491.3,503 491.2,502.6 490.9,501.5 
		490.6,497.8 490.2,496.6 489.1,493.4 490.6,490.1 494.9,484.3 495.8,481.4 496.3,480.7 496.8,480.1 498.1,479.9 498.7,479.6 
		499.7,478.6 503.2,472.2 503.8,471.5 504.3,471.3 505.3,470.8 505.8,470.4 506,469.8 506.5,467.9 506.8,467.2 509.1,464.8 
		515.3,455.8 517.6,453.2 519.7,451.6 521.4,448.9 534.4,434.8 536.9,432.7 540.1,430.4 540.1,430.4 540.1,430.4 540.1,430.4 
		541.7,429 546.2,424.1 547,423 	"/>
	<polygon id="opolskie" class="st1" points="260.4,369.8 262.4,362.9 258.2,359.5 256.8,356.8 255.3,355 254.6,355.4 254.1,356.4 
		253.3,356.9 249.3,357.1 236.6,353.8 234.9,352.4 233.6,350.1 227.1,354.1 220.4,356.5 216.8,356.4 213.8,353.9 213.5,351.7 
		212.8,349.8 210.8,348.7 208.8,348.8 207,350 205,350.6 203,350.3 201.2,351 199.7,352.7 196.4,360.2 195.9,362.4 195.4,364.8 
		194.6,367.5 192.7,368.8 190.1,372.2 188,377 183.2,384.1 179.2,391.8 177.9,396.9 175.8,400.4 172.3,401 169.3,403.3 165.3,413.5 
		165,414.5 165,414.5 165.8,415.1 167.2,414.9 173,416.6 173.6,417 175,418 175.7,418.5 176.5,418.5 178.2,418.1 178.9,418.4 
		178.7,418.6 178.9,419.5 179.3,420.7 179.6,421.5 180.2,422.1 182.2,423.3 183.6,423.7 186.2,423.7 187.4,424.1 186.4,424.6 
		186.5,424.8 186.7,425.2 186.9,425.4 187.2,425.7 187.2,426.8 187.3,428 187.6,428.9 188.4,429.5 189,427.9 190.3,427.7 
		191.6,428.8 192,430.4 192.4,430.6 192.6,430.6 193,430.6 193.2,430.4 194.9,428.3 197.6,428.1 202.7,429 204.1,428.7 205,427.9 
		206.7,425.5 207,424.8 207.2,424.1 207.6,423.9 208.5,424.3 208.8,424.6 209.9,426 210,426.2 210,426.5 210,426.7 209.9,427 
		209.3,428.7 209.2,429.5 209.3,430.4 209.9,431 210.8,432.6 210.2,434 209.1,435 206.6,436.4 205.1,437 202.3,437.1 201.8,437.5 
		201.3,438.4 201.4,439 204.2,442.5 205.1,442.9 205.7,442.8 206.2,442.6 206.7,442.3 207.6,442.6 209.1,443.4 209.9,443.5 
		209.9,443.6 209.9,443.7 209.9,443.7 209.9,443.8 209.3,444.3 209.2,444.8 209.3,445.2 209.9,445.8 210.4,446.5 210.9,447.5 
		211.1,448.6 211.6,449.7 212.3,450.6 216,454.3 218,454.7 220.1,454 221.8,452.5 222.8,452.3 225,452.2 226.9,451.7 227.2,451.3 
		227.1,450.4 226.8,449.7 226.2,449.7 225.7,449.9 225.5,449.7 225.3,447.8 226.2,448 226.2,448 226.3,446.5 229.7,439.9 
		236.9,438.4 240.2,435.8 245.8,433.2 246.4,430.6 246.4,426.1 245.4,414.6 245.9,412.8 247.2,412.6 248.4,412 248.6,410.4 
		247.9,408.9 248.7,406.8 250.3,406.4 258.6,406.4 257.9,403.3 256.1,401.3 254.2,399.8 252.7,397.8 251.7,394.4 253,390.8 
		254,385.1 255.5,381.9 260,379 260.4,375.8 259.7,374.2 259.3,372.1 259.7,370.7 	"/>
	<polygon id="lubuskie" class="st1" points="130.6,287.3 126.9,283.3 122.7,286 120.2,285.2 117.8,283.5 117,281.1 117.2,277.9 
		117.6,276.1 117.6,274.3 116.7,273.6 115.7,274.1 113.6,274.1 111.5,272 110.2,269.7 109.2,266.8 106.1,265.1 104.6,263.5 
		103.2,261.5 102.7,258.6 102.8,255.5 103.4,252.7 103.5,251.3 103.9,250 105.7,244.5 105.6,238.8 104.4,236 102,231.7 103.3,230.9 
		104.8,230.9 104.8,228 104.3,224.6 103.6,221.4 101.7,215.8 101.4,210.6 101.7,208.7 101.7,206.6 102.1,205.6 102.9,205.8 
		108.4,204 109.4,203.3 110,201.8 108.7,197.2 107,195.6 112.6,188.5 112.4,182.5 113.5,177 114.5,172.5 113,167.9 110.2,167.2 
		107.1,167.6 104.1,170.1 99,176.6 96.1,178.6 84.4,178.6 74.8,182 71.5,182.1 72.7,183.6 74.2,184 72.1,188 68.5,192.1 65.5,192.6 
		56.1,189.4 50.6,192.4 47,200.4 42.5,206.7 39.6,208 34.8,208.8 33.5,210.6 32.1,215.6 32.5,216 34.2,217.5 32.6,220.8 32.1,223 
		33.3,223.9 33.5,225 32.6,227.1 31.2,229.3 28.2,231.9 28.6,235.6 29.9,239.7 31.1,242.4 30.8,244.1 32,245.5 34,246.5 35.6,246.9 
		37.2,247.6 38.1,249.2 38.1,251.2 36.9,252.6 36.9,253.1 37.7,254.5 37.6,255.8 36.9,257.5 36.6,259.9 37.1,261.3 40.8,264 
		39.8,265.3 39.3,266.1 39.2,266.9 39.1,267.7 38.9,268.7 37.6,270.9 37.4,271.8 37.1,277.5 36.7,279.2 35.7,280.8 34.7,282.3 
		31.5,285.6 30.6,287.2 30.9,289.2 31.8,290.6 32.8,291.4 33.7,292.4 33.9,294.9 34.5,297.2 35.7,298.7 38.5,301 39.2,302.5 
		39.8,304.8 39.9,307.2 39.2,309.1 38.1,310.8 37.6,312.7 37.7,313.3 37.9,314.3 39.2,315.6 42.9,316.9 44.1,317.7 44.1,317.7 
		45.4,318.5 48.1,319.3 49.4,319.9 50.2,320.6 51.3,321.7 51.8,322.9 51.4,324 51.6,326.5 52.7,325.9 61.8,321.1 63.4,321 
		66.8,323.9 68.4,324 71.3,319.2 73.2,316.9 77.3,315.4 85.3,319.9 89.4,318.8 95.8,310.5 101.3,299.5 102.5,298.7 104.6,298 
		106.2,296.2 107.1,293.8 108.1,292.3 116.8,293.9 118.3,295.5 118.5,298.7 121.7,302.7 126.2,301.8 129.7,298.7 132.5,294.2 	"/>
	<polygon id="lubelskie" class="st1" points="566,377.2 567.6,377.1 569.1,377.9 570.3,377.3 572.1,377.3 573.9,377 574.6,375.5 
		573.9,374.3 569.1,371.7 565.3,368.1 564.4,366.7 564,365.5 564,364.7 563.9,364 563.2,363 562.5,362.5 561.8,362.3 561.4,361.8 
		561.6,361.1 561.6,360.5 561,356.8 560.4,355.6 558.9,353.2 558.1,351.5 558.4,350.7 559.3,350.1 558.7,349.1 555.9,346.3 
		553,344.4 551.8,342.9 548.6,336 547.7,335.3 546.5,335.3 545.7,334.8 545.3,333 545.6,331.7 546.4,330.3 547.4,329.3 548.4,328.9 
		548.1,327.6 548.2,326.7 548.5,326 549.2,325.8 548.7,324.6 546.4,321.3 546.3,320.7 547.2,318.8 546.4,318.3 545.4,317.9 
		544.6,317.3 544.1,316.1 544,315.5 543.8,314.2 543.1,313.7 542.1,313.4 541.4,312 541.8,312 542.1,312 541,309.8 540.4,308.5 
		540.3,307.2 540.5,304.8 540.5,303.9 539.8,303.2 539.8,302.5 540.3,302.4 540.6,302.1 541.4,301.3 541.1,300.9 540.8,300.3 
		540.6,299.7 540.9,299.4 541.3,299.1 541.2,298.6 540.9,298 540.6,297.5 541,295.3 541.2,294.4 541.4,293.7 542.4,292.6 
		543.5,291.8 544.7,290.8 545.3,288.6 544.2,287.2 543.4,285.6 544,284.8 544.2,282.8 544.9,282.5 544.9,282 544.8,281.9 
		544.8,281.9 544.6,281.8 544.9,280.7 544.9,277.7 545.3,276.1 546.4,273.5 547.1,272.3 548.1,271.7 547.4,270.1 546.5,266.6 
		546.1,265.4 546.1,264.4 545.8,263.2 545.2,262.8 544.6,262.5 544.2,261.9 544,261.3 543.5,260.4 542.5,259.9 539.8,260 
		538.7,259.6 537.2,256.4 537.4,256 537.5,255 537.3,254.3 536.3,255.2 536,254.8 535.4,254.3 535.2,253.8 534.4,254.9 533.8,254.8 
		533.3,254.2 532.6,253.8 531.8,254.2 531.6,254.1 532.1,253.1 532.1,252.6 530.9,252.4 527.3,251.2 526.6,250.4 525.7,250.7 
		521.6,249.7 520.4,248.9 520.8,247.1 520.6,246 520,245 519.6,244.7 519.6,244.7 519.1,245 518,245 516.3,243.9 515.3,243.6 
		514.5,244 512.7,247.5 507.3,255.5 505.6,259.3 503.8,261.6 501.6,262.5 494.9,259.1 492.6,258.5 491.5,259.2 490.6,260.2 
		490.2,261.4 489.9,262.8 486.8,265.3 480.5,264.7 478.3,265 472.9,269 470.9,269.7 468,269.1 460.2,270.8 452,270.6 447.7,271.9 
		443.7,274.9 444,277.2 444.9,279.9 446,282.2 446.2,284.7 447.6,288.1 449.6,291.1 446.4,293.1 444.2,296.1 447.1,300.6 
		446.8,302.7 445.4,304 441.3,305.5 437.2,304.8 435.2,304 433.1,304.5 432.5,306.9 432.5,307.8 433.4,309 434.2,310 435.8,310.7 
		438.7,311.4 439.6,311.3 441.1,310.6 441.6,310.7 442.5,311.3 442.7,312.1 442.6,313.2 442.7,314.4 443.8,316.1 444,317.2 
		443.1,318.3 443.1,318.8 444.8,319.1 444.8,322.8 443.4,324.6 442.2,325.8 441.9,328 444.2,330.7 443.9,333.3 443.2,336.1 
		443.3,337.9 442.7,338.1 442.2,338.5 441.5,339.9 440.4,345.6 440,347 439.7,347.7 439.6,348.7 439.8,349.5 440.3,351.2 
		440.8,354.1 442.2,357.5 442.4,358.7 442.2,359.3 441.7,359.6 441.2,359.8 440.8,360 440.8,360.5 441.8,361.4 442,363.1 441.6,367 
		441.6,367.3 441.3,367.5 441.2,367.7 441.2,368.3 441.3,368.9 441.6,369.1 441.8,369.2 441.9,369.6 442,370.4 443.5,375.9 
		443.8,377.8 451.3,383 455.6,383.1 459.3,380.6 461.6,380.5 463.7,381.3 465.8,382.6 467.5,384.2 466.8,386.4 464.2,391.4 
		465.2,393.1 478.5,396.6 487.5,401.3 488,402.1 487.9,403.4 488,404.7 489.4,407.1 490.1,409.3 488.5,410.2 486.8,410 485,410.6 
		483.5,412.4 482.6,414.3 483.1,416.5 484.4,418.8 486.5,419.7 494.4,418.2 495.9,419.3 495.1,419.7 493.1,420.2 493.7,421.6 
		501.5,423.8 514.2,424.1 518.5,423.2 522.2,420.3 527,415 528.5,414.3 531.7,413.9 535.9,414.4 539.5,416.7 541.3,419.5 547,422.9 
		547,422.9 547.7,420.6 548.4,419.2 549.1,418.5 550.1,417.9 552.1,417.3 562.4,417.2 565.3,415.9 566.6,413 566.8,412.1 
		566.9,410.9 566.9,409.2 567.1,408 570.8,406.2 571.8,405 572.5,404 572.6,403.8 572.3,403.5 571.9,402.4 571.3,398.1 572.6,395.8 
		572.6,395.8 571.1,392.3 570.6,390.4 571,388.3 569.5,388 568,387 567.2,385.7 567.9,384.1 567.9,383.5 566.4,383.2 565,382.7 
		564.2,381.5 564,379.8 564.7,378.3 	"/>
	<polygon id="dolnyslask" class="st1" points="207.4,335.1 209.1,331.2 207,329.6 204.9,328.9 201.4,329.6 198.1,328.9 196.7,325.6 
		196.4,321.6 197.1,319.6 198.5,318.7 199.3,316.5 199.9,313.9 194.2,310.1 188,308.4 181.3,308.4 178.8,308.9 176.7,313.9 
		164.9,315.9 158.4,313.5 155.3,310.1 149.7,307 147.3,302.6 147.1,299.7 146.1,297.4 139.7,293.8 137.3,293.2 132.5,294.2 
		129.7,298.7 126.2,301.8 121.7,302.7 118.5,298.7 118.3,295.5 116.8,293.9 108.1,292.3 107.1,293.8 106.2,296.2 104.6,298 
		102.5,298.7 101.3,299.5 95.8,310.5 89.4,318.8 85.3,319.9 77.3,315.4 73.2,316.9 71.3,319.2 68.4,324 66.8,323.9 63.4,321 
		61.8,321.1 52.7,325.9 51.6,326.5 52,330.3 52,330.4 52.2,332 52.4,332.7 53.5,334.6 54.7,336.1 55.6,337.8 55.2,340.5 55.4,340.7 
		55.7,341.1 54.7,342.9 53.9,345.4 53.5,347.9 53.5,350.2 53.3,351.4 52.9,352 52.4,352.4 52.2,353 52.1,353.9 52.1,355.7 
		51.8,356.7 49.3,363.2 46.5,370 44.4,372.2 43.6,373.6 43.6,375.3 44.9,375.3 46.9,374.7 53.5,375.3 53.6,374.4 53.5,371.3 
		53.3,371.1 53.3,370.7 53.5,370.2 53.6,369.9 54.2,369.2 54.3,368.8 54.3,366.2 53.3,364.9 52.4,364.1 52.2,363.2 52.2,363.2 
		52.4,362.9 52.8,362.6 53.1,362.4 53.5,362.4 54.3,361.8 54.5,361.4 54.6,360.7 55.8,361.6 58.6,362.3 59.1,363.1 59.7,363.8 
		60.5,364.2 61.2,364 61.5,363.2 61.5,363.1 61.9,361.9 62.6,361.5 63.3,361.8 63.5,363.2 64.1,364.5 67.4,364.5 68.9,365.3 
		69.8,366.8 69.7,367.6 69.2,368.5 68.9,370.3 69,371.5 69.6,373.2 70.1,374.6 70.8,375.6 71.9,376.5 72.9,377 73.9,377.7 
		74.6,379.3 74.6,380.2 74.3,381.2 74.3,382 74.7,382.8 75.4,382.9 75.5,383 76.2,382.3 76.6,381.4 77.2,380.7 79.5,380.5 
		84.2,382.1 91,384.5 91.6,385 92.4,386.1 92.7,386.5 93.3,386.7 98.1,385.6 99.5,385.7 99.6,386.3 99.8,386.8 102.7,391.7 
		103.1,391.8 104.7,391.8 108,390.5 109,390.7 109.7,391.5 110.5,392.9 110.9,394 111.3,395.3 111.2,396.3 110.4,397 110.2,397.3 
		110.1,397.6 110.2,397.8 110.4,398.2 112.7,397.7 116.3,394.3 118.7,394.5 120.4,395.9 121.4,396.3 122.3,396.1 123,395.2 
		123.3,394.1 123.8,393.2 124.5,393 126.6,393.1 128.4,393.6 130.2,394.5 135,399.7 135.6,401.4 133.8,402.1 134,402.8 134,403.1 
		133.9,403.4 133.5,403.9 133.5,404.3 133.4,405 133.4,405.5 133.5,405.5 133.1,406.2 131.9,407.3 131.4,408 130.4,408.3 
		128.5,407.8 127.7,408 127.3,409.2 126.3,410 125.4,410.6 124.5,411.3 124.3,411.4 123.7,411.7 123.3,411.7 123.6,412.8 123.7,413 
		122.6,412.8 122.2,414.2 122.6,415.8 124.5,416.2 125.3,418.5 125.5,418.9 126.2,419.5 126.7,419.5 127,419 127.7,418.9 
		130.3,418.9 130.9,419 131.3,419.9 131.3,420.7 131.3,421.5 131.4,422.3 132.5,423.7 134.9,424.6 136.2,425.4 137,426.6 
		138.5,429.2 139.3,430.4 140,431.7 141.7,433.5 142.3,435.2 143,438.2 143.6,439.3 144.5,440.6 146.5,442.5 148.9,443.7 
		151.2,443.5 153,441.2 154.3,440.2 155,439.2 155.5,438 156.6,436.4 157.9,435.4 159,435.2 160.1,435.3 160.7,435.2 161.4,434.9 
		162,434.5 162.9,433.2 163.6,432.7 164.1,432.6 165.1,433.1 165.6,433 165.8,432.7 165.8,431.6 166,431.3 166.8,431.3 167.1,431.6 
		167.4,432.1 168,433.1 168.7,433.3 169.1,432.5 169,431.3 168.2,430.4 168.2,428.2 167.5,426.6 166.5,425.5 165.1,424.7 164,423.6 
		163.5,421.8 163.1,420 162.4,418.4 160.6,415.6 160.6,414.4 162.1,413.5 163.4,413.6 165,414.5 165,414.5 165.3,413.5 169.3,403.3 
		172.3,401 175.8,400.4 177.9,396.9 179.2,391.8 183.2,384.1 188,377 190.1,372.2 192.7,368.8 194.6,367.5 195.4,364.8 195.9,362.4 
		196.4,360.2 199.7,352.7 201.2,351 203,350.3 205,350.6 207,350 208.8,348.8 208.1,344.3 	"/>
	<polygon id="lodzkie" class="st1" points="376.4,300.3 373.2,297.1 372.8,294.5 373,293.3 373.6,292.4 374.2,291.4 373.7,289.9 
		370.4,285.5 366.3,282.2 362.5,280.5 356.4,281.2 354.5,280.5 353.9,279 354.1,277.2 352.7,275.3 351.2,273.4 350.7,271.4 
		352.6,270.4 353.2,265.8 352.4,264.7 350.2,263.2 346.2,261.7 345.4,261.9 344.6,261.5 343.5,258.9 343.2,255.7 342.5,253.3 
		340.9,252.2 338.9,251.5 337.2,250.6 335.8,248.3 334.2,246.3 332.1,246.4 330.2,248.3 318.4,250.8 313.2,246.5 310.3,245.1 
		304.3,243.9 298.8,240.1 297.7,240.1 296.6,240.3 296,241.3 295.4,242.4 293.3,243.1 286.2,243.2 285.2,243.6 284.8,244.6 
		284.2,245.3 284.4,248.3 285.4,250.6 286.3,250.8 286.5,251.8 283,255.1 277.3,257.5 276.7,260.2 276.1,266 273.2,269.4 
		269.4,270.3 267.4,270.1 265.7,270.2 264.9,273.1 264.6,276.2 265.1,279.4 266.2,282.5 265.9,285.4 263.3,290.1 262.6,290.8 
		254.4,290 251.1,291.5 249.6,293.5 246.9,299.8 245.6,305.4 245.2,311.5 245.8,316.5 245.9,321.4 244.3,325.7 241.6,327.6 
		238.5,326.1 235.7,326.9 234.8,329.8 233.3,332.2 229.1,333.1 228.2,335.1 228.4,337.9 229.4,340.5 232.7,343.4 233.3,345.9 
		233.6,350.1 234.9,352.4 236.6,353.8 249.3,357.1 253.3,356.9 254.1,356.4 254.6,355.4 255.3,355 256.8,356.8 258.2,359.5 
		262.4,362.9 265.2,361.5 273.2,361.2 275.1,360.4 276.9,359.2 278.9,359.5 280.7,361.4 288.2,365.3 291.8,366.1 296.4,366.1 
		298.3,364.4 302.1,365.1 305.6,368.2 310.9,376.8 312.7,377.3 318.5,377 324.7,380.1 326,377.9 327.7,376.4 329.7,375 330.6,372.4 
		330.4,369.5 330.4,366.6 331.2,363.7 333.1,363.3 340.7,368.9 341.9,367.4 342.4,364.4 341.8,361.4 340.1,360 337.5,356 
		338.9,350.6 340.3,348.7 342.1,348 348.3,349 350.2,348.4 354.1,344.7 356,343.7 357.8,343.5 359.8,342.6 361.9,337.4 363.5,336.2 
		363.3,333.5 364,331 367.7,327.6 368.6,325.1 368.6,322.2 367.9,321.4 365.8,320.3 365.3,318.8 365.1,315.9 364.5,313.2 
		362.9,309.1 364.3,303.9 368.8,303.9 372.2,305.7 376.4,306.3 377,304.8 377.2,302.6 	"/>
	<polygon id="Lesser_Poland" class="st1" points="425,503.2 424.9,502.9 422.9,497.1 421.9,490.8 422.2,487.6 422,484.5 420,478.4 
		416.6,474.8 410.5,472.1 408.8,470.6 409.7,468.4 415.4,464 414.7,461.5 412.5,460.3 410.9,460.2 409.7,458.8 409.3,457.5 
		408.8,456.5 408.8,453.1 409.3,449.2 407.8,435.7 408.1,430.7 410.2,427.2 411.9,422.9 412.6,415.5 411.7,415.3 411.6,415.6 
		411.6,415.9 411.6,416.4 411.6,416.6 410.9,417.1 410.5,417.1 410,416.6 409.7,417.9 409,418.5 408.3,418.8 408.1,419.3 408,420.1 
		407.8,420.2 407.5,420.2 407.1,420.6 406.1,421.9 406.1,422.1 405.1,422.3 404.5,421.8 404,421.1 403.1,420.8 402.7,421 
		400.2,422.1 399.8,422.5 399.2,423.1 398.6,423.7 397.7,423.9 393.5,424 392.9,424.3 392.5,424.7 391.9,425.4 391.3,425.8 
		389.8,425.9 389,426.5 388.1,425.9 387.4,426.3 386.5,427.2 385.6,427.6 383.4,425.5 383.1,426 382.7,427.6 381.6,428.8 
		381.3,428.9 380.9,428.9 380.6,429.1 380.4,429.5 380.3,430.5 380.2,431 379.4,431.7 377.5,432.6 376.8,433.6 376.6,434.7 
		375,436.4 367.4,436.3 363.3,433.8 362.2,431.4 359.6,427.9 358.6,425.8 357.7,421.6 355,416.5 350.6,413.6 345.9,412.1 344,410 
		341.7,408.9 336.4,408.9 336.7,410.8 337,412.3 329.8,416.8 327.9,417.2 324.7,417 321.7,417.4 316.6,421.4 315.2,421.7 
		313.7,421.7 310.5,419.9 309,422.2 307.4,425.3 305,428.9 301.2,428.3 299.3,429.7 302.3,432.7 305,436.4 291.5,451.6 290.3,453.5 
		289,456 288.4,459 289.6,460.5 291.1,460.6 292.2,462.1 292.4,465.2 294.1,468.2 297,469.3 298.2,471.4 299,474.2 300.8,475.9 
		303,476.9 306.8,477.6 306.6,479.9 305.7,481.8 305.2,483.7 305.9,485.2 307.2,486.1 307.5,487.2 307.5,487.2 308,487.4 308.9,489 
		309.4,489.5 310.8,490.4 311.4,492.2 312.4,496.6 313.3,499.3 313.7,500 314.6,500.7 315.9,501.1 318.1,501.1 317.8,501.7 
		317.7,502.1 317.7,503.5 317.6,504.5 317.6,504.5 321,505.7 322.1,505.8 323.3,505.7 325.3,504.9 325.7,505.2 325.7,505.4 
		326.3,507 326.5,508.4 326.9,512.7 326.8,513 326.4,513.6 326.3,514 326.3,514 326.5,514.3 327.3,514.9 327.3,514.9 327.5,515.1 
		327.5,515.1 327.8,515.6 327.9,515.6 328,516 327.8,516.5 327.6,516.7 327.1,516.7 326.9,516.9 324.8,520.5 324.6,521.6 
		324.6,521.6 325.3,522.6 326.7,523.2 329.3,523.4 330.6,522.9 331.4,522 332.4,520.9 333.5,520.2 335.3,520 337,520.8 339.9,523.5 
		341.7,524.5 342.9,523.7 343.5,521.5 343.8,518.5 344.5,517.5 344.8,516.6 345.2,515.6 346.2,513.1 346.6,512.7 346.7,512.8 
		348,512.9 348.5,512.4 349.8,510.9 350.6,510.5 355,510.1 355.4,509.6 355.7,508.5 356.1,507.2 356.2,506.4 356.3,505.8 357,505.5 
		357.6,505.5 359.9,506.3 362.9,506.2 362.9,504.7 363.7,504.4 368.6,507 369.9,507.2 371.1,506.7 371.8,506.2 372.8,505 
		373.3,504.7 373.8,504.7 375.1,504.9 377.2,504.5 378.1,504.7 383.2,510.7 384,511.4 385.3,511.6 386.3,511.5 387.2,511.6 
		388.3,512.4 389.2,513.4 390.1,514 391.2,514.3 392.5,513.8 393.7,512.8 395.6,510 396.7,508.8 397.7,508.7 398.8,508.6 
		399.9,508.5 400.3,507.7 399.6,506.3 398.4,505.5 397.7,504.8 398.8,503.4 399.6,503 402,502.6 402.9,502.6 403.9,503.4 
		404.7,504.2 405.5,504.9 406.8,504.7 407.8,503.7 409.6,501.1 410.5,500.4 411.3,500.6 414.6,502.2 420.1,503.9 421.1,503.9 
		423.2,503.4 424,503.6 	"/>
	<polygon id="kujawsko" class="st1" points="324.6,168.8 323.6,160.1 320.7,152.7 317.6,150.5 311.1,148.8 305,145.1 300.6,143.7 
		299.5,143.7 298.3,143.1 297.3,141.8 295.6,138.4 294.2,134.4 289.2,124.8 286.2,126.2 279.7,126.5 276.6,125.2 274.9,124.1 
		271.2,120.3 270.2,119.7 269.4,118.8 268.3,118.1 263.6,117.5 260.4,118.6 258.3,120 253.4,117.1 243.2,115.4 241.4,113.7 
		239.6,111.5 237.7,111.3 228.1,112.7 220.8,111.3 219.3,112.5 216.9,116.8 213,118.3 211.1,119.9 210.9,121.2 210.7,122.6 
		210.6,124.7 207.1,126.1 199.2,124 197.1,124.2 195.5,126.4 194.1,129.4 192.4,135.4 190.8,136.5 189.2,140 185.1,145.4 
		185.8,148.2 190.6,152 193.3,158.1 188.2,162.5 188.7,166.6 190.4,170 189.6,175.9 187,181.8 191.7,183.4 196,186.6 198.7,192.8 
		197.6,199.5 196.9,200.8 196,201.1 194.9,201 194,201.8 193.7,204.3 195.6,206.2 196.5,208.4 197.7,210.2 200,210.6 202.3,209.9 
		203.3,209 205,210.5 205.6,211.8 205.8,213.3 206.3,213.9 206.9,214.2 210.6,215.5 214.5,215.7 218.8,218 224.6,223.4 226.6,224.4 
		228.8,224.5 230.6,225.3 232.2,227.4 234.1,229.2 239.9,230.7 241.8,229.7 245.1,225.9 246.2,226.1 247.1,226.7 247.5,228.5 
		248.2,230 249.3,231.6 250.7,232.1 251.5,231.5 252,230.4 253.1,230 254.2,229.9 256.2,230.8 257.8,232.9 267.3,240.6 268.8,244.1 
		270.9,244 276.8,241.4 278.9,241.1 284.2,245.3 284.8,244.6 285.2,243.6 286.2,243.2 293.3,243.1 295.4,242.4 296,241.3 
		296.6,240.3 297.7,240.1 298.8,240.1 299.2,238.5 299.4,236.9 303.6,230 303.4,228.2 302.2,227.1 302.6,223.5 304.1,220.4 
		307.9,209.2 310.3,208.5 310.3,205.4 308.6,201.5 307.7,199.7 307.1,197.8 307.5,195.8 308.7,194.6 308.9,191.2 308.1,187.2 
		310.9,187.6 313.2,185.6 314.3,184 315.5,182.8 316.6,183.3 317.6,184 318.8,184.2 319.2,182.6 319.6,180.7 319.7,178.9 
		319.2,176.1 319.2,174.2 318.9,172.4 321.8,171 	"/>
	<polygon id="wielkopolska" class="st1" points="286.3,250.8 285.4,250.6 284.4,248.3 284.2,245.3 278.9,241.1 276.8,241.4 
		270.9,244 268.8,244.1 267.3,240.6 257.8,232.9 256.2,230.8 254.2,229.9 253.1,230 252,230.4 251.5,231.5 250.7,232.1 249.3,231.6 
		248.2,230 247.5,228.5 247.1,226.7 246.2,226.1 245.1,225.9 241.8,229.7 239.9,230.7 234.1,229.2 232.2,227.4 230.6,225.3 
		228.8,224.5 226.6,224.4 224.6,223.4 218.8,218 214.5,215.7 210.6,215.5 206.9,214.2 206.3,213.9 205.8,213.3 205.6,211.8 
		205,210.5 203.3,209 202.3,209.9 200,210.6 197.7,210.2 196.5,208.4 195.6,206.2 193.7,204.3 194,201.8 194.9,201 196,201.1 
		196.9,200.8 197.6,199.5 198.7,192.8 196,186.6 191.7,183.4 187,181.8 189.6,175.9 190.4,170 188.7,166.6 188.2,162.5 193.3,158.1 
		190.6,152 185.8,148.2 185.1,145.4 189.2,140 190.8,136.5 188.3,133.3 185.2,131.7 173.6,131.3 170.4,129.2 167.9,125 165.3,121.6 
		163.1,121 161,121.1 158.9,122 157.4,124.5 156.3,127.7 154.8,133.8 153.1,134.2 142.7,133.8 141.4,135.7 141.4,139.5 142.3,142.8 
		145.9,146.3 150.2,147.5 152.3,148.5 154,150.8 154.5,153.6 152.6,155.7 151.4,158.1 149.7,159.6 145.5,161 137.2,165.8 
		132.7,173.1 127.1,178.3 123.7,179.7 120.1,180.2 116.6,178.1 113.5,177 112.4,182.5 112.6,188.5 107,195.6 108.7,197.2 110,201.8 
		109.4,203.3 108.4,204 102.9,205.8 102.1,205.6 101.7,206.6 101.7,208.7 101.4,210.6 101.7,215.8 103.6,221.4 104.3,224.6 
		104.8,228 104.8,230.9 103.3,230.9 102,231.7 104.4,236 105.6,238.8 105.7,244.5 103.9,250 103.5,251.3 103.4,252.7 102.8,255.5 
		102.7,258.6 103.2,261.5 104.6,263.5 106.1,265.1 109.2,266.8 110.2,269.7 111.5,272 113.6,274.1 115.7,274.1 116.7,273.6 
		117.6,274.3 117.6,276.1 117.2,277.9 117,281.1 117.8,283.5 120.2,285.2 122.7,286 126.9,283.3 130.6,287.3 132.5,294.2 
		137.3,293.2 139.7,293.8 146.1,297.4 147.1,299.7 147.3,302.6 149.7,307 155.3,310.1 158.4,313.5 164.9,315.9 176.7,313.9 
		178.8,308.9 181.3,308.4 188,308.4 194.2,310.1 199.9,313.9 199.3,316.5 198.5,318.7 197.1,319.6 196.4,321.6 196.7,325.6 
		198.1,328.9 201.4,329.6 204.9,328.9 207,329.6 209.1,331.2 207.4,335.1 208.1,344.3 208.8,348.8 210.8,348.7 212.8,349.8 
		213.5,351.7 213.8,353.9 216.8,356.4 220.4,356.5 227.1,354.1 233.6,350.1 233.3,345.9 232.7,343.4 229.4,340.5 228.4,337.9 
		228.2,335.1 229.1,333.1 233.3,332.2 234.8,329.8 235.7,326.9 238.5,326.1 241.6,327.6 244.3,325.7 245.9,321.4 245.8,316.5 
		245.2,311.5 245.6,305.4 246.9,299.8 249.6,293.5 251.1,291.5 254.4,290 262.6,290.8 263.3,290.1 265.9,285.4 266.2,282.5 
		265.1,279.4 264.6,276.2 264.9,273.1 265.7,270.2 267.4,270.1 269.4,270.3 273.2,269.4 276.1,266 276.7,260.2 277.3,257.5 
		283,255.1 286.5,251.8 	"/>
	<g id="kropki" class="st2">
		<circle id="warszawa_1_" class="st3" cx="396.6" cy="253.7" r="5.3"/>
		<circle id="radom_1_" class="st3" cx="407.8" cy="331.8" r="5.3"/>
		<circle id="bialystok_1_" class="st3" cx="514.5" cy="165.2" r="5.3"/>
		<circle id="suwałki_1_" class="st3" cx="496.7" cy="76.5" r="5.3"/>
		<circle id="olsztyn_1_" class="st3" cx="367.8" cy="107.6" r="5.3"/>
		<circle id="sopot_1_" class="st3" cx="258.9" cy="48.9" r="5.3"/>
		<circle id="gdańsk_1_" class="st3" cx="270.2" cy="53.2" r="5.3"/>
		<circle id="gdynia_1_" class="st3" cx="251.3" cy="39.7" r="5.3"/>
		<circle id="koszalin_x27__1_" class="st3" cx="132.5" cy="67.3" r="5.3"/>
		<circle id="szczecin_1_" class="st3" cx="43.4" cy="132.5" r="5.3"/>
		<circle id="zgora_1_" class="st3" cx="84.2" cy="275.4" r="5.3"/>
		<circle id="poznan_1_" class="st3" cx="167.1" cy="234.7" r="5.3"/>
		<circle id="wroclaw_1_" class="st3" cx="167.1" cy="356.5" r="5.3"/>
		<circle id="opole_1_" class="st3" cx="219" cy="398.8" r="5.3"/>
		<circle id="katowice_1_" class="st3" cx="281.1" cy="439.7" r="5.3"/>
		<circle id="krakow_1_" class="st3" cx="337" cy="457.6" r="5.3"/>
		<circle id="rzeszow_1_" class="st3" cx="458.3" cy="457.6" r="5.3"/>
		<circle id="przemysl_1_" class="st3" cx="489.2" cy="466.7" r="5.3"/>
		<circle id="lublin_1_" class="st3" cx="487" cy="342.5" r="5.3"/>
		<circle id="kielce_1_" class="st3" cx="375.2" cy="380.1" r="5.3"/>
		<circle id="lodz_1_" class="st3" cx="308.8" cy="302.1" r="5.3"/>
		<circle id="torun_1_" class="st3" cx="261" cy="180.5" r="5.3"/>
	</g>
</g>
</svg>
