<?xml version="1.0" encoding="utf-8"?>
<!-- Generator: Adobe Illustrator 22.1.0, SVG Export Plug-In . SVG Version: 6.00 Build 0)  -->
<svg version="1.1" xmlns="http://www.w3.org/2000/svg" xmlns:xlink="http://www.w3.org/1999/xlink" x="0px" y="0px"
	 viewBox="0 0 570 540" style="enable-background:new 0 0 570 540;" xml:space="preserve">
<style type="text/css">
	.st0{fill:#252C66;}
	.st1{fill:#6CAECC;}
	.st2{fill:#F9C8CA;}
</style>
<g id="Warstwa_2">
	<path id="zachodniopomorskie_1_" class="st0" d="M27.9,216c-0.3-0.3-26.8-34.5-26.8-34.5l8.6-75.2l14.6,2.2L25.7,96L3.9,90.6
		l109.6-35.5l21.8-25l15.8-4.2l11.1,20.8L157,85.4l8.8,11.1l-16.2,55.1l-40.5,20.1L27.9,216z"/>
	<path id="pomorskie_1_" class="st0" d="M320.6,39.7l-65.7,0.3L241.3,7.6L268,21.9L236,0l-84.9,26l11.1,20.8L157,85.4l8.8,11.1
		l-7.2,24.5c0,0,27.6,15.5,29.2,14.4c1.6-1,28.4-24.1,28.4-24.1l68.5,15.9l24.1-32.4c0,0-18.3-21.5-18-21.8
		C291,72.8,320.6,39.7,320.6,39.7z"/>
	<polygon id="lubuskie_1_" class="st0" points="27.9,216 47,326.5 127.9,294.2 98.7,230.9 112.9,169.9 	"/>
	<polygon id="wielkopolskie" class="st0" points="187.8,135.4 199.3,212.6 279.8,248.3 227.5,351 202.4,350 184.6,308.7 
		127.9,294.2 98.7,230.9 112.9,169.9 149.6,151.6 158.6,121 	"/>
	<polygon id="dolnoslaskie" class="st0" points="47,326.5 45.3,374.9 54.6,363.1 131.6,401.7 120.7,418.5 146.7,443.5 202.4,350 
		184.6,308.7 127.9,294.2 	"/>
	<polygon id="opolskie_1_" class="st0" points="163.6,415.1 204.5,424.9 199.3,442 222.6,450.4 241.8,430.6 257.8,362.9 227.5,351 
		202.4,350 	"/>
	<polygon id="slaskie_1_" class="st0" points="257.8,362.8 257.8,362.8 326.8,382.6 332.4,412.3 294.3,429.4 300.4,436.4 283.8,459 
		302.6,486.1 280,504.4 222.6,450.4 241.8,430.6 	"/>
	<polygon id="malopolskie" class="st0" points="302.6,486.1 335.3,523.5 372.6,504.5 387.9,513.8 421.4,502.8 407,415.9 
		370.4,436.4 358.7,433.8 331.2,406.2 332.4,412.3 294.3,429.4 300.4,436.4 283.8,459 	"/>
	<polygon id="podkarpackie_1_" class="st0" points="497.4,538.6 485.1,492 543.1,420.6 437.9,377.8 407,415.9 421.4,502.8 	"/>
	<polygon id="swietokrzyskie_1_" class="st0" points="326.8,382.6 360.3,336.7 437.6,357.5 437.9,377.8 407,415.9 370.4,436.4 
		358.7,433.8 331.2,406.2 	"/>
	<polygon id="lodzkie_1_" class="st0" points="279.8,248.3 294.3,240.1 371.8,306.3 360.3,336.7 326.8,382.6 257.8,362.9 227.5,351 
			"/>
	<polygon id="Podlaskie_1_" class="st0" points="513.5,245 557.4,199 532.5,74.1 494.4,44.6 468.7,63.5 483.4,91.3 417.2,122.9 	"/>
	<polygon id="mazowieckie_1_" class="st0" points="437.6,357.5 439.1,274.9 513.5,245 417.2,122.9 322,168.3 294.3,240.1 
		371.8,306.3 360.3,336.7 	"/>
	<polygon id="podkarpackie" class="st0" points="543.1,420.6 568.6,398.6 513.5,245 437.2,275.7 437.9,377.8 	"/>
	<polygon id="kujawsko_1_" class="st0" points="199.3,212.6 187.8,135.4 216.2,111.3 284.7,127.3 322,168.3 294.3,240.1 
		279.8,248.3 	"/>
	<polygon id="warminsko" class="st0" points="468.7,63.5 494.4,44.6 320.6,39.7 290.8,73.1 308.8,94.9 284.7,127.3 322,168.3 
		483.4,91.3 	"/>
</g>
<g id="Warstwa_1">
	<g>
		<path class="st1" d="M368.9,234.7h0.8c0.1,0,0.1,0,0.2,0.1l0.1,0.1l1.5,4.9c0,0.1,0,0.2,0.1,0.2c0,0.1,0,0.2,0.1,0.3
			c0-0.1,0-0.2,0.1-0.3c0-0.1,0-0.2,0.1-0.2l1.6-4.9l0.1-0.1c0,0,0.1-0.1,0.2-0.1h0.2c0.1,0,0.1,0,0.2,0.1l0.1,0.1l1.6,4.9
			c0,0.1,0.1,0.3,0.1,0.6c0-0.1,0-0.2,0-0.3c0-0.1,0-0.2,0.1-0.2l1.5-4.9c0,0,0-0.1,0.1-0.1c0,0,0.1-0.1,0.2-0.1h0.7l-2.2,7.1h-0.8
			l-1.7-5.3c0-0.1-0.1-0.2-0.1-0.3c0,0.1,0,0.1,0,0.2s0,0.1,0,0.1l-1.7,5.3h-0.8L368.9,234.7z"/>
		<path class="st1" d="M382.8,241.7h-0.3c-0.1,0-0.1,0-0.2,0l-0.1-0.1l-0.1-0.5c-0.1,0.1-0.2,0.2-0.3,0.3c-0.1,0.1-0.2,0.1-0.3,0.2
			c-0.1,0.1-0.2,0.1-0.5,0.1c-0.1,0-0.3,0-0.5,0c-0.2,0-0.3,0-0.6-0.1c-0.1,0-0.3-0.1-0.5-0.2c-0.1-0.1-0.2-0.2-0.3-0.5
			c-0.1-0.1-0.1-0.3-0.1-0.6s0-0.3,0.1-0.6c0.1-0.2,0.2-0.3,0.5-0.5c0.2-0.1,0.6-0.2,0.9-0.3c0.3-0.1,0.8-0.1,1.4-0.1v-0.3
			c0-0.3-0.1-0.7-0.2-0.9c-0.1-0.2-0.5-0.3-0.7-0.3c-0.2,0-0.3,0-0.6,0.1c-0.1,0-0.2,0.1-0.3,0.2s-0.2,0.1-0.2,0.2
			c-0.1,0-0.1,0.1-0.2,0.1s-0.1,0-0.1,0l-0.1-0.1l-0.1-0.2c0.2-0.2,0.6-0.5,0.9-0.6c0.3-0.1,0.7-0.2,1-0.2c0.2,0,0.6,0,0.7,0.1
			c0.2,0.1,0.3,0.2,0.6,0.3c0.1,0.1,0.2,0.3,0.3,0.6s0.1,0.5,0.1,0.8L382.8,241.7L382.8,241.7z M380.5,241.2c0.1,0,0.3,0,0.5,0
			c0.1,0,0.2-0.1,0.3-0.1c0.1,0,0.2-0.1,0.3-0.2c0.1-0.1,0.2-0.2,0.3-0.2v-1c-0.3,0-0.7,0-1,0.1c-0.2,0-0.5,0.1-0.7,0.2
			c-0.2,0.1-0.3,0.2-0.3,0.2c-0.1,0.1-0.1,0.2-0.1,0.3c0,0.1,0,0.2,0.1,0.3c0,0.1,0.1,0.1,0.1,0.2c0.1,0.1,0.1,0.1,0.2,0.1
			C380.2,241.2,380.4,241.2,380.5,241.2z"/>
		<path class="st1" d="M384.1,241.7v-5h0.5c0.1,0,0.1,0,0.2,0c0,0,0.1,0.1,0.1,0.2v0.8c0.1-0.3,0.3-0.6,0.6-0.8s0.6-0.2,0.9-0.2
			c0.1,0,0.2,0,0.3,0s0.2,0.1,0.3,0.1l-0.1,0.7c0,0.1-0.1,0.1-0.1,0.1s-0.1,0-0.2,0c-0.1,0-0.2,0-0.3,0c-0.3,0-0.6,0.1-0.8,0.2
			c-0.2,0.2-0.3,0.5-0.5,0.8v3.1h-0.9V241.7z"/>
		<path class="st1" d="M390.9,237.6c0,0.1-0.1,0.1-0.2,0.1h-0.1c-0.1,0-0.1-0.1-0.2-0.1c-0.1,0-0.2-0.1-0.3-0.1c-0.1,0-0.2,0-0.5,0
			c-0.1,0-0.2,0-0.3,0c-0.1,0-0.2,0.1-0.3,0.1c-0.1,0.1-0.1,0.1-0.2,0.2c0,0.1-0.1,0.2-0.1,0.2c0,0.1,0,0.2,0.1,0.3
			c0.1,0.1,0.1,0.1,0.3,0.2c0.1,0.1,0.2,0.1,0.5,0.1c0.1,0,0.3,0.1,0.5,0.1s0.3,0.1,0.5,0.2c0.1,0.1,0.3,0.1,0.5,0.2
			c0.1,0.1,0.2,0.2,0.3,0.3c0.1,0.1,0.1,0.3,0.1,0.5c0,0.2,0,0.5-0.1,0.6c-0.1,0.2-0.2,0.3-0.3,0.5s-0.3,0.2-0.6,0.3
			c-0.2,0.1-0.5,0.1-0.8,0.1s-0.7,0-0.9-0.1c-0.2-0.1-0.5-0.2-0.7-0.5l0.2-0.3c0,0,0-0.1,0.1-0.1h0.1c0.1,0,0.1,0,0.2,0.1
			c0.1,0,0.1,0.1,0.2,0.1c0.1,0,0.2,0.1,0.3,0.1c0.1,0,0.3,0.1,0.5,0.1c0.1,0,0.3,0,0.5-0.1c0.1-0.1,0.2-0.1,0.3-0.2
			c0.1-0.1,0.1-0.1,0.2-0.2c0-0.1,0.1-0.2,0.1-0.3c0-0.1,0-0.2-0.1-0.3c-0.1-0.1-0.1-0.1-0.3-0.2c-0.1-0.1-0.2-0.1-0.5-0.1
			c-0.1,0-0.3-0.1-0.5-0.1c-0.1,0-0.3-0.1-0.5-0.2c-0.1-0.1-0.3-0.1-0.5-0.2c-0.1-0.1-0.2-0.2-0.3-0.3c-0.1-0.1-0.1-0.3-0.1-0.6
			c0-0.2,0-0.3,0.1-0.6c0.1-0.2,0.2-0.3,0.3-0.5c0.1-0.1,0.3-0.2,0.6-0.3c0.2-0.1,0.5-0.1,0.7-0.1c0.3,0,0.6,0,0.9,0.1
			c0.2,0.1,0.5,0.2,0.7,0.5L390.9,237.6z"/>
		<path class="st1" d="M395.8,237.2c0,0.1,0,0.1,0,0.2c0,0,0,0.1-0.1,0.1l-2.7,3.6h2.7v0.7h-3.7v-0.3v-0.1c0,0,0-0.1,0.1-0.1
			l2.7-3.6h-2.7v-0.7h3.7V237.2z"/>
		<path class="st1" d="M400.4,241.7H400c-0.1,0-0.1,0-0.2,0l-0.1-0.1l-0.1-0.5c-0.1,0.1-0.2,0.2-0.3,0.3c-0.1,0.1-0.2,0.1-0.3,0.2
			c-0.1,0.1-0.2,0.1-0.5,0.1c-0.1,0-0.3,0-0.5,0c-0.2,0-0.3,0-0.6-0.1c-0.1,0-0.3-0.1-0.5-0.2c-0.1-0.1-0.2-0.2-0.3-0.5
			c-0.1-0.1-0.1-0.3-0.1-0.6s0-0.3,0.1-0.6c0.1-0.2,0.2-0.3,0.5-0.5c0.2-0.1,0.6-0.2,0.9-0.3c0.3-0.1,0.8-0.1,1.4-0.1v-0.3
			c0-0.3-0.1-0.7-0.2-0.9c-0.1-0.2-0.5-0.3-0.7-0.3s-0.3,0-0.6,0.1c-0.1,0-0.2,0.1-0.3,0.2c-0.1,0.1-0.2,0.1-0.2,0.2
			c-0.1,0-0.1,0.1-0.2,0.1c-0.1,0-0.1,0-0.1,0l-0.1-0.1l-0.1-0.2c0.2-0.2,0.6-0.5,0.9-0.6c0.3-0.1,0.7-0.2,1-0.2
			c0.2,0,0.6,0,0.7,0.1c0.2,0.1,0.3,0.2,0.6,0.3c0.1,0.1,0.2,0.3,0.3,0.6c0.1,0.2,0.1,0.5,0.1,0.8L400.4,241.7L400.4,241.7z
			 M398.2,241.2c0.1,0,0.3,0,0.5,0c0.1,0,0.2-0.1,0.3-0.1c0.1,0,0.2-0.1,0.3-0.2c0.1-0.1,0.2-0.2,0.3-0.2v-1c-0.3,0-0.7,0-1,0.1
			c-0.2,0-0.5,0.1-0.7,0.2c-0.2,0.1-0.3,0.2-0.3,0.2c-0.1,0.1-0.1,0.2-0.1,0.3c0,0.1,0,0.2,0.1,0.3c0,0.1,0.1,0.1,0.1,0.2
			c0.1,0.1,0.1,0.1,0.2,0.1C398,241.2,398.1,241.2,398.2,241.2z"/>
		<path class="st1" d="M401,236.8h0.7c0.1,0,0.1,0,0.2,0l0.1,0.1l0.9,3.2c0,0.1,0,0.2,0.1,0.3c0,0.1,0,0.2,0.1,0.3
			c0-0.1,0-0.2,0.1-0.3c0-0.1,0.1-0.2,0.1-0.3l1-3.2c0,0,0-0.1,0.1-0.1h0.1h0.3c0.1,0,0.1,0,0.1,0l0.1,0.1l1,3.2
			c0,0.1,0.1,0.2,0.1,0.3c0,0.1,0,0.2,0.1,0.3c0-0.1,0-0.2,0.1-0.3c0-0.1,0-0.2,0.1-0.3l0.9-3.2c0,0,0-0.1,0.1-0.1h0.1h0.7l-1.6,5
			h-0.9c-0.1,0-0.1,0-0.2-0.1l-1-3.4c0-0.1,0-0.1-0.1-0.2c0-0.1,0-0.1,0-0.2c0,0.1,0,0.1,0,0.2s0,0.1-0.1,0.2l-1.2,3.4
			c0,0.1-0.1,0.1-0.2,0.1h-0.6L401,236.8z"/>
		<path class="st1" d="M412.8,241.7h-0.3c-0.1,0-0.1,0-0.2,0l-0.1-0.1l-0.1-0.5c-0.1,0.1-0.2,0.2-0.3,0.3c-0.1,0.1-0.2,0.1-0.3,0.2
			s-0.2,0.1-0.5,0.1c-0.1,0-0.3,0-0.5,0c-0.2,0-0.3,0-0.6-0.1c-0.1,0-0.3-0.1-0.5-0.2c-0.1-0.1-0.2-0.2-0.3-0.5
			c-0.1-0.1-0.1-0.3-0.1-0.6s0-0.3,0.1-0.6c0.1-0.2,0.2-0.3,0.5-0.5c0.2-0.1,0.6-0.2,0.9-0.3c0.3-0.1,0.8-0.1,1.4-0.1v-0.3
			c0-0.3-0.1-0.7-0.2-0.9c-0.1-0.2-0.5-0.3-0.7-0.3s-0.3,0-0.6,0.1c-0.1,0-0.2,0.1-0.3,0.2c-0.1,0.1-0.2,0.1-0.2,0.2
			c-0.1,0-0.1,0.1-0.2,0.1c-0.1,0-0.1,0-0.1,0l-0.1-0.1l-0.1-0.2c0.2-0.2,0.6-0.5,0.9-0.6c0.3-0.1,0.7-0.2,1-0.2
			c0.2,0,0.6,0,0.7,0.1c0.2,0.1,0.3,0.2,0.6,0.3c0.1,0.1,0.2,0.3,0.3,0.6c0.1,0.2,0.1,0.5,0.1,0.8L412.8,241.7L412.8,241.7z
			 M410.5,241.2c0.1,0,0.3,0,0.5,0c0.1,0,0.2-0.1,0.3-0.1c0.1,0,0.2-0.1,0.3-0.2s0.2-0.2,0.3-0.2v-1c-0.3,0-0.7,0-1,0.1
			c-0.2,0-0.5,0.1-0.7,0.2s-0.3,0.2-0.3,0.2c-0.1,0.1-0.1,0.2-0.1,0.3c0,0.1,0,0.2,0.1,0.3c0,0.1,0.1,0.1,0.1,0.2
			c0.1,0.1,0.1,0.1,0.2,0.1C410.4,241.2,410.4,241.2,410.5,241.2z"/>
	</g>
	<g>
		<path class="st1" d="M352.7,94.5c0,0.6-0.1,1-0.2,1.4c-0.1,0.5-0.3,0.8-0.7,1.2c-0.3,0.3-0.7,0.6-1,0.7c-0.5,0.2-0.9,0.2-1.4,0.2
			c-0.5,0-0.9-0.1-1.4-0.2c-0.5-0.2-0.8-0.5-1-0.7c-0.3-0.3-0.6-0.7-0.7-1.2c-0.1-0.5-0.2-0.9-0.2-1.4c0-0.6,0.1-1,0.2-1.4
			c0.1-0.5,0.3-0.8,0.7-1.2c0.3-0.3,0.7-0.6,1-0.7c0.5-0.2,0.9-0.2,1.4-0.2c0.5,0,1,0.1,1.4,0.2c0.5,0.2,0.8,0.5,1,0.7
			c0.3,0.3,0.6,0.7,0.7,1.2C352.5,93.5,352.7,94.1,352.7,94.5z M351.6,94.5c0-0.5,0-0.8-0.2-1.2c-0.1-0.3-0.2-0.6-0.5-0.8
			c-0.2-0.2-0.5-0.5-0.8-0.6c-0.3-0.1-0.7-0.2-1-0.2c-0.3,0-0.7,0.1-1,0.2c-0.3,0.1-0.6,0.3-0.8,0.6c-0.2,0.2-0.3,0.6-0.5,0.8
			c-0.1,0.3-0.2,0.7-0.2,1.2s0,0.8,0.2,1.2c0.1,0.3,0.2,0.6,0.5,0.8c0.2,0.2,0.5,0.5,0.8,0.6c0.3,0.1,0.7,0.2,1,0.2
			c0.3,0,0.7-0.1,1-0.2c0.3-0.1,0.6-0.3,0.8-0.6c0.2-0.2,0.3-0.6,0.5-0.8C351.6,95.3,351.6,95,351.6,94.5z"/>
		<path class="st1" d="M354.7,90.8V98h-0.9v-7.2H354.7z"/>
		<path class="st1" d="M359.2,94c0,0.1-0.1,0.1-0.2,0.1h-0.1c0,0-0.1-0.1-0.2-0.1c-0.1,0-0.2-0.1-0.3-0.1c-0.1,0-0.2,0-0.5,0
			c-0.1,0-0.2,0-0.3,0s-0.2,0.1-0.3,0.1c-0.1,0.1-0.1,0.1-0.2,0.2c0,0.1-0.1,0.2-0.1,0.2c0,0.1,0,0.2,0.1,0.3
			c0.1,0.1,0.1,0.1,0.3,0.2c0.1,0.1,0.2,0.1,0.5,0.1c0.1,0,0.3,0.1,0.5,0.1c0.1,0,0.3,0.1,0.5,0.2c0.1,0.1,0.3,0.1,0.5,0.2
			c0.1,0.1,0.2,0.2,0.3,0.3c0.1,0.1,0.1,0.3,0.1,0.5c0,0.2,0,0.5-0.1,0.6c-0.1,0.2-0.2,0.3-0.3,0.5c-0.1,0.1-0.3,0.2-0.6,0.3
			S358,98,357.6,98c-0.3,0-0.7,0-0.9-0.1c-0.2-0.1-0.5-0.2-0.7-0.5l0.2-0.3c0,0,0-0.1,0.1-0.1h0.1c0.1,0,0.1,0,0.2,0.1
			c0.1,0,0.1,0.1,0.2,0.1c0.1,0,0.2,0.1,0.3,0.1s0.3,0.1,0.5,0.1c0.1,0,0.3,0,0.5-0.1c0.1-0.1,0.2-0.1,0.3-0.2
			c0.1-0.1,0.1-0.1,0.2-0.2c0-0.1,0.1-0.2,0.1-0.3c0-0.1,0-0.2-0.1-0.3c-0.1-0.1-0.1-0.1-0.3-0.2c-0.1-0.1-0.2-0.1-0.5-0.1
			c-0.1,0-0.3-0.1-0.5-0.1c-0.1,0-0.3-0.1-0.5-0.2c-0.1-0.1-0.3-0.1-0.5-0.2c-0.1-0.1-0.2-0.2-0.3-0.3c-0.1-0.1-0.1-0.3-0.1-0.6
			s0-0.3,0.1-0.6s0.2-0.3,0.3-0.5c0.1-0.1,0.3-0.2,0.6-0.3s0.5-0.1,0.7-0.1c0.3,0,0.6,0,0.9,0.1c0.2,0.1,0.5,0.2,0.7,0.5L359.2,94z"
			/>
		<path class="st1" d="M364,93.5c0,0.1,0,0.1,0,0.2c0,0,0,0.1-0.1,0.1l-2.7,3.6h2.7v0.7h-3.7v-0.3v-0.1c0,0,0-0.1,0.1-0.1L363,94
			h-2.7v-0.7h3.7V93.5z"/>
		<path class="st1" d="M366.6,98.1c-0.3,0-0.7-0.1-0.9-0.3c-0.2-0.2-0.3-0.6-0.3-0.9v-3h-0.6h-0.1v-0.1v-0.3l0.8-0.1l0.2-1.5
			c0,0,0-0.1,0.1-0.1h0.1h0.5v1.7h1.4V94h-1.4v3c0,0.2,0,0.3,0.1,0.5c0.1,0.1,0.2,0.1,0.3,0.1s0.1,0,0.2,0c0.1,0,0.1,0,0.1-0.1
			c0,0,0.1,0,0.1-0.1h0.1c0,0,0.1,0,0.1,0.1l0.2,0.5c-0.1,0.1-0.3,0.2-0.6,0.3C367,98.1,366.8,98.1,366.6,98.1z"/>
		<path class="st1" d="M370.2,99.5c0,0.1-0.1,0.1-0.1,0.1s-0.1,0-0.2,0h-0.7l0.9-2L368,93h0.7c0.1,0,0.1,0,0.2,0
			c0.1,0,0.1,0.1,0.1,0.1l1.3,3.1c0,0.1,0,0.1,0.1,0.2c0.1,0.1,0,0.1,0,0.2c0-0.1,0-0.1,0.1-0.2c0-0.1,0-0.1,0.1-0.2l1.3-3.1
			c0,0,0-0.1,0.1-0.1h0.1h0.7L370.2,99.5z"/>
		<path class="st1" d="M373.7,98v-5h0.5c0.1,0,0.2,0.1,0.2,0.2l0.1,0.6c0.2-0.2,0.5-0.5,0.7-0.6c0.2-0.1,0.6-0.2,0.9-0.2
			c0.2,0,0.5,0,0.7,0.1c0.2,0.1,0.3,0.2,0.5,0.3c0.1,0.1,0.2,0.3,0.3,0.6c0.1,0.2,0.1,0.5,0.1,0.8V98h-0.9v-3.1
			c0-0.3-0.1-0.7-0.2-0.9c-0.1-0.2-0.5-0.3-0.8-0.3c-0.2,0-0.5,0.1-0.7,0.2c-0.2,0.1-0.5,0.3-0.6,0.5V98L373.7,98L373.7,98z"/>
	</g>
	<g>
		<path class="st1" d="M389.6,317.2v2.9h-0.9V313h2c0.5,0,0.8,0,1.2,0.1c0.3,0.1,0.6,0.2,0.8,0.3c0.2,0.1,0.3,0.3,0.5,0.6
			c0.1,0.2,0.1,0.5,0.1,0.8c0,0.2,0,0.5-0.1,0.7c-0.1,0.2-0.2,0.5-0.3,0.6c-0.1,0.1-0.3,0.3-0.6,0.5c-0.2,0.1-0.5,0.2-0.7,0.2
			c0.1,0.1,0.2,0.1,0.3,0.3l2.1,2.8h-0.8c-0.1,0-0.3-0.1-0.3-0.2l-1.9-2.5c0-0.1-0.1-0.1-0.2-0.1c-0.1,0-0.1,0-0.3,0h-0.7V317.2z
			 M389.6,316.5h1c0.2,0,0.5,0,0.7-0.1c0.2-0.1,0.3-0.1,0.6-0.2c0.1-0.1,0.2-0.2,0.3-0.5c0.1-0.2,0.1-0.3,0.1-0.6
			c0-0.5-0.1-0.7-0.5-0.9c-0.2-0.2-0.7-0.3-1.3-0.3h-1V316.5z"/>
		<path class="st1" d="M398.4,320.1h-0.3c-0.1,0-0.1,0-0.2,0l-0.1-0.1l-0.1-0.5c-0.1,0.1-0.2,0.2-0.3,0.3c-0.1,0.1-0.2,0.1-0.3,0.2
			c-0.1,0.1-0.2,0.1-0.5,0.1c-0.1,0-0.3,0-0.5,0c-0.2,0-0.3,0-0.6-0.1c-0.1,0-0.3-0.1-0.5-0.2c-0.1-0.1-0.2-0.2-0.3-0.5
			c-0.1-0.1-0.1-0.3-0.1-0.6s0-0.3,0.1-0.6c0.1-0.2,0.2-0.3,0.5-0.5c0.2-0.1,0.6-0.2,0.9-0.3c0.3-0.1,0.8-0.1,1.4-0.1V317
			c0-0.3-0.1-0.7-0.2-0.9c-0.1-0.2-0.5-0.3-0.7-0.3s-0.3,0-0.6,0.1c-0.1,0-0.2,0.1-0.3,0.2c-0.1,0.1-0.2,0.1-0.2,0.2
			c-0.1,0-0.1,0.1-0.2,0.1h-0.1l-0.1-0.1l-0.1-0.2c0.2-0.2,0.6-0.5,0.9-0.6c0.3-0.1,0.7-0.2,1-0.2c0.2,0,0.6,0,0.7,0.1
			c0.2,0.1,0.3,0.2,0.6,0.3c0.1,0.1,0.2,0.3,0.3,0.6c0.1,0.2,0.1,0.5,0.1,0.8L398.4,320.1L398.4,320.1z M396.2,319.5
			c0.1,0,0.3,0,0.5,0c0.1,0,0.2-0.1,0.3-0.1c0.1,0,0.2-0.1,0.3-0.2c0.1-0.1,0.2-0.2,0.3-0.2v-1c-0.3,0-0.7,0-1,0.1
			c-0.2,0-0.5,0.1-0.7,0.2s-0.3,0.2-0.3,0.2c-0.1,0.1-0.1,0.2-0.1,0.3s0,0.2,0.1,0.3c0,0.1,0.1,0.1,0.1,0.2c0.1,0.1,0.1,0.1,0.2,0.1
			C396,319.5,396.1,319.5,396.2,319.5z"/>
		<path class="st1" d="M403.3,320.1c-0.1,0-0.2-0.1-0.2-0.2l-0.1-0.6c-0.2,0.2-0.5,0.5-0.7,0.6c-0.2,0.1-0.6,0.2-0.9,0.2
			c-0.2,0-0.6,0-0.8-0.1s-0.5-0.2-0.6-0.5c-0.1-0.2-0.2-0.5-0.3-0.8c-0.1-0.3-0.1-0.7-0.1-1c0-0.3,0-0.7,0.1-1
			c0.1-0.3,0.2-0.6,0.5-0.8c0.2-0.2,0.5-0.5,0.7-0.6c0.2-0.1,0.6-0.2,0.9-0.2c0.3,0,0.6,0,0.8,0.1c0.2,0.1,0.5,0.2,0.6,0.5v-2.8h0.9
			v7.2h-0.7V320.1z M401.6,319.5c0.2,0,0.6-0.1,0.7-0.2c0.2-0.1,0.5-0.3,0.6-0.6v-2.4c-0.1-0.2-0.3-0.3-0.6-0.5
			c-0.2-0.1-0.3-0.1-0.6-0.1c-0.5,0-0.8,0.1-1,0.5c-0.2,0.3-0.3,0.8-0.3,1.4c0,0.3,0,0.6,0.1,0.8c0.1,0.2,0.1,0.5,0.2,0.6
			c0.1,0.1,0.2,0.2,0.3,0.3C401.2,319.4,401.3,319.5,401.6,319.5z"/>
		<path class="st1" d="M407.2,315.1c0.3,0,0.7,0.1,0.9,0.2c0.3,0.1,0.6,0.3,0.7,0.5c0.2,0.2,0.3,0.5,0.5,0.8c0.1,0.3,0.1,0.7,0.1,1
			c0,0.3,0,0.7-0.1,1c-0.1,0.3-0.2,0.6-0.5,0.8c-0.2,0.2-0.5,0.3-0.7,0.5c-0.3,0.1-0.6,0.2-0.9,0.2c-0.3,0-0.7-0.1-0.9-0.2
			c-0.3-0.1-0.6-0.2-0.7-0.5c-0.2-0.2-0.3-0.5-0.5-0.8c-0.1-0.3-0.1-0.7-0.1-1c0-0.3,0-0.7,0.1-1c0.1-0.3,0.2-0.6,0.5-0.8
			c0.2-0.2,0.5-0.3,0.7-0.5C406.5,315.1,406.9,315.1,407.2,315.1z M407.2,319.5c0.5,0,0.8-0.1,1-0.5c0.2-0.3,0.3-0.8,0.3-1.4
			c0-0.6-0.1-1-0.3-1.4c-0.2-0.3-0.6-0.5-1-0.5c-0.2,0-0.5,0-0.7,0.1c-0.2,0.1-0.3,0.2-0.5,0.3c-0.1,0.1-0.2,0.3-0.2,0.6
			c-0.1,0.2-0.1,0.5-0.1,0.8s0,0.6,0.1,0.8s0.1,0.5,0.2,0.6c0.1,0.1,0.2,0.2,0.5,0.3C406.8,319.4,407,319.5,407.2,319.5z"/>
		<path class="st1" d="M410.7,320.1v-5h0.5c0.1,0,0.2,0.1,0.2,0.2l0.1,0.5c0.2-0.2,0.3-0.5,0.6-0.6c0.2-0.1,0.5-0.2,0.8-0.2
			c0.3,0,0.6,0.1,0.8,0.2c0.2,0.2,0.3,0.5,0.5,0.8c0.1-0.2,0.1-0.3,0.2-0.5c0.1-0.1,0.2-0.2,0.3-0.3c0.1-0.1,0.2-0.1,0.5-0.2
			c0.1,0,0.3,0,0.5,0c0.2,0,0.5,0,0.7,0.1c0.2,0.1,0.3,0.2,0.5,0.3c0.1,0.1,0.2,0.3,0.3,0.6s0.1,0.5,0.1,0.8v3.1h-0.8v-3
			c0-0.3-0.1-0.7-0.2-0.9c-0.1-0.2-0.5-0.3-0.7-0.3c-0.1,0-0.2,0-0.5,0.1c-0.2,0.1-0.2,0.1-0.3,0.2s-0.2,0.2-0.2,0.3
			s-0.1,0.3-0.1,0.5v3.1h-0.9v-3c0-0.3-0.1-0.7-0.2-0.9c-0.1-0.2-0.3-0.3-0.7-0.3c-0.2,0-0.5,0.1-0.6,0.2c-0.2,0.1-0.3,0.2-0.5,0.5
			v3.7L410.7,320.1L410.7,320.1z"/>
	</g>
	<g>
		<path class="st1" d="M488.4,357.4h3v0.8h-3.9v-7.1h0.9L488.4,357.4L488.4,357.4z"/>
		<path class="st1" d="M493.2,353.2v3.1c0,0.3,0.1,0.7,0.2,0.9c0.2,0.2,0.5,0.3,0.8,0.3c0.2,0,0.5-0.1,0.7-0.2
			c0.2-0.1,0.5-0.2,0.6-0.5v-3.7h0.9v5H496c-0.1,0-0.2-0.1-0.2-0.2l-0.1-0.6c-0.2,0.2-0.5,0.5-0.7,0.6c-0.2,0.1-0.6,0.2-0.9,0.2
			c-0.2,0-0.5,0-0.7-0.1c-0.2-0.1-0.3-0.2-0.5-0.3c-0.1-0.1-0.2-0.3-0.3-0.6c-0.1-0.2-0.1-0.5-0.1-0.8v-3.1L493.2,353.2L493.2,353.2
			z"/>
		<path class="st1" d="M497.9,358.2V351h0.9v3c0.2-0.2,0.5-0.5,0.7-0.6c0.2-0.1,0.6-0.2,0.9-0.2c0.2,0,0.6,0,0.8,0.1
			c0.2,0.1,0.5,0.2,0.6,0.5c0.1,0.2,0.2,0.5,0.3,0.8c0.1,0.3,0.1,0.7,0.1,1c0,0.3,0,0.7-0.1,1c-0.1,0.3-0.2,0.6-0.5,0.8
			c-0.2,0.2-0.5,0.5-0.7,0.6c-0.2,0.1-0.6,0.2-0.9,0.2c-0.3,0-0.6-0.1-0.8-0.2c-0.2-0.1-0.5-0.3-0.6-0.5v0.5c0,0.1-0.1,0.2-0.2,0.2
			h-0.6V358.2z M500.1,353.8c-0.2,0-0.6,0.1-0.7,0.2c-0.2,0.1-0.5,0.3-0.6,0.6v2.4c0.1,0.2,0.3,0.3,0.5,0.5c0.1,0.1,0.3,0.1,0.7,0.1
			c0.5,0,0.8-0.1,1-0.5c0.2-0.3,0.3-0.8,0.3-1.4c0-0.3,0-0.6-0.1-0.8c0-0.2-0.1-0.5-0.2-0.6c-0.1-0.1-0.2-0.2-0.3-0.3
			C500.5,353.9,500.3,353.8,500.1,353.8z"/>
		<path class="st1" d="M504.3,351v7.2h-0.9V351H504.3z"/>
		<path class="st1" d="M507,351.7c0,0.1,0,0.1,0,0.2c0,0.1-0.1,0.1-0.1,0.2c0,0-0.1,0.1-0.2,0.1c-0.1,0-0.1,0-0.2,0
			c-0.1,0-0.1,0-0.2,0c-0.1,0-0.1-0.1-0.2-0.1c0,0-0.1-0.1-0.1-0.2c0-0.1,0-0.1,0-0.2c0-0.1,0-0.1,0-0.2c0-0.1,0.1-0.1,0.1-0.2
			c0,0,0.1-0.1,0.2-0.1c0.1,0,0.1,0,0.2,0c0.1,0,0.1,0,0.2,0c0.1,0,0.1,0.1,0.2,0.1c0,0,0.1,0.1,0.1,0.2
			C507,351.5,507,351.6,507,351.7z M506.9,353.2v5h-0.9v-5H506.9z"/>
		<path class="st1" d="M508.4,358.2v-5h0.5c0.1,0,0.2,0.1,0.2,0.2l0.1,0.6c0.2-0.2,0.5-0.5,0.7-0.6c0.2-0.1,0.6-0.2,0.9-0.2
			c0.2,0,0.5,0,0.7,0.1c0.2,0.1,0.3,0.2,0.5,0.3c0.1,0.1,0.2,0.3,0.3,0.6c0.1,0.2,0.1,0.5,0.1,0.8v3.1h-0.9v-3.1
			c0-0.3-0.1-0.7-0.2-0.9c-0.1-0.2-0.5-0.3-0.8-0.3c-0.2,0-0.5,0.1-0.7,0.2c-0.2,0.1-0.5,0.3-0.6,0.5v3.7L508.4,358.2L508.4,358.2z"
			/>
	</g>
	<g>
		<path class="st1" d="M437.8,443.1v2.9h-0.9V439h2c0.5,0,0.8,0,1.2,0.1c0.3,0.1,0.6,0.2,0.8,0.3s0.3,0.3,0.5,0.6
			c0.1,0.2,0.1,0.5,0.1,0.8c0,0.2,0,0.5-0.1,0.7c-0.1,0.2-0.2,0.5-0.3,0.6c-0.1,0.1-0.3,0.3-0.6,0.5c-0.2,0.1-0.5,0.2-0.7,0.2
			c0.1,0.1,0.2,0.1,0.3,0.3l2.1,2.8h-0.8c-0.1,0-0.3-0.1-0.3-0.2l-1.9-2.5c0-0.1-0.1-0.1-0.2-0.1c-0.1,0-0.1,0-0.3,0h-0.7V443.1z
			 M437.8,442.5h1c0.2,0,0.5,0,0.7-0.1c0.2-0.1,0.3-0.1,0.6-0.2c0.1-0.1,0.2-0.2,0.3-0.5c0.1-0.1,0.1-0.3,0.1-0.6
			c0-0.5-0.1-0.7-0.5-0.9c-0.2-0.2-0.7-0.3-1.3-0.3h-1L437.8,442.5L437.8,442.5z"/>
		<path class="st1" d="M446.4,441.5c0,0.1,0,0.1,0,0.2c0,0,0,0.1-0.1,0.1l-2.7,3.6h2.7v0.7h-3.7v-0.3v-0.1c0,0,0-0.1,0.1-0.1
			l2.7-3.6h-2.7v-0.7h3.7V441.5z"/>
		<path class="st1" d="M449.4,441.1c0.3,0,0.6,0,0.8,0.1c0.2,0.1,0.5,0.2,0.7,0.5c0.2,0.2,0.3,0.5,0.5,0.7c0.1,0.2,0.1,0.6,0.1,0.9
			c0,0.1,0,0.2,0,0.2l-0.1,0.1h-3.2c0,0.3,0,0.6,0.1,0.8c0.1,0.2,0.2,0.5,0.3,0.6c0.1,0.1,0.3,0.2,0.5,0.3c0.1,0.1,0.3,0.1,0.6,0.1
			s0.5,0,0.6-0.1c0.1,0,0.3-0.1,0.5-0.1c0.1-0.1,0.2-0.1,0.2-0.1c0.1,0,0.1-0.1,0.2-0.1c0.1,0,0.1,0,0.1,0.1l0.2,0.3
			c-0.1,0.1-0.2,0.2-0.3,0.3c-0.1,0.1-0.3,0.2-0.5,0.2c-0.1,0.1-0.3,0.1-0.6,0.1s-0.3,0-0.6,0c-0.3,0-0.7-0.1-0.9-0.2
			s-0.6-0.2-0.7-0.5s-0.3-0.5-0.5-0.8c-0.1-0.3-0.2-0.7-0.2-1.2c0-0.3,0-0.7,0.1-0.9c0.1-0.3,0.2-0.6,0.5-0.8s0.5-0.3,0.7-0.5
			C448.7,441.1,449.1,441.1,449.4,441.1z M449.4,441.6c-0.5,0-0.7,0.1-1,0.3c-0.2,0.2-0.3,0.6-0.5,1h2.7c0-0.2,0-0.3-0.1-0.6
			c0-0.1-0.1-0.3-0.2-0.5c-0.1-0.1-0.2-0.2-0.3-0.2C449.9,441.6,449.6,441.6,449.4,441.6z"/>
		<path class="st1" d="M455.4,441.9c0,0.1-0.1,0.1-0.2,0.1h-0.1c-0.1,0-0.1-0.1-0.2-0.1c-0.1,0-0.2-0.1-0.3-0.1s-0.2,0-0.5,0
			c-0.1,0-0.2,0-0.3,0c-0.1,0-0.2,0.1-0.3,0.1c-0.1,0.1-0.1,0.1-0.2,0.2c0,0.1-0.1,0.2-0.1,0.2c0,0.1,0,0.2,0.1,0.3
			c0.1,0.1,0.1,0.1,0.3,0.2c0.1,0.1,0.2,0.1,0.5,0.1s0.3,0.1,0.5,0.1c0.1,0,0.3,0.1,0.5,0.2c0.1,0.1,0.3,0.1,0.5,0.2
			c0.1,0.1,0.2,0.2,0.3,0.3c0.1,0.1,0.1,0.3,0.1,0.5c0,0.2,0,0.5-0.1,0.6c-0.1,0.2-0.2,0.3-0.3,0.5c-0.1,0.1-0.3,0.2-0.6,0.3
			c-0.2,0.1-0.5,0.1-0.8,0.1c-0.3,0-0.7,0-0.9-0.1c-0.2-0.1-0.5-0.2-0.7-0.5l0.2-0.3c0,0,0-0.1,0.1-0.1h0.1c0.1,0,0.1,0,0.2,0.1
			c0.1,0.1,0.1,0.1,0.2,0.1c0.1,0,0.2,0.1,0.3,0.1s0.3,0.1,0.5,0.1c0.1,0,0.3,0,0.5-0.1c0.1,0,0.2-0.1,0.3-0.2
			c0.1-0.1,0.1-0.1,0.2-0.2c0-0.1,0.1-0.2,0.1-0.3s0-0.2-0.1-0.3c-0.1-0.1-0.1-0.1-0.3-0.2c-0.1-0.1-0.2-0.1-0.5-0.1
			c-0.1,0-0.3-0.1-0.5-0.1c-0.1,0-0.3-0.1-0.5-0.2c-0.1-0.1-0.3-0.1-0.5-0.2c-0.1-0.1-0.2-0.2-0.3-0.3c-0.1-0.1-0.1-0.3-0.1-0.6
			s0-0.3,0.1-0.6c0.1-0.2,0.2-0.3,0.3-0.5c0.1-0.1,0.3-0.2,0.6-0.3c0.2-0.1,0.5-0.1,0.7-0.1c0.3,0,0.6,0,0.9,0.1
			c0.2,0.1,0.5,0.2,0.7,0.5L455.4,441.9z"/>
		<path class="st1" d="M460.3,441.5c0,0.1,0,0.1,0,0.2c0,0,0,0.1-0.1,0.1l-2.7,3.6h2.7v0.7h-3.7v-0.3v-0.1c0,0,0-0.1,0.1-0.1
			l2.7-3.6h-2.7v-0.7h3.7V441.5z"/>
		<path class="st1" d="M463.3,441.1c0.3,0,0.7,0.1,0.9,0.2c0.3,0.1,0.6,0.3,0.7,0.5c0.2,0.2,0.3,0.5,0.5,0.8c0.1,0.3,0.1,0.7,0.1,1
			c0,0.3,0,0.7-0.1,1c-0.1,0.3-0.2,0.6-0.5,0.8s-0.5,0.3-0.7,0.5c-0.3,0.1-0.6,0.2-0.9,0.2c-0.3,0-0.7-0.1-0.9-0.2
			c-0.3-0.1-0.6-0.2-0.7-0.5c-0.2-0.2-0.3-0.5-0.5-0.8c-0.1-0.3-0.1-0.7-0.1-1c0-0.3,0-0.7,0.1-1c0.1-0.3,0.2-0.6,0.5-0.8
			c0.2-0.2,0.5-0.3,0.7-0.5C462.6,441.1,463,441.1,463.3,441.1z M463.3,445.5c0.5,0,0.8-0.1,1-0.5c0.2-0.3,0.3-0.8,0.3-1.4
			c0-0.6-0.1-1-0.3-1.4c-0.2-0.3-0.6-0.5-1-0.5c-0.2,0-0.5,0-0.7,0.1c-0.2,0.1-0.3,0.2-0.5,0.3c-0.1,0.1-0.2,0.3-0.2,0.6
			c-0.1,0.2-0.1,0.5-0.1,0.8c0,0.3,0,0.6,0.1,0.8c0.1,0.2,0.1,0.5,0.2,0.6c0.1,0.1,0.2,0.2,0.5,0.3
			C462.8,445.3,463.1,445.5,463.3,445.5z M464.8,439l-1.2,1.3l-0.1,0.1h-0.1h-0.6l0.7-1.2c0-0.1,0.1-0.1,0.1-0.1s0.1,0,0.2,0h0.9
			V439z"/>
		<path class="st1" d="M466.2,441.1h0.7c0.1,0,0.1,0,0.2,0l0.1,0.1l0.9,3.2c0,0.1,0,0.2,0.1,0.3c0,0.1,0,0.2,0.1,0.3
			c0-0.1,0-0.2,0.1-0.3c0-0.1,0.1-0.2,0.1-0.3l1-3.2c0,0,0-0.1,0.1-0.1h0.1h0.3c0.1,0,0.1,0,0.1,0l0.1,0.1l1,3.2
			c0,0.1,0.1,0.2,0.1,0.3s0,0.2,0.1,0.3c0-0.1,0-0.2,0.1-0.3c0-0.1,0-0.2,0.1-0.3l0.9-3.2c0,0,0-0.1,0.1-0.1h0.1h0.7l-1.6,5h-0.7
			c-0.1,0-0.1,0-0.2-0.1l-1-3.4c0-0.1,0-0.1-0.1-0.2c0-0.1,0-0.1,0-0.2c0,0.1,0,0.1,0,0.2c0,0.1,0,0.1-0.1,0.2l-1.2,3.4
			c0,0.1-0.1,0.1-0.2,0.1h-0.7L466.2,441.1z"/>
	</g>
	<g>
		<path class="st1" d="M448.4,480.2v2.7h-0.9v-7.1h2.1c0.5,0,0.8,0,1.2,0.1c0.3,0.1,0.6,0.2,0.8,0.5c0.2,0.2,0.3,0.5,0.5,0.7
			c0.1,0.2,0.1,0.6,0.1,0.9c0,0.3,0,0.6-0.1,0.9c-0.1,0.2-0.2,0.5-0.5,0.7s-0.5,0.3-0.8,0.5c-0.3,0.1-0.7,0.1-1.2,0.1L448.4,480.2
			L448.4,480.2z M448.4,479.4h1.2c0.2,0,0.5,0,0.7-0.1c0.2-0.1,0.3-0.1,0.5-0.3c0.1-0.1,0.2-0.2,0.3-0.5c0.1-0.2,0.1-0.3,0.1-0.6
			c0-0.5-0.1-0.8-0.5-1s-0.7-0.3-1.3-0.3h-1.2v2.9H448.4z"/>
		<path class="st1" d="M453.1,482.8v-5h0.5c0.1,0,0.1,0,0.2,0c0,0,0.1,0.1,0.1,0.2l0.1,0.8c0.1-0.3,0.3-0.6,0.6-0.8
			c0.2-0.2,0.6-0.2,0.9-0.2c0.1,0,0.2,0,0.3,0c0.1,0,0.2,0.1,0.3,0.1l-0.1,0.7c0,0.1-0.1,0.1-0.1,0.1s-0.1,0-0.2,0
			c-0.1,0-0.2,0-0.3,0c-0.3,0-0.6,0.1-0.8,0.2c-0.2,0.2-0.3,0.5-0.5,0.8v3.1h-1V482.8z"/>
		<path class="st1" d="M460.5,478.2c0,0.1,0,0.1,0,0.2c0,0,0,0.1-0.1,0.1l-2.7,3.6h2.7v0.7h-3.7v-0.3v-0.1c0,0,0-0.1,0.1-0.1
			l2.7-3.6h-2.7V478h3.7V478.2z"/>
		<path class="st1" d="M463.5,477.8c0.3,0,0.6,0,0.8,0.1c0.2,0.1,0.5,0.2,0.7,0.5c0.2,0.2,0.3,0.5,0.5,0.7c0.1,0.2,0.1,0.6,0.1,0.9
			c0,0.1,0,0.2,0,0.2l-0.1,0.1h-3.2c0,0.3,0,0.6,0.1,0.8c0.1,0.2,0.2,0.5,0.3,0.6c0.1,0.1,0.3,0.2,0.5,0.3c0.2,0.1,0.3,0.1,0.6,0.1
			s0.5,0,0.6-0.1c0.1,0,0.3-0.1,0.5-0.1c0.1-0.1,0.2-0.1,0.2-0.1c0.1,0,0.1-0.1,0.2-0.1c0.1,0,0.1,0,0.1,0.1l0.2,0.3
			c-0.1,0.1-0.2,0.2-0.3,0.3c-0.1,0.1-0.3,0.2-0.5,0.2c-0.1,0.1-0.3,0.1-0.6,0.1s-0.3,0-0.6,0c-0.3,0-0.7-0.1-0.9-0.2
			c-0.2-0.1-0.6-0.2-0.7-0.5s-0.3-0.5-0.5-0.8c-0.1-0.3-0.2-0.7-0.2-1.2c0-0.3,0-0.7,0.1-0.9c0.1-0.3,0.2-0.6,0.5-0.8
			c0.2-0.2,0.5-0.3,0.7-0.5C462.8,477.8,463.2,477.8,463.5,477.8z M463.5,478.4c-0.5,0-0.7,0.1-1,0.3c-0.2,0.2-0.3,0.6-0.5,1h2.7
			c0-0.2,0-0.3-0.1-0.6c0-0.1-0.1-0.3-0.2-0.5c-0.1-0.1-0.2-0.2-0.3-0.2C464,478.5,463.8,478.4,463.5,478.4z"/>
		<path class="st1" d="M466.7,482.8v-5h0.5c0.1,0,0.2,0.1,0.2,0.2l0.1,0.5c0.2-0.2,0.3-0.5,0.6-0.6s0.5-0.2,0.8-0.2
			c0.3,0,0.6,0.1,0.8,0.2c0.2,0.2,0.3,0.5,0.5,0.8c0.1-0.2,0.1-0.3,0.2-0.5c0.1-0.1,0.2-0.2,0.3-0.3c0.1-0.1,0.2-0.1,0.5-0.2
			c0.1,0,0.3,0,0.5,0c0.2,0,0.5,0,0.7,0.1c0.2,0.1,0.3,0.2,0.5,0.3c0.1,0.1,0.2,0.3,0.3,0.6c0.1,0.2,0.1,0.5,0.1,0.8v3.1h-0.9v-3.1
			c0-0.3-0.1-0.7-0.2-0.9c-0.1-0.2-0.5-0.3-0.7-0.3c-0.1,0-0.2,0-0.5,0.1c-0.2,0.1-0.2,0.1-0.3,0.2c-0.1,0.1-0.2,0.2-0.2,0.3
			c0,0.1-0.1,0.3-0.1,0.5v3.1h-0.9v-3.1c0-0.3-0.1-0.7-0.2-0.9c-0.1-0.2-0.3-0.3-0.7-0.3c-0.2,0-0.5,0.1-0.6,0.2
			c-0.2,0.1-0.3,0.2-0.5,0.5v3.7h-0.7V482.8z"/>
		<path class="st1" d="M476,484.3c0,0.1-0.1,0.1-0.1,0.1s-0.1,0-0.2,0H475l0.9-2l-2.1-4.6h0.7c0.1,0,0.1,0,0.2,0s0.1,0.1,0.1,0.1
			l1.3,3.1c0,0.1,0,0.1,0.1,0.2c0.1,0.1,0,0.1,0,0.2c0-0.1,0-0.1,0.1-0.2c0-0.1,0-0.1,0.1-0.2l1.3-3.1c0,0,0-0.1,0.1-0.1h0.1h0.7
			L476,484.3z"/>
		<path class="st1" d="M482.4,478.6c0,0.1-0.1,0.1-0.2,0.1h-0.1c-0.1,0-0.1-0.1-0.2-0.1c-0.1,0-0.2-0.1-0.3-0.1s-0.2,0-0.5,0
			c-0.1,0-0.2,0-0.3,0c-0.1,0-0.2,0.1-0.3,0.1c-0.1,0.1-0.1,0.1-0.2,0.2c0,0.1-0.1,0.2-0.1,0.2c0,0.1,0,0.2,0.1,0.3
			c0.1,0.1,0.1,0.1,0.3,0.2c0.1,0.1,0.2,0.1,0.5,0.1c0.1,0,0.3,0.1,0.5,0.1c0.1,0,0.3,0.1,0.5,0.2c0.1,0.1,0.2,0.1,0.5,0.2
			c0.1,0.1,0.2,0.2,0.3,0.3c0.1,0.1,0.1,0.3,0.1,0.5c0,0.2,0,0.5-0.1,0.6c-0.1,0.2-0.2,0.3-0.3,0.5c-0.1,0.1-0.3,0.2-0.6,0.3
			c-0.2,0.1-0.5,0.1-0.8,0.1c-0.3,0-0.7,0-0.9-0.1c-0.2-0.1-0.5-0.2-0.7-0.5l0.2-0.3c0,0,0-0.1,0.1-0.1h0.1c0,0,0.1,0,0.2,0.1
			c0.1,0,0.1,0.1,0.2,0.1c0.1,0,0.2,0.1,0.3,0.1s0.3,0.1,0.5,0.1c0.1,0,0.3,0,0.5-0.1c0.1,0,0.2-0.1,0.3-0.2
			c0.1-0.1,0.1-0.1,0.2-0.2c0-0.1,0.1-0.2,0.1-0.3s0-0.2-0.1-0.3c-0.1-0.1-0.1-0.1-0.3-0.2c-0.1-0.1-0.2-0.1-0.5-0.1
			c-0.1,0-0.3-0.1-0.5-0.1c-0.1,0-0.3-0.1-0.5-0.2c-0.1-0.1-0.3-0.1-0.5-0.2c-0.1-0.1-0.2-0.2-0.2-0.3c-0.1-0.1-0.1-0.3-0.1-0.6
			s0-0.3,0.1-0.6c0.1-0.2,0.2-0.3,0.3-0.5s0.3-0.2,0.6-0.3c0.2-0.1,0.5-0.1,0.7-0.1c0.3,0,0.6,0,0.9,0.1c0.2,0.1,0.5,0.2,0.7,0.5
			L482.4,478.6z M482.7,475.7l-1.2,1.3l-0.1,0.1h-0.1h-0.5l0.7-1.2c0-0.1,0.1-0.1,0.1-0.1s0.1,0,0.2,0h0.8V475.7z"/>
		<path class="st1" d="M484.9,475.6v7.2h-0.9v-7.2H484.9z"/>
	</g>
	<g>
		<path class="st1" d="M330.8,472.8h0.3c0.1,0,0.2,0,0.3,0c0.1,0,0.1-0.1,0.2-0.1l2.3-2.7c0.1-0.1,0.1-0.1,0.2-0.1
			c0.1,0,0.1,0,0.2,0h0.8l-2.7,3c-0.1,0.1-0.1,0.1-0.2,0.2c-0.1,0-0.1,0.1-0.2,0.1c0.1,0,0.1,0.1,0.2,0.1c0.1,0.1,0.1,0.1,0.2,0.2
			l2.8,3.4h-0.8c-0.1,0-0.1,0-0.1,0h-0.1c0,0-0.1,0-0.1-0.1c0,0,0,0-0.1-0.1l-2.4-2.8l-0.1-0.1c0,0-0.1,0-0.1-0.1h-0.1
			c0,0-0.1,0-0.2,0h-0.3v3.2h-0.9v-7.1h0.9V472.8z"/>
		<path class="st1" d="M336.3,476.7v-5h0.5c0.1,0,0.1,0,0.2,0c0,0,0.1,0.1,0.1,0.2l0.1,0.8c0.1-0.3,0.3-0.6,0.6-0.8s0.6-0.2,0.9-0.2
			c0.1,0,0.2,0,0.3,0c0.1,0,0.2,0.1,0.3,0.1l-0.1,0.7c0,0.1-0.1,0.1-0.1,0.1s-0.1,0-0.2,0c-0.1,0-0.2,0-0.3,0
			c-0.3,0-0.6,0.1-0.8,0.2c-0.2,0.2-0.3,0.5-0.5,0.8v3.1h-1V476.7z"/>
		<path class="st1" d="M343.6,476.7h-0.3c-0.1,0-0.1,0-0.2,0l-0.1-0.1l-0.1-0.5c-0.1,0.1-0.2,0.2-0.3,0.3c-0.1,0.1-0.2,0.1-0.3,0.2
			c-0.1,0.1-0.2,0.1-0.5,0.1c-0.1,0-0.3,0-0.5,0c-0.2,0-0.3,0-0.6-0.1c-0.1,0-0.3-0.1-0.5-0.2c-0.1-0.1-0.2-0.2-0.3-0.5
			c-0.1-0.1-0.1-0.3-0.1-0.6c0-0.2,0-0.3,0.1-0.6s0.2-0.3,0.5-0.5c0.2-0.1,0.6-0.2,0.9-0.3c0.3-0.1,0.8-0.1,1.4-0.1v-0.3
			c0-0.3-0.1-0.7-0.2-0.9c-0.1-0.2-0.5-0.3-0.7-0.3c-0.2,0-0.3,0-0.6,0.1c-0.1,0-0.2,0.1-0.3,0.2c-0.1,0.1-0.2,0.1-0.2,0.2
			c-0.1,0-0.1,0.1-0.2,0.1h-0.1l-0.1-0.1l-0.1-0.2c0.2-0.2,0.6-0.5,0.9-0.6c0.3-0.1,0.7-0.2,1-0.2c0.2,0,0.6,0,0.7,0.1
			c0.2,0.1,0.3,0.2,0.6,0.3c0.1,0.1,0.2,0.3,0.3,0.6s0.1,0.5,0.1,0.8L343.6,476.7L343.6,476.7z M341.4,476.2c0.1,0,0.3,0,0.5,0
			c0.1,0,0.2-0.1,0.3-0.1c0.1,0,0.2-0.1,0.3-0.2c0.1-0.1,0.2-0.2,0.3-0.2v-1c-0.3,0-0.7,0-1,0.1c-0.2,0-0.5,0.1-0.7,0.2
			c-0.2,0.1-0.3,0.2-0.3,0.2c-0.1,0.1-0.1,0.2-0.1,0.3s0,0.2,0.1,0.3c0,0.1,0.1,0.1,0.1,0.2c0.1,0.1,0.1,0.1,0.2,0.1
			C341.2,476.2,341.3,476.2,341.4,476.2z"/>
		<path class="st1" d="M345.9,469.6v4.3h0.2c0.1,0,0.1,0,0.1,0s0.1,0,0.1-0.1l1.6-1.6l0.1-0.1c0,0,0.1,0,0.2,0h0.8l-1.9,2l-0.1,0.1
			l-0.1,0.1l0.1,0.1c0,0,0.1,0.1,0.1,0.2l2,2.4h-0.8c-0.1,0-0.1,0-0.2,0l-0.1-0.1l-1.6-2.1c0-0.1-0.1-0.1-0.1-0.1s-0.1,0-0.2,0h-0.2
			v2.3H345v-7.2h0.9V469.6z"/>
		<path class="st1" d="M351.9,471.8c0.3,0,0.7,0.1,0.9,0.2c0.3,0.1,0.6,0.3,0.7,0.5c0.2,0.2,0.3,0.5,0.5,0.8c0.1,0.3,0.1,0.7,0.1,1
			c0,0.3,0,0.7-0.1,1c-0.1,0.3-0.2,0.6-0.5,0.8c-0.2,0.2-0.5,0.3-0.7,0.5c-0.3,0.1-0.6,0.2-0.9,0.2c-0.3,0-0.7-0.1-0.9-0.2
			c-0.3-0.1-0.6-0.2-0.7-0.5c-0.2-0.2-0.3-0.5-0.5-0.8c-0.1-0.3-0.1-0.7-0.1-1c0-0.3,0-0.7,0.1-1c0.1-0.3,0.2-0.6,0.5-0.8
			c0.2-0.2,0.5-0.3,0.7-0.5C351.2,471.8,351.5,471.8,351.9,471.8z M351.9,476.2c0.5,0,0.8-0.1,1-0.5c0.2-0.3,0.3-0.8,0.3-1.4
			c0-0.6-0.1-1-0.3-1.4c-0.2-0.3-0.6-0.5-1-0.5c-0.2,0-0.5,0-0.7,0.1c-0.2,0.1-0.3,0.2-0.5,0.3c-0.1,0.1-0.2,0.3-0.2,0.6
			c-0.1,0.2-0.1,0.5-0.1,0.8s0,0.6,0.1,0.8c0.1,0.2,0.1,0.5,0.2,0.6c0.1,0.1,0.2,0.2,0.5,0.3C351.4,476,351.6,476.2,351.9,476.2z
			 M353.2,469.7l-1.2,1.3l-0.1,0.1h-0.1h-0.5l0.7-1.2c0-0.1,0.1-0.1,0.1-0.1s0.1,0,0.2,0h0.8V469.7z"/>
		<path class="st1" d="M354.6,471.8h0.7c0.1,0,0.1,0,0.2,0l0.1,0.1l0.9,3.2c0,0.1,0,0.2,0.1,0.3c0,0.1,0,0.2,0,0.3
			c0-0.1,0-0.2,0.1-0.3c0-0.1,0.1-0.2,0.1-0.3l1-3.2c0,0,0-0.1,0.1-0.1h0.1h0.3c0.1,0,0.1,0,0.1,0l0.1,0.1l1,3.2
			c0,0.1,0.1,0.2,0.1,0.3s0,0.2,0.1,0.3c0-0.1,0-0.2,0.1-0.3c0-0.1,0-0.2,0.1-0.3l0.9-3.2c0,0,0-0.1,0.1-0.1c0.1,0,0.1,0,0.1,0h0.7
			l-1.6,5h-0.8c-0.1,0-0.1,0-0.2-0.1l-1-3.4c0-0.1,0-0.1-0.1-0.2c-0.1-0.1,0-0.1,0-0.2c0,0.1,0,0.1,0,0.2c0,0.1,0,0.1-0.1,0.2
			l-1.2,3.4c0,0.1-0.1,0.1-0.2,0.1h-0.6L354.6,471.8z"/>
	</g>
	<g>
		<path class="st1" d="M258.5,421.9h0.3c0.1,0,0.2,0,0.3,0c0.1,0,0.1-0.1,0.2-0.1l2.3-2.7c0.1-0.1,0.1-0.1,0.2-0.1s0.1,0,0.2,0h0.8
			l-2.7,3c-0.1,0.1-0.1,0.1-0.2,0.2c-0.1,0-0.1,0.1-0.2,0.1c0.1,0,0.1,0.1,0.2,0.1c0.1,0.1,0.1,0.1,0.2,0.2l2.8,3.4h-0.8
			c-0.1,0-0.1,0-0.1,0h-0.1c0,0-0.1,0-0.1-0.1c0,0,0,0-0.1-0.1l-2.4-2.8l-0.1-0.1c0,0-0.1,0-0.1-0.1h-0.1c0,0-0.1,0-0.2,0h-0.5v3.2
			h-0.9V419h0.9v2.9H258.5z"/>
		<path class="st1" d="M267.6,425.9h-0.3c-0.1,0-0.1,0-0.2,0l-0.1-0.1l-0.1-0.5c-0.1,0.1-0.2,0.2-0.3,0.3c-0.1,0.1-0.2,0.1-0.3,0.2
			c-0.1,0.1-0.2,0.1-0.5,0.1c-0.1,0-0.3,0-0.5,0c-0.2,0-0.3,0-0.6-0.1c-0.1,0-0.3-0.1-0.5-0.2c-0.1-0.1-0.2-0.2-0.3-0.5
			c-0.1-0.1-0.1-0.3-0.1-0.6c0-0.2,0-0.3,0.1-0.6c0.1-0.2,0.2-0.3,0.5-0.5c0.2-0.1,0.6-0.2,0.9-0.3s0.8-0.1,1.4-0.1v-0.3
			c0-0.3-0.1-0.7-0.2-0.9c-0.1-0.2-0.5-0.3-0.7-0.3s-0.3,0-0.6,0.1c-0.1,0-0.2,0.1-0.3,0.2c-0.1,0.1-0.2,0.1-0.2,0.2
			c-0.1,0-0.1,0.1-0.2,0.1h-0.1l-0.1-0.1l-0.1-0.2c0.2-0.2,0.6-0.5,0.9-0.6c0.3-0.1,0.7-0.2,1-0.2c0.2,0,0.6,0,0.7,0.1
			c0.2,0.1,0.3,0.2,0.6,0.3c0.1,0.1,0.2,0.3,0.3,0.6c0.1,0.2,0.1,0.5,0.1,0.8L267.6,425.9L267.6,425.9z M265.3,425.3
			c0.1,0,0.3,0,0.5,0c0.1,0,0.2-0.1,0.3-0.1c0.1,0,0.2-0.1,0.3-0.2c0.1-0.1,0.2-0.2,0.3-0.2v-1c-0.3,0-0.7,0-1,0.1
			c-0.2,0-0.5,0.1-0.7,0.2c-0.2,0.1-0.3,0.2-0.3,0.2c-0.1,0.1-0.1,0.2-0.1,0.3s0,0.2,0.1,0.3c0,0.1,0.1,0.1,0.1,0.2
			c0.1,0.1,0.1,0.1,0.2,0.1C265.1,425.3,265.2,425.3,265.3,425.3z"/>
		<path class="st1" d="M270.4,425.9c-0.3,0-0.7-0.1-0.9-0.3c-0.2-0.2-0.3-0.6-0.3-0.9v-3h-0.6h-0.1v-0.1v-0.3l0.8-0.1l0.2-1.5
			c0,0,0-0.1,0.1-0.1h0.1h0.5v1.7h1.4v0.6h-1.4v3c0,0.2,0,0.3,0.1,0.5c0.1,0.1,0.2,0.1,0.3,0.1c0.1,0,0.1,0,0.2,0
			c0.1,0,0.1,0,0.1-0.1c0,0,0.1,0,0.1-0.1h0.1c0,0,0.1,0,0.1,0.1l0.2,0.5c-0.1,0.1-0.3,0.2-0.6,0.3
			C270.9,425.9,270.6,425.9,270.4,425.9z"/>
		<path class="st1" d="M274.6,420.8c0.3,0,0.7,0.1,0.9,0.2c0.3,0.1,0.6,0.3,0.7,0.5c0.2,0.2,0.3,0.5,0.5,0.8c0.1,0.3,0.1,0.7,0.1,1
			c0,0.3,0,0.7-0.1,1c-0.1,0.3-0.2,0.6-0.5,0.8c-0.2,0.2-0.5,0.3-0.7,0.5c-0.3,0.1-0.6,0.2-0.9,0.2c-0.3,0-0.7-0.1-0.9-0.2
			c-0.2-0.1-0.6-0.2-0.7-0.5c-0.2-0.2-0.3-0.5-0.5-0.8c-0.1-0.3-0.1-0.7-0.1-1c0-0.3,0-0.7,0.1-1c0.1-0.3,0.2-0.6,0.5-0.8
			c0.2-0.2,0.5-0.3,0.7-0.5C273.9,420.9,274.2,420.8,274.6,420.8z M274.6,425.2c0.5,0,0.8-0.1,1-0.5c0.2-0.3,0.3-0.8,0.3-1.4
			c0-0.6-0.1-1-0.3-1.4c-0.2-0.3-0.6-0.5-1-0.5c-0.2,0-0.5,0-0.7,0.1c-0.2,0.1-0.3,0.2-0.5,0.3c-0.1,0.1-0.2,0.3-0.2,0.6
			c-0.1,0.2-0.1,0.5-0.1,0.8c0,0.3,0,0.6,0.1,0.8c0.1,0.2,0.1,0.5,0.2,0.6c0.1,0.1,0.2,0.2,0.5,0.3
			C274.1,425.2,274.3,425.2,274.6,425.2z"/>
		<path class="st1" d="M277.4,420.9h0.7c0.1,0,0.1,0,0.2,0c0.1,0,0.1,0.1,0.1,0.1l0.9,3.2c0,0.1,0,0.2,0.1,0.3c0,0.1,0,0.2,0,0.3
			c0-0.1,0-0.2,0.1-0.3c0-0.1,0.1-0.2,0.1-0.3l1-3.2c0,0,0-0.1,0.1-0.1h0.1h0.3c0.1,0,0.1,0,0.1,0l0.1,0.1l1,3.2
			c0,0.1,0.1,0.2,0.1,0.3s0,0.2,0.1,0.3c0-0.1,0-0.2,0.1-0.3c0-0.1,0-0.2,0.1-0.3l0.9-3.2c0,0,0-0.1,0.1-0.1h0.1h0.7l-1.6,5h-0.7
			c-0.1,0-0.1,0-0.2-0.1l-1-3.4c0-0.1,0-0.1-0.1-0.2c0-0.1,0-0.1,0-0.2c0,0.1,0,0.1,0,0.2c0,0.1,0,0.1-0.1,0.2l-1.2,3.4
			c0,0.1-0.1,0.1-0.2,0.1H279L277.4,420.9z"/>
		<path class="st1" d="M286.6,419.3c0,0.1,0,0.1,0,0.2s-0.1,0.1-0.1,0.2c0,0-0.1,0.1-0.2,0.1c-0.1,0-0.1,0-0.2,0c-0.1,0-0.1,0-0.2,0
			s-0.1-0.1-0.2-0.1c0,0-0.1-0.1-0.1-0.2s0-0.1,0-0.2c0-0.1,0-0.1,0-0.2c0-0.1,0.1-0.1,0.1-0.2c0,0,0.1-0.1,0.2-0.1s0.1,0,0.2,0
			c0.1,0,0.1,0,0.2,0c0.1,0,0.1,0.1,0.2,0.1c0,0,0.1,0.1,0.1,0.2S286.6,419.3,286.6,419.3z M286.5,420.9v5h-0.9v-5H286.5z"/>
		<path class="st1" d="M291.4,421.8L291.4,421.8c-0.1,0.1-0.1,0.1-0.2,0.1c0,0-0.1,0-0.1-0.1c0,0-0.1-0.1-0.2-0.1
			c-0.1,0-0.2-0.1-0.3-0.1c-0.1,0-0.2-0.1-0.5-0.1c-0.2,0-0.5,0-0.7,0.1c-0.2,0.1-0.3,0.2-0.5,0.3c-0.1,0.1-0.2,0.3-0.2,0.6
			c-0.1,0.2-0.1,0.5-0.1,0.8c0,0.3,0,0.6,0.1,0.8c0.1,0.2,0.1,0.5,0.2,0.6c0.1,0.1,0.2,0.2,0.5,0.3c0.2,0.1,0.3,0.1,0.6,0.1
			s0.3,0,0.6-0.1c0.1,0,0.2-0.1,0.3-0.1c0.1-0.1,0.1-0.1,0.2-0.1c0.1,0,0.1-0.1,0.2-0.1c0.1,0,0.1,0,0.1,0.1l0.2,0.3
			c-0.2,0.2-0.5,0.5-0.8,0.6c-0.3,0.1-0.7,0.2-1,0.2c-0.3,0-0.6,0-0.8-0.1c-0.2-0.1-0.5-0.2-0.7-0.5c-0.2-0.2-0.3-0.5-0.5-0.8
			c-0.1-0.3-0.1-0.7-0.1-1c0-0.3,0-0.7,0.1-1c0.1-0.3,0.2-0.6,0.5-0.8c0.2-0.2,0.5-0.3,0.7-0.6c0.3-0.1,0.6-0.2,1-0.2
			c0.3,0,0.7,0,0.9,0.1c0.2,0.1,0.5,0.2,0.7,0.5L291.4,421.8z"/>
		<path class="st1" d="M294.5,420.8c0.3,0,0.6,0,0.8,0.1c0.2,0.1,0.5,0.2,0.7,0.5c0.2,0.2,0.3,0.5,0.5,0.7c0.1,0.2,0.1,0.6,0.1,0.9
			c0,0.1,0,0.2,0,0.2l-0.1,0.1h-3.2c0,0.3,0,0.6,0.1,0.8c0.1,0.2,0.2,0.5,0.3,0.6c0.1,0.1,0.3,0.2,0.5,0.3c0.2,0.1,0.3,0.1,0.6,0.1
			c0.2,0,0.5,0,0.6-0.1c0.1-0.1,0.3-0.1,0.5-0.1c0.1-0.1,0.2-0.1,0.2-0.1c0.1,0,0.1-0.1,0.2-0.1c0.1,0,0.1,0,0.1,0.1l0.2,0.3
			c-0.1,0.1-0.2,0.2-0.3,0.3c-0.1,0.1-0.3,0.2-0.5,0.2c-0.1,0.1-0.3,0.1-0.6,0.1s-0.3,0-0.6,0c-0.3,0-0.7-0.1-0.9-0.2
			c-0.2-0.1-0.6-0.2-0.7-0.5c-0.2-0.2-0.3-0.5-0.5-0.8c-0.1-0.3-0.2-0.7-0.2-1.2c0-0.3,0-0.7,0.1-0.9c0.1-0.3,0.2-0.6,0.5-0.8
			c0.2-0.2,0.5-0.3,0.7-0.5C293.9,420.9,294.2,420.8,294.5,420.8z M294.6,421.5c-0.5,0-0.7,0.1-1,0.3c-0.2,0.2-0.3,0.6-0.5,1h2.7
			c0-0.2,0-0.3-0.1-0.6c0-0.1-0.1-0.3-0.2-0.5c-0.1-0.1-0.2-0.2-0.3-0.2C295,421.5,294.7,421.5,294.6,421.5z"/>
	</g>
	<g>
		<path class="st1" d="M201.4,381.5c0,0.6-0.1,1-0.2,1.4c-0.1,0.5-0.3,0.8-0.7,1.2c-0.3,0.3-0.7,0.6-1,0.7c-0.5,0.2-0.9,0.2-1.4,0.2
			c-0.5,0-1-0.1-1.4-0.2c-0.5-0.2-0.8-0.5-1-0.7c-0.3-0.3-0.6-0.7-0.7-1.2s-0.2-0.9-0.2-1.4c0-0.6,0.1-1,0.2-1.4
			c0.1-0.5,0.3-0.8,0.7-1.2c0.3-0.3,0.7-0.6,1-0.7c0.5-0.2,0.9-0.2,1.4-0.2c0.5,0,1,0.1,1.4,0.2c0.5,0.2,0.8,0.5,1,0.7
			c0.3,0.3,0.6,0.7,0.7,1.2C201.2,380.6,201.4,381,201.4,381.5z M200.4,381.5c0-0.5-0.1-0.8-0.2-1.2c-0.1-0.3-0.2-0.6-0.5-0.8
			c-0.2-0.2-0.5-0.5-0.8-0.6c-0.3-0.1-0.7-0.2-1-0.2s-0.7,0.1-1,0.2c-0.3,0.1-0.6,0.3-0.8,0.6s-0.3,0.6-0.5,0.8
			c-0.1,0.3-0.2,0.7-0.2,1.2c0,0.5,0.1,0.8,0.2,1.2c0.1,0.3,0.2,0.6,0.5,0.8c0.2,0.2,0.5,0.5,0.8,0.6c0.3,0.1,0.7,0.2,1,0.2
			s0.7-0.1,1-0.2c0.3-0.1,0.6-0.3,0.8-0.6c0.2-0.2,0.3-0.6,0.5-0.8C200.3,382.3,200.4,382,200.4,381.5z"/>
		<path class="st1" d="M202.5,386.7v-6.6h0.5c0.1,0,0.2,0.1,0.2,0.2l0.1,0.6c0.2-0.2,0.5-0.5,0.7-0.6c0.2-0.1,0.6-0.2,0.9-0.2
			c0.2,0,0.6,0,0.8,0.1c0.2,0.1,0.5,0.2,0.6,0.5c0.1,0.2,0.2,0.5,0.3,0.8c0.1,0.3,0.1,0.7,0.1,1c0,0.3,0,0.7-0.1,1s-0.2,0.6-0.5,0.8
			c-0.2,0.2-0.5,0.5-0.7,0.6c-0.2,0.1-0.6,0.2-0.9,0.2s-0.6,0-0.8-0.1s-0.5-0.2-0.6-0.5v2.2h-0.7V386.7z M204.7,380.7
			c-0.2,0-0.6,0.1-0.7,0.2c-0.2,0.1-0.5,0.3-0.6,0.6v2.4c0.1,0.2,0.3,0.3,0.6,0.5c0.2,0.1,0.3,0.1,0.7,0.1c0.5,0,0.8-0.1,1-0.5
			c0.2-0.3,0.3-0.8,0.3-1.4c0-0.3,0-0.6-0.1-0.8c0-0.2-0.1-0.5-0.2-0.6c-0.1-0.1-0.2-0.2-0.3-0.3
			C205.1,380.7,204.9,380.7,204.7,380.7z"/>
		<path class="st1" d="M209.9,380c0.3,0,0.7,0.1,0.9,0.2c0.3,0.1,0.6,0.3,0.7,0.5c0.2,0.2,0.3,0.5,0.5,0.8s0.1,0.7,0.1,1
			c0,0.3,0,0.7-0.1,1s-0.2,0.6-0.5,0.8c-0.2,0.2-0.5,0.3-0.7,0.5c-0.3,0.1-0.6,0.2-0.9,0.2s-0.7-0.1-0.9-0.2
			c-0.2-0.1-0.6-0.2-0.7-0.5c-0.2-0.2-0.3-0.5-0.5-0.8c-0.1-0.3-0.1-0.7-0.1-1c0-0.3,0-0.7,0.1-1c0.1-0.3,0.2-0.6,0.5-0.8
			c0.2-0.2,0.5-0.3,0.7-0.5C209.2,380.1,209.6,380,209.9,380z M209.9,384.4c0.5,0,0.8-0.1,1-0.5c0.2-0.3,0.3-0.8,0.3-1.4
			c0-0.6-0.1-1-0.3-1.4c-0.2-0.3-0.6-0.5-1-0.5c-0.2,0-0.5,0-0.7,0.1c-0.2,0.1-0.3,0.2-0.5,0.3s-0.2,0.3-0.2,0.6
			c-0.1,0.2-0.1,0.5-0.1,0.8c0,0.3,0,0.6,0.1,0.8s0.1,0.5,0.2,0.6c0.1,0.1,0.2,0.2,0.5,0.3C209.5,384.4,209.7,384.4,209.9,384.4z"/>
		<path class="st1" d="M214.3,377.8v7.2h-0.9v-7.2H214.3z"/>
		<path class="st1" d="M217.8,380c0.3,0,0.6,0,0.8,0.1c0.2,0.1,0.5,0.2,0.7,0.5c0.2,0.2,0.3,0.5,0.5,0.7s0.1,0.6,0.1,0.9
			c0,0.1,0,0.2,0,0.2l-0.1,0.1h-3.2c0,0.3,0,0.6,0.1,0.8s0.2,0.5,0.3,0.6c0.1,0.1,0.3,0.2,0.5,0.3c0.2,0.1,0.3,0.1,0.6,0.1
			s0.5,0,0.6-0.1c0.1,0,0.3-0.1,0.5-0.1c0.1-0.1,0.2-0.1,0.2-0.1c0.1,0,0.1-0.1,0.2-0.1s0.1,0,0.1,0.1l0.2,0.3
			c-0.1,0.1-0.2,0.2-0.3,0.3c-0.1,0.1-0.3,0.2-0.5,0.2c-0.1,0.1-0.3,0.1-0.6,0.1s-0.3,0-0.6,0c-0.3,0-0.7-0.1-0.9-0.2
			c-0.2-0.1-0.6-0.2-0.7-0.5c-0.2-0.2-0.3-0.5-0.5-0.8c-0.1-0.3-0.2-0.7-0.2-1.2c0-0.3,0-0.7,0.1-0.9c0.1-0.3,0.2-0.6,0.5-0.8
			c0.2-0.2,0.5-0.3,0.7-0.5C217.1,380.1,217.5,380,217.8,380z M217.8,380.7c-0.5,0-0.7,0.1-1,0.3c-0.2,0.2-0.3,0.6-0.5,1h2.7
			c0-0.2,0-0.3-0.1-0.6c0-0.1-0.1-0.3-0.2-0.5c-0.1-0.1-0.2-0.2-0.3-0.2C218.3,380.7,218,380.7,217.8,380.7z"/>
	</g>
	<g>
		<path class="st1" d="M110.1,351.2h0.8c0.1,0,0.1,0,0.2,0.1l0.1,0.1l1.5,4.9c0,0.1,0,0.2,0.1,0.2c0.1,0,0,0.2,0.1,0.3
			c0-0.1,0-0.2,0.1-0.3c0-0.1,0-0.2,0.1-0.2l1.6-4.9l0.1-0.1c0,0,0.1-0.1,0.2-0.1h0.2c0.1,0,0.1,0,0.2,0.1c0.1,0.1,0.1,0.1,0.1,0.1
			l1.6,4.9c0.1,0.1,0.1,0.3,0.1,0.6c0-0.1,0-0.2,0-0.3c0-0.1,0-0.2,0.1-0.2l1.5-4.9c0,0,0-0.1,0.1-0.1c0,0,0.1-0.1,0.2-0.1h0.7
			l-2.2,7.1h-0.8l-1.7-5.3c0-0.1-0.1-0.2-0.1-0.3c0,0.1,0,0.1,0,0.2c0,0.1,0,0.1,0,0.1l-1.7,5.3h-0.8L110.1,351.2z"/>
		<path class="st1" d="M120.6,358.2v-5h0.5c0.1,0,0.1,0,0.2,0c0,0,0.1,0.1,0.1,0.2l0.1,0.8c0.1-0.3,0.3-0.6,0.6-0.8s0.6-0.2,0.9-0.2
			c0.1,0,0.2,0,0.3,0s0.2,0.1,0.3,0.1l-0.1,0.7c0,0.1-0.1,0.1-0.1,0.1s-0.1,0-0.2,0c-0.1,0-0.2,0-0.3,0c-0.3,0-0.6,0.1-0.8,0.2
			c-0.2,0.2-0.3,0.5-0.5,0.8v3.1h-1V358.2z"/>
		<path class="st1" d="M126.6,353.1c0.3,0,0.7,0.1,0.9,0.2c0.3,0.1,0.6,0.3,0.7,0.5c0.2,0.2,0.3,0.5,0.5,0.8s0.1,0.7,0.1,1
			c0,0.3,0,0.7-0.1,1c-0.1,0.3-0.2,0.6-0.5,0.8c-0.2,0.2-0.5,0.3-0.7,0.5c-0.3,0.1-0.6,0.2-0.9,0.2c-0.3,0-0.7-0.1-0.9-0.2
			c-0.3-0.1-0.6-0.2-0.7-0.5c-0.2-0.2-0.3-0.5-0.5-0.8c-0.1-0.3-0.1-0.7-0.1-1c0-0.3,0-0.7,0.1-1c0.1-0.3,0.2-0.6,0.5-0.8
			c0.2-0.2,0.5-0.3,0.7-0.5C125.9,353.2,126.3,353.1,126.6,353.1z M126.6,357.5c0.5,0,0.8-0.1,1-0.5c0.2-0.3,0.3-0.8,0.3-1.4
			s-0.1-1-0.3-1.4c-0.2-0.3-0.6-0.5-1-0.5c-0.2,0-0.5,0-0.7,0.1c-0.2,0.1-0.3,0.2-0.5,0.3c-0.1,0.1-0.2,0.3-0.2,0.6
			c-0.1,0.2-0.1,0.5-0.1,0.8c0,0.3,0,0.6,0.1,0.8s0.1,0.5,0.2,0.6c0.1,0.1,0.2,0.2,0.5,0.3C126.2,357.5,126.4,357.5,126.6,357.5z"/>
		<path class="st1" d="M133.3,354.2L133.3,354.2c-0.1,0.1-0.1,0.1-0.2,0.1c0,0-0.1,0-0.1-0.1c0,0-0.1-0.1-0.2-0.1s-0.2-0.1-0.3-0.1
			c-0.1,0-0.2-0.1-0.5-0.1c-0.2,0-0.5,0-0.7,0.1c-0.2,0.1-0.3,0.2-0.5,0.3c-0.1,0.1-0.2,0.3-0.2,0.6c-0.1,0.2-0.1,0.5-0.1,0.8
			c0,0.3,0,0.6,0.1,0.8s0.1,0.5,0.2,0.6c0.1,0.1,0.2,0.2,0.5,0.3c0.2,0.1,0.3,0.1,0.6,0.1s0.3,0,0.6-0.1c0.1,0,0.2-0.1,0.3-0.1
			c0.1-0.1,0.1-0.1,0.2-0.1c0.1,0,0.1-0.1,0.2-0.1s0.1,0,0.1,0.1l0.2,0.3c-0.2,0.2-0.5,0.5-0.8,0.6c-0.3,0.1-0.7,0.2-1,0.2
			s-0.6,0-0.8-0.1c-0.2-0.1-0.5-0.2-0.7-0.5c-0.2-0.2-0.3-0.5-0.5-0.8s-0.1-0.7-0.1-1c0-0.3,0-0.7,0.1-1c0.1-0.3,0.2-0.6,0.5-0.8
			c0.2-0.2,0.5-0.3,0.7-0.6c0.3-0.1,0.6-0.2,1-0.2c0.3,0,0.7,0,0.9,0.1c0.2,0.1,0.5,0.2,0.7,0.5L133.3,354.2z"/>
		<path class="st1" d="M135.9,351v2.8l0.9-0.3v0.5v0.1c0,0,0,0.1-0.1,0.1l-0.7,0.3v3.7h-1v-3.4l-0.8,0.3v-0.5c0-0.1,0-0.1,0.1-0.2
			l0.7-0.3V351H135.9z"/>
		<path class="st1" d="M141.3,358.2H141c-0.1,0-0.1,0-0.2,0l-0.1-0.1l-0.1-0.5c-0.1,0.1-0.2,0.2-0.3,0.3c-0.1,0.1-0.2,0.1-0.3,0.2
			c-0.1,0.1-0.2,0.1-0.5,0.1c-0.1,0-0.3,0-0.5,0c-0.2,0-0.3,0-0.6-0.1c-0.1,0-0.3-0.1-0.5-0.2c-0.1-0.1-0.2-0.2-0.3-0.5
			c-0.1-0.1-0.1-0.3-0.1-0.6s0-0.3,0.1-0.6s0.2-0.3,0.5-0.5c0.2-0.1,0.6-0.2,0.9-0.3c0.3-0.1,0.8-0.1,1.4-0.1v-0.3
			c0-0.3-0.1-0.7-0.2-0.9c-0.1-0.2-0.5-0.3-0.7-0.3c-0.2,0-0.3,0-0.6,0.1c-0.1,0-0.2,0.1-0.3,0.2c-0.1,0.1-0.2,0.1-0.2,0.2
			c-0.1,0-0.1,0.1-0.2,0.1s-0.1,0-0.1,0l-0.1-0.1l-0.1-0.2c0.2-0.2,0.6-0.5,0.9-0.6c0.3-0.1,0.7-0.2,1-0.2c0.2,0,0.6,0,0.7,0.1
			c0.2,0.1,0.3,0.2,0.6,0.3c0.1,0.1,0.2,0.3,0.3,0.6c0.1,0.2,0.1,0.5,0.1,0.8L141.3,358.2L141.3,358.2z M139.1,357.6
			c0.1,0,0.3,0,0.5,0s0.2-0.1,0.3-0.1c0.1,0,0.2-0.1,0.3-0.2c0.1-0.1,0.2-0.2,0.3-0.2v-1c-0.3,0-0.7,0-1,0.1c-0.2,0-0.5,0.1-0.7,0.2
			c-0.2,0.1-0.3,0.2-0.3,0.2c-0.1,0.1-0.1,0.2-0.1,0.3s0,0.2,0.1,0.3c0,0.1,0.1,0.1,0.1,0.2c0.1,0.1,0.1,0.1,0.2,0.1
			C138.9,357.6,139,357.6,139.1,357.6z"/>
		<path class="st1" d="M141.9,353.2h0.7c0.1,0,0.1,0,0.2,0l0.1,0.1l0.9,3.2c0,0.1,0,0.2,0.1,0.3c0.1,0.1,0,0.2,0.1,0.3
			c0-0.1,0-0.2,0.1-0.3c0.1-0.1,0.1-0.2,0.1-0.3l1-3.2c0,0,0-0.1,0.1-0.1h0.1h0.3c0.1,0,0.1,0,0.1,0l0.1,0.1l1,3.2
			c0,0.1,0.1,0.2,0.1,0.3s0,0.2,0.1,0.3c0-0.1,0-0.2,0.1-0.3c0-0.1,0-0.2,0.1-0.3l0.9-3.2c0,0,0-0.1,0.1-0.1h0.1h0.7l-1.6,5h-0.7
			c-0.1,0-0.1,0-0.2-0.1l-1-3.4c0-0.1,0-0.1-0.1-0.2c0-0.1,0-0.1,0-0.2c0,0.1,0,0.1,0,0.2c0,0.1,0,0.1-0.1,0.2l-1.2,3.4
			c0,0.1-0.1,0.1-0.2,0.1h-0.7L141.9,353.2z"/>
	</g>
	<g>
		<path class="st1" d="M62.5,285.1v0.3c0,0.1,0,0.2-0.1,0.3l-3.9,5.6h4.1v0.8h-5.2v-0.3c0-0.1,0-0.2,0.1-0.2l3.9-5.6h-3.8v-0.8h5
			V285.1z"/>
		<path class="st1" d="M64.8,285.6c0,0.1,0,0.1,0,0.2s-0.1,0.1-0.1,0.2c0,0-0.1,0.1-0.2,0.1c-0.1,0-0.1,0-0.2,0s-0.1,0-0.2,0
			c-0.1,0-0.1-0.1-0.2-0.1c0,0-0.1-0.1-0.1-0.2s0-0.1,0-0.2c0-0.1,0-0.1,0-0.2c0-0.1,0.1-0.1,0.1-0.2c0,0,0.1-0.1,0.2-0.1
			c0.1,0,0.1,0,0.2,0s0.1,0,0.2,0c0.1,0,0.1,0.1,0.2,0.1c0,0,0.1,0.1,0.1,0.2C64.8,285.5,64.8,285.5,64.8,285.6z M64.6,287.1v5h-0.9
			v-5H64.6z"/>
		<path class="st1" d="M68,287.1c0.3,0,0.6,0,0.8,0.1c0.2,0.1,0.5,0.2,0.7,0.5c0.2,0.2,0.3,0.5,0.5,0.7c0.1,0.2,0.1,0.6,0.1,0.9
			c0,0.1,0,0.2,0,0.2l-0.1,0.1h-3.2c0,0.3,0,0.6,0.1,0.8c0.1,0.2,0.2,0.5,0.3,0.6c0.1,0.1,0.3,0.2,0.5,0.3c0.2,0.1,0.3,0.1,0.6,0.1
			s0.5,0,0.6-0.1c0.1,0,0.3-0.1,0.5-0.1c0.1-0.1,0.2-0.1,0.2-0.1c0.1,0,0.1-0.1,0.2-0.1c0.1,0,0.1,0,0.1,0.1l0.2,0.3
			c-0.1,0.1-0.2,0.2-0.3,0.3c-0.1,0.1-0.3,0.2-0.5,0.2c-0.1,0.1-0.3,0.1-0.6,0.1c-0.2,0-0.3,0-0.6,0c-0.3,0-0.7-0.1-0.9-0.2
			c-0.2-0.1-0.6-0.2-0.7-0.5c-0.2-0.2-0.3-0.5-0.5-0.8c-0.1-0.3-0.2-0.7-0.2-1.2c0-0.3,0-0.7,0.1-0.9c0.1-0.3,0.2-0.6,0.5-0.8
			c0.2-0.2,0.5-0.3,0.7-0.5C67.4,287.1,67.7,287.1,68,287.1z M68,287.7c-0.5,0-0.7,0.1-1,0.3c-0.2,0.2-0.3,0.6-0.5,1h2.7
			c0-0.2,0-0.3-0.1-0.6c0-0.1-0.1-0.3-0.2-0.5c-0.1-0.1-0.2-0.2-0.3-0.2C68.5,287.7,68.3,287.7,68,287.7z"/>
		<path class="st1" d="M72.2,284.9v7.2h-0.9v-7.2H72.2z"/>
		<path class="st1" d="M75.7,287.1c0.3,0,0.7,0.1,0.9,0.2c0.3,0.1,0.6,0.3,0.7,0.5c0.2,0.2,0.3,0.5,0.5,0.8c0.1,0.3,0.1,0.7,0.1,1
			c0,0.3,0,0.7-0.1,1c-0.1,0.3-0.2,0.6-0.5,0.8c-0.2,0.2-0.5,0.3-0.7,0.5c-0.3,0.1-0.6,0.2-0.9,0.2c-0.3,0-0.7-0.1-0.9-0.2
			c-0.3-0.1-0.6-0.2-0.7-0.5c-0.2-0.2-0.3-0.5-0.5-0.8c-0.1-0.3-0.1-0.7-0.1-1c0-0.3,0-0.7,0.1-1c0.1-0.3,0.2-0.6,0.5-0.8
			s0.5-0.3,0.7-0.5C75,287.1,75.3,287.1,75.7,287.1z M75.7,291.5c0.5,0,0.8-0.1,1-0.5c0.2-0.3,0.3-0.8,0.3-1.4c0-0.6-0.1-1-0.3-1.4
			c-0.2-0.3-0.6-0.5-1-0.5c-0.2,0-0.5,0-0.7,0.1c-0.2,0.1-0.3,0.2-0.5,0.3c-0.1,0.1-0.2,0.3-0.2,0.6c-0.1,0.2-0.1,0.5-0.1,0.8
			c0,0.3,0,0.6,0.1,0.8c0.1,0.2,0.1,0.5,0.2,0.6c0.1,0.1,0.2,0.2,0.5,0.3C75.2,291.4,75.5,291.5,75.7,291.5z"/>
		<path class="st1" d="M79.2,292.1v-5h0.5c0.1,0,0.2,0.1,0.2,0.2l0.1,0.6c0.2-0.2,0.5-0.5,0.7-0.6c0.2-0.1,0.6-0.2,0.9-0.2
			c0.2,0,0.5,0,0.7,0.1c0.2,0.1,0.3,0.2,0.5,0.3c0.1,0.1,0.2,0.3,0.3,0.6c0.1,0.2,0.1,0.5,0.1,0.8v3.1h-0.9v-3.1
			c0-0.3-0.1-0.7-0.2-0.9c-0.1-0.2-0.5-0.3-0.8-0.3c-0.2,0-0.5,0.1-0.7,0.2c-0.2,0.1-0.5,0.3-0.6,0.5v3.7L79.2,292.1L79.2,292.1z"/>
		<path class="st1" d="M88.2,292.1h-0.3c-0.1,0-0.1,0-0.2,0l-0.1-0.1l-0.1-0.5c-0.1,0.1-0.2,0.2-0.3,0.3s-0.2,0.1-0.3,0.2
			c-0.1,0.1-0.2,0.1-0.5,0.1c-0.1,0-0.3,0-0.5,0c-0.2,0-0.3,0-0.6-0.1c-0.1,0-0.3-0.1-0.5-0.2c-0.1-0.1-0.2-0.2-0.3-0.5
			c-0.1-0.1-0.1-0.3-0.1-0.6s0-0.3,0.1-0.6s0.2-0.3,0.5-0.5c0.2-0.1,0.6-0.2,0.9-0.3c0.3-0.1,0.8-0.1,1.4-0.1v-0.3
			c0-0.3-0.1-0.7-0.2-0.9c-0.1-0.2-0.5-0.3-0.7-0.3c-0.2,0-0.3,0-0.6,0.1c-0.1,0-0.2,0.1-0.3,0.2c-0.1,0.1-0.2,0.1-0.2,0.2
			c-0.1,0-0.1,0.1-0.2,0.1c-0.1,0-0.1,0-0.1,0l-0.1-0.1l-0.1-0.2c0.2-0.2,0.6-0.5,0.9-0.6c0.3-0.1,0.7-0.2,1-0.2
			c0.2,0,0.6,0,0.7,0.1c0.2,0.1,0.3,0.2,0.6,0.3c0.1,0.1,0.2,0.3,0.3,0.6c0.1,0.2,0.1,0.5,0.1,0.8L88.2,292.1L88.2,292.1z M86,291.5
			c0.1,0,0.3,0,0.5,0c0.1,0,0.2-0.1,0.3-0.1s0.2-0.1,0.3-0.2c0.1-0.1,0.2-0.2,0.3-0.2v-1c-0.3,0-0.7,0-1,0.1c-0.2,0-0.5,0.1-0.7,0.2
			c-0.2,0.1-0.3,0.2-0.3,0.2c-0.1,0.1-0.1,0.2-0.1,0.3c0,0.1,0,0.2,0.1,0.3c0,0.1,0.1,0.1,0.1,0.2c0.1,0.1,0.1,0.1,0.2,0.1
			C85.8,291.5,85.9,291.5,86,291.5z"/>
		<path class="st1" d="M94.7,291.4c0.2,0,0.3,0,0.5,0c0.1,0,0.3,0,0.5-0.1c0.1,0,0.2-0.1,0.3-0.1s0.2-0.1,0.3-0.2v-1.5h-1
			c-0.1,0-0.1,0-0.1,0v-0.1v-0.6h2.2v2.7c-0.2,0.1-0.3,0.2-0.6,0.3c-0.2,0.1-0.3,0.1-0.6,0.2c-0.2,0.1-0.5,0.1-0.7,0.1
			c-0.2,0-0.5,0-0.8,0c-0.5,0-0.9-0.1-1.4-0.2c-0.5-0.1-0.8-0.5-1-0.7c-0.3-0.3-0.6-0.7-0.7-1.2c-0.1-0.5-0.2-0.9-0.2-1.5
			s0.1-1,0.2-1.5c0.1-0.5,0.5-0.8,0.7-1.2c0.3-0.3,0.7-0.6,1.2-0.7c0.5-0.1,0.9-0.2,1.5-0.2c0.2,0,0.6,0,0.8,0.1
			c0.2,0,0.5,0.1,0.7,0.2c0.2,0.1,0.3,0.1,0.6,0.2c0.1,0.1,0.3,0.2,0.5,0.3l-0.2,0.5c0,0.1-0.1,0.1-0.2,0.1h-0.1
			c-0.1,0-0.1-0.1-0.2-0.1c-0.1-0.1-0.2-0.1-0.3-0.2c-0.1-0.1-0.3-0.1-0.5-0.1s-0.5-0.1-0.7-0.1c-0.3,0-0.7,0.1-1,0.2
			c-0.3,0.1-0.6,0.3-0.8,0.6c-0.2,0.2-0.3,0.6-0.5,0.9c-0.1,0.3-0.2,0.7-0.2,1.2s0.1,0.8,0.2,1.2c0.1,0.3,0.3,0.7,0.6,0.9
			c0.2,0.2,0.5,0.5,0.8,0.6C94,291.4,94.3,291.4,94.7,291.4z"/>
		<path class="st1" d="M100.6,287.1c0.3,0,0.7,0.1,0.9,0.2c0.3,0.1,0.6,0.3,0.7,0.5c0.2,0.2,0.3,0.5,0.5,0.8c0.1,0.3,0.1,0.7,0.1,1
			c0,0.3,0,0.7-0.1,1c-0.1,0.3-0.2,0.6-0.5,0.8c-0.2,0.2-0.5,0.3-0.7,0.5c-0.3,0.1-0.6,0.2-0.9,0.2c-0.3,0-0.7-0.1-0.9-0.2
			c-0.3-0.1-0.6-0.2-0.7-0.5c-0.2-0.2-0.3-0.5-0.5-0.8c-0.1-0.3-0.1-0.7-0.1-1c0-0.3,0-0.7,0.1-1c0.1-0.3,0.2-0.6,0.5-0.8
			s0.5-0.3,0.7-0.5C99.9,287.1,100.3,287.1,100.6,287.1z M100.6,291.5c0.5,0,0.8-0.1,1-0.5c0.2-0.3,0.3-0.8,0.3-1.4
			c0-0.6-0.1-1-0.3-1.4s-0.6-0.5-1-0.5c-0.2,0-0.5,0-0.7,0.1c-0.2,0.1-0.3,0.2-0.5,0.3c-0.1,0.1-0.2,0.3-0.2,0.6
			c-0.1,0.2-0.1,0.5-0.1,0.8c0,0.3,0,0.6,0.1,0.8c0.1,0.2,0.1,0.5,0.2,0.6c0.1,0.1,0.2,0.2,0.5,0.3
			C100.1,291.4,100.4,291.5,100.6,291.5z M102.1,285l-1.2,1.3l-0.1,0.1h-0.1h-0.5l0.7-1.2c0-0.1,0.1-0.1,0.1-0.1s0.1,0,0.2,0h0.8
			V285z"/>
		<path class="st1" d="M104.1,292.1v-5h0.5c0.1,0,0.1,0,0.2,0s0.1,0.1,0.1,0.2l0.1,0.8c0.1-0.3,0.3-0.6,0.6-0.8s0.6-0.2,0.9-0.2
			c0.1,0,0.2,0,0.3,0s0.2,0.1,0.3,0.1l-0.1,0.7c0,0.1-0.1,0.1-0.1,0.1s-0.1,0-0.2,0c-0.1,0-0.2,0-0.3,0c-0.3,0-0.6,0.1-0.8,0.2
			c-0.2,0.2-0.3,0.5-0.5,0.8v3.1h-1V292.1z"/>
		<path class="st1" d="M111.5,292.1h-0.3c-0.1,0-0.1,0-0.2,0l-0.1-0.1l-0.1-0.5c-0.1,0.1-0.2,0.2-0.3,0.3c-0.1,0.1-0.2,0.1-0.3,0.2
			c-0.1,0.1-0.2,0.1-0.5,0.1c-0.1,0-0.3,0-0.5,0c-0.2,0-0.3,0-0.6-0.1c-0.1,0-0.3-0.1-0.5-0.2c-0.1-0.1-0.2-0.2-0.3-0.5
			c-0.1-0.1-0.1-0.3-0.1-0.6s0-0.3,0.1-0.6c0.1-0.2,0.2-0.3,0.5-0.5c0.2-0.1,0.6-0.2,0.9-0.3c0.3-0.1,0.8-0.1,1.4-0.1v-0.3
			c0-0.3-0.1-0.7-0.2-0.9c-0.1-0.2-0.5-0.3-0.7-0.3c-0.2,0-0.3,0-0.6,0.1c-0.1,0-0.2,0.1-0.3,0.2c-0.1,0.1-0.2,0.1-0.2,0.2
			c-0.1,0-0.1,0.1-0.2,0.1c-0.1,0-0.1,0-0.1,0l-0.1-0.1l-0.1-0.2c0.2-0.2,0.6-0.5,0.9-0.6c0.3-0.1,0.7-0.2,1-0.2
			c0.2,0,0.6,0,0.7,0.1c0.2,0.1,0.3,0.2,0.6,0.3c0.1,0.1,0.2,0.3,0.3,0.6c0.1,0.2,0.1,0.5,0.1,0.8L111.5,292.1L111.5,292.1z
			 M109.2,291.5c0.1,0,0.3,0,0.5,0c0.1,0,0.2-0.1,0.3-0.1c0.1,0,0.2-0.1,0.3-0.2c0.1-0.1,0.2-0.2,0.3-0.2v-1c-0.3,0-0.7,0-1,0.1
			c-0.2,0-0.5,0.1-0.7,0.2c-0.2,0.1-0.3,0.2-0.3,0.2c-0.1,0.1-0.1,0.2-0.1,0.3c0,0.1,0,0.2,0.1,0.3c0,0.1,0.1,0.1,0.1,0.2
			c0.1,0.1,0.1,0.1,0.2,0.1C109.1,291.5,109.1,291.5,109.2,291.5z"/>
	</g>
	<g>
		<path class="st1" d="M51.8,130.5C51.8,130.5,51.8,130.6,51.8,130.5c-0.1,0.1-0.1,0.1-0.2,0.1c0,0-0.1,0-0.2-0.1
			c-0.1,0-0.1-0.1-0.2-0.2c-0.1-0.1-0.2-0.1-0.5-0.2c-0.1,0-0.3-0.1-0.6-0.1c-0.2,0-0.3,0-0.6,0.1c-0.1,0-0.3,0.1-0.5,0.2
			c-0.1,0.1-0.2,0.2-0.2,0.3s-0.1,0.2-0.1,0.5s0,0.3,0.1,0.5c0.1,0.1,0.2,0.2,0.3,0.3c0.1,0.1,0.3,0.1,0.6,0.2
			c0.2,0.1,0.5,0.1,0.6,0.2c0.2,0.1,0.5,0.1,0.6,0.2c0.2,0.1,0.3,0.2,0.6,0.3c0.1,0.1,0.2,0.3,0.3,0.5c0.1,0.2,0.1,0.5,0.1,0.7
			c0,0.3,0,0.6-0.1,0.8c-0.1,0.2-0.2,0.5-0.5,0.7c-0.2,0.2-0.5,0.3-0.7,0.5c-0.3,0.1-0.6,0.1-1,0.1s-0.8-0.1-1.3-0.2
			c-0.3-0.1-0.7-0.3-0.9-0.7l0.2-0.5c0,0,0-0.1,0.1-0.1h0.1c0.1,0,0.1,0,0.2,0.1c0.1,0.1,0.2,0.1,0.3,0.2c0.1,0.1,0.3,0.1,0.5,0.2
			c0.2,0.1,0.5,0.1,0.7,0.1c0.2,0,0.5,0,0.6-0.1c0.2-0.1,0.3-0.1,0.5-0.2c0.1-0.1,0.2-0.2,0.2-0.3c0.1-0.1,0.1-0.3,0.1-0.6
			s0-0.3-0.1-0.5c-0.1-0.1-0.2-0.2-0.3-0.3c-0.1-0.1-0.3-0.1-0.6-0.2c-0.2-0.1-0.3-0.1-0.6-0.2c-0.2-0.1-0.5-0.1-0.6-0.2
			c-0.2-0.1-0.3-0.2-0.6-0.3c-0.1-0.1-0.2-0.3-0.3-0.6c-0.1-0.2-0.1-0.5-0.1-0.8c0-0.2,0-0.5,0.1-0.7c0.1-0.2,0.2-0.5,0.5-0.6
			c0.2-0.2,0.5-0.3,0.7-0.5c0.2-0.1,0.6-0.1,0.9-0.1c0.3,0,0.7,0.1,1,0.2c0.3,0.1,0.6,0.3,0.8,0.6L51.8,130.5z"/>
		<path class="st1" d="M56.8,131.7c0,0.1,0,0.1,0,0.2s0,0.1-0.1,0.1l-2.7,3.6h2.7v0.7h-3.7V136v-0.1c0,0,0-0.1,0.1-0.1l2.7-3.6h-2.7
			v-0.7h3.7V131.7z"/>
		<path class="st1" d="M61.2,132.3L61.2,132.3c-0.1,0.1-0.1,0.1-0.2,0.1s-0.1,0-0.1-0.1c0,0-0.1-0.1-0.2-0.1c-0.1,0-0.2-0.1-0.3-0.1
			c-0.1,0-0.2-0.1-0.5-0.1s-0.5,0-0.7,0.1c-0.2,0.1-0.3,0.2-0.5,0.3c-0.1,0.1-0.2,0.3-0.2,0.6c-0.1,0.2-0.1,0.5-0.1,0.8
			c0,0.3,0,0.6,0.1,0.8c0.1,0.2,0.1,0.5,0.2,0.6c0.1,0.1,0.2,0.2,0.5,0.3c0.2,0.1,0.3,0.1,0.6,0.1c0.2,0,0.3,0,0.6-0.1
			c0.1,0,0.2-0.1,0.3-0.1c0.1-0.1,0.1-0.1,0.2-0.1c0.1,0,0.1-0.1,0.2-0.1c0.1,0,0.1,0,0.1,0.1l0.2,0.3c-0.2,0.2-0.5,0.5-0.8,0.6
			s-0.7,0.2-1,0.2c-0.3,0-0.6,0-0.8-0.1c-0.2-0.1-0.5-0.2-0.7-0.5c-0.2-0.2-0.3-0.5-0.5-0.8c-0.1-0.3-0.1-0.7-0.1-1
			c0-0.3,0-0.7,0.1-1c0.1-0.3,0.2-0.6,0.5-0.8c0.2-0.2,0.5-0.3,0.7-0.6c0.3-0.1,0.6-0.2,1-0.2c0.3,0,0.7,0,0.9,0.1
			c0.2,0.1,0.5,0.2,0.7,0.5L61.2,132.3z"/>
		<path class="st1" d="M65.8,131.7c0,0.1,0,0.1,0,0.2s0,0.1-0.1,0.1l-2.7,3.6h2.7v0.7H62V136v-0.1c0,0,0-0.1,0.1-0.1l2.7-3.6h-2.7
			v-0.7h3.7V131.7z"/>
		<path class="st1" d="M68.8,131.4c0.3,0,0.6,0,0.8,0.1c0.2,0.1,0.5,0.2,0.7,0.5c0.2,0.2,0.3,0.5,0.5,0.7c0.1,0.2,0.1,0.6,0.1,0.9
			c0,0.1,0,0.2,0,0.2l-0.1,0.1h-3.2c0,0.3,0,0.6,0.1,0.8s0.2,0.5,0.3,0.6c0.1,0.1,0.3,0.2,0.5,0.3c0.2,0.1,0.3,0.1,0.6,0.1
			c0.2,0,0.5,0,0.6-0.1c0.1,0,0.3-0.1,0.5-0.1c0.1-0.1,0.2-0.1,0.2-0.1c0.1,0,0.1-0.1,0.2-0.1c0.1,0,0.1,0,0.1,0.1l0.2,0.3
			c-0.1,0.1-0.2,0.2-0.3,0.3s-0.3,0.2-0.5,0.2c-0.1,0.1-0.3,0.1-0.6,0.1s-0.3,0-0.6,0c-0.3,0-0.7-0.1-0.9-0.2
			c-0.2-0.1-0.6-0.2-0.7-0.5s-0.3-0.5-0.5-0.8c-0.1-0.3-0.2-0.7-0.2-1.2c0-0.3,0-0.7,0.1-0.9c0.1-0.3,0.2-0.6,0.5-0.8
			s0.5-0.3,0.7-0.5C68.1,131.4,68.5,131.4,68.8,131.4z M68.8,132c-0.5,0-0.7,0.1-1,0.3c-0.2,0.2-0.3,0.6-0.5,1H70
			c0-0.2,0-0.3-0.1-0.6c0-0.1-0.1-0.3-0.2-0.5c-0.1-0.1-0.2-0.2-0.3-0.2C69.3,132,69,132,68.8,132z"/>
		<path class="st1" d="M75.4,132.3C75.4,132.3,75.3,132.3,75.4,132.3c-0.1,0.1-0.1,0.1-0.2,0.1c-0.1,0-0.1,0-0.1-0.1
			c0,0-0.1-0.1-0.2-0.1c-0.1,0-0.2-0.1-0.3-0.1c-0.1,0-0.2-0.1-0.5-0.1s-0.5,0-0.7,0.1c-0.2,0.1-0.3,0.2-0.5,0.3
			c-0.1,0.1-0.2,0.3-0.2,0.6c-0.1,0.2-0.1,0.5-0.1,0.8c0,0.3,0,0.6,0.1,0.8c0.1,0.2,0.1,0.5,0.2,0.6c0.1,0.1,0.2,0.2,0.5,0.3
			s0.3,0.1,0.6,0.1s0.3,0,0.6-0.1c0.1,0,0.2-0.1,0.3-0.1c0.1-0.1,0.1-0.1,0.2-0.1c0.1,0,0.1-0.1,0.2-0.1c0.1,0,0.1,0,0.1,0.1
			l0.2,0.3c-0.2,0.2-0.5,0.5-0.8,0.6c-0.3,0.1-0.7,0.2-1,0.2c-0.3,0-0.6,0-0.8-0.1s-0.5-0.2-0.7-0.5c-0.2-0.2-0.3-0.5-0.5-0.8
			c-0.1-0.3-0.1-0.7-0.1-1c0-0.3,0-0.7,0.1-1c0.1-0.3,0.2-0.6,0.5-0.8s0.5-0.3,0.7-0.6c0.3-0.1,0.6-0.2,1-0.2c0.3,0,0.7,0,0.9,0.1
			c0.2,0.1,0.5,0.2,0.7,0.5L75.4,132.3z"/>
		<path class="st1" d="M77.7,129.9c0,0.1,0,0.1,0,0.2c0,0.1-0.1,0.1-0.1,0.2s-0.1,0.1-0.2,0.1c-0.1,0-0.1,0-0.2,0s-0.1,0-0.2,0
			c-0.1,0-0.1-0.1-0.2-0.1s-0.1-0.1-0.1-0.2c0-0.1,0-0.1,0-0.2c0-0.1,0-0.1,0-0.2c0-0.1,0.1-0.1,0.1-0.2s0.1-0.1,0.2-0.1
			c0.1,0,0.1,0,0.2,0s0.1,0,0.2,0c0.1,0,0.1,0.1,0.2,0.1s0.1,0.1,0.1,0.2C77.7,129.6,77.7,129.8,77.7,129.9z M77.5,131.4v5h-0.9v-5
			H77.5z"/>
		<path class="st1" d="M79.1,136.4v-5h0.5c0.1,0,0.2,0.1,0.2,0.2l0.1,0.6c0.2-0.2,0.5-0.5,0.7-0.6c0.2-0.1,0.6-0.2,0.9-0.2
			c0.2,0,0.5,0,0.7,0.1c0.2,0.1,0.3,0.2,0.5,0.3c0.1,0.1,0.2,0.3,0.3,0.6c0.1,0.2,0.1,0.5,0.1,0.8v3.1h-0.9v-3.1
			c0-0.3-0.1-0.7-0.2-0.9c-0.1-0.2-0.5-0.3-0.8-0.3c-0.2,0-0.5,0.1-0.7,0.2c-0.2,0.1-0.5,0.3-0.6,0.5v3.7L79.1,136.4L79.1,136.4z"/>
	</g>
	<g>
		<path class="st1" d="M102.2,82.8h0.3c0.1,0,0.2,0,0.3,0c0.1,0,0.1-0.1,0.2-0.1l2.3-2.7c0.1-0.1,0.1-0.1,0.2-0.1c0.1,0,0.1,0,0.2,0
			h0.8l-2.7,3c-0.1,0.1-0.1,0.1-0.2,0.2c-0.1,0-0.1,0.1-0.2,0.1c0.1,0,0.1,0.1,0.2,0.1c0.1,0.1,0.1,0.1,0.2,0.2l2.8,3.4H106
			c-0.1,0-0.1,0-0.1,0h-0.1c0,0-0.1,0-0.1-0.1c0,0,0,0-0.1-0.1l-2.4-2.8l-0.1-0.1c0,0-0.1,0-0.1-0.1s-0.1,0-0.1,0s-0.1,0-0.2,0h-0.5
			V87h-0.9v-7.1h0.9v2.9H102.2z"/>
		<path class="st1" d="M109.5,81.8c0.3,0,0.7,0.1,0.9,0.2c0.3,0.1,0.6,0.3,0.7,0.5c0.2,0.2,0.3,0.5,0.5,0.8c0.1,0.3,0.1,0.7,0.1,1
			c0,0.3,0,0.7-0.1,1c-0.1,0.3-0.2,0.6-0.5,0.8c-0.2,0.2-0.5,0.3-0.7,0.5c-0.3,0.1-0.6,0.2-0.9,0.2c-0.3,0-0.7-0.1-0.9-0.2
			c-0.3-0.1-0.6-0.2-0.7-0.5c-0.2-0.2-0.3-0.5-0.5-0.8c-0.1-0.3-0.1-0.7-0.1-1c0-0.3,0-0.7,0.1-1c0.1-0.3,0.2-0.6,0.5-0.8
			s0.5-0.3,0.7-0.5C108.8,81.9,109.1,81.8,109.5,81.8z M109.5,86.2c0.5,0,0.8-0.1,1-0.5c0.2-0.3,0.3-0.8,0.3-1.4
			c0-0.6-0.1-1-0.3-1.4c-0.2-0.3-0.6-0.5-1-0.5c-0.2,0-0.5,0-0.7,0.1c-0.2,0.1-0.3,0.2-0.5,0.3c-0.1,0.1-0.2,0.3-0.2,0.6
			c-0.1,0.2-0.1,0.5-0.1,0.8c0,0.3,0,0.6,0.1,0.8s0.1,0.5,0.2,0.6c0.1,0.1,0.2,0.2,0.5,0.3C109,86.2,109.3,86.2,109.5,86.2z"/>
		<path class="st1" d="M115.7,82.7c0,0.1-0.1,0.1-0.2,0.1h-0.1c-0.1,0-0.1-0.1-0.2-0.1c-0.1,0-0.2-0.1-0.3-0.1s-0.2,0-0.5,0
			c-0.1,0-0.2,0-0.3,0s-0.2,0.1-0.3,0.1c-0.1,0.1-0.1,0.1-0.2,0.2s-0.1,0.2-0.1,0.2c0,0.1,0,0.2,0.1,0.3c0.1,0.1,0.1,0.1,0.3,0.2
			c0.1,0.1,0.2,0.1,0.5,0.1c0.1,0,0.3,0.1,0.5,0.1c0.1,0,0.3,0.1,0.5,0.2c0.1,0.1,0.3,0.1,0.5,0.2s0.2,0.2,0.3,0.3s0.1,0.3,0.1,0.5
			c0,0.2,0,0.5-0.1,0.6c-0.1,0.2-0.2,0.3-0.3,0.5c-0.1,0.1-0.3,0.2-0.6,0.3c-0.2,0.1-0.5,0.1-0.8,0.1c-0.3,0-0.7,0-0.9-0.1
			c-0.2-0.1-0.5-0.2-0.7-0.5l0.2-0.3c0,0,0-0.1,0.1-0.1h0.1c0.1,0,0.1,0,0.2,0.1c0.1,0,0.1,0.1,0.2,0.1c0.1,0,0.2,0.1,0.3,0.1
			c0.1,0,0.3,0.1,0.5,0.1c0.1,0,0.3,0,0.5-0.1c0.1,0,0.2-0.1,0.3-0.2c0.1-0.1,0.1-0.1,0.2-0.2c0-0.1,0.1-0.2,0.1-0.3s0-0.2-0.1-0.3
			c-0.1-0.1-0.1-0.1-0.3-0.2c-0.1-0.1-0.2-0.1-0.5-0.1c-0.1,0-0.3-0.1-0.5-0.1c-0.1,0-0.3-0.1-0.5-0.2c-0.1-0.1-0.3-0.1-0.5-0.2
			c-0.1-0.1-0.2-0.2-0.3-0.3s-0.1-0.3-0.1-0.6s0-0.3,0.1-0.6c0.1-0.2,0.2-0.3,0.3-0.5c0.1-0.1,0.3-0.2,0.6-0.3
			c0.2-0.1,0.5-0.1,0.7-0.1c0.3,0,0.6,0,0.9,0.1c0.2,0.1,0.5,0.2,0.7,0.5L115.7,82.7z"/>
		<path class="st1" d="M120.6,82.3c0,0.1,0,0.1,0,0.2c0,0,0,0.1-0.1,0.1l-2.7,3.6h2.7v0.7h-3.7v-0.5v-0.1c0,0,0-0.1,0.1-0.1l2.7-3.6
			h-2.7v-0.7h3.7V82.3z"/>
		<path class="st1" d="M125.4,86.8H125c-0.1,0-0.1,0-0.2,0l-0.1-0.1l-0.1-0.5c-0.1,0.1-0.2,0.2-0.3,0.3c-0.1,0.1-0.2,0.1-0.3,0.2
			c-0.1,0.1-0.2,0.1-0.5,0.1c-0.1,0-0.3,0-0.5,0c-0.2,0-0.3,0-0.6-0.1c-0.1,0-0.3-0.1-0.5-0.2c-0.1-0.1-0.2-0.2-0.3-0.5
			c-0.1-0.1-0.1-0.3-0.1-0.6s0-0.3,0.1-0.6c0.1-0.2,0.2-0.3,0.5-0.5c0.2-0.1,0.6-0.2,0.9-0.3c0.3-0.1,0.8-0.1,1.4-0.1v-0.3
			c0-0.3-0.1-0.7-0.2-0.9c-0.1-0.2-0.5-0.3-0.7-0.3c-0.2,0-0.3,0-0.6,0.1c-0.1,0-0.2,0.1-0.3,0.2c-0.1,0.1-0.2,0.1-0.2,0.2
			c-0.1,0-0.1,0.1-0.2,0.1c-0.1,0-0.1,0-0.1,0l-0.1-0.1l-0.1-0.2c0.2-0.2,0.6-0.5,0.9-0.6c0.3-0.1,0.7-0.2,1-0.2
			c0.2,0,0.6,0,0.7,0.1c0.2,0.1,0.3,0.2,0.6,0.3c0.1,0.1,0.2,0.3,0.3,0.6c0.1,0.2,0.1,0.5,0.1,0.8L125.4,86.8L125.4,86.8z M123,86.3
			c0.1,0,0.3,0,0.5,0c0.1,0,0.2-0.1,0.3-0.1s0.2-0.1,0.3-0.2c0.1-0.1,0.2-0.2,0.3-0.2v-1c-0.3,0-0.7,0-1,0.1c-0.2,0-0.5,0.1-0.7,0.2
			c-0.2,0.1-0.3,0.2-0.3,0.2c-0.1,0.1-0.1,0.2-0.1,0.3s0,0.2,0.1,0.3c0,0.1,0.1,0.1,0.1,0.2c0.1,0.1,0.1,0.1,0.2,0.1
			C122.8,86.3,122.9,86.3,123,86.3z"/>
		<path class="st1" d="M127.7,79.6v7.2h-0.9v-7.2H127.7z"/>
		<path class="st1" d="M130.3,80.3c0,0.1,0,0.1,0,0.2c0,0.1-0.1,0.1-0.1,0.2c0,0-0.1,0.1-0.2,0.1c-0.1,0-0.1,0-0.2,0s-0.1,0-0.2,0
			s-0.1-0.1-0.2-0.1c0,0-0.1-0.1-0.1-0.2c0-0.1,0-0.1,0-0.2c0-0.1,0-0.1,0-0.2c0-0.1,0.1-0.1,0.1-0.2c0,0,0.1-0.1,0.2-0.1
			s0.1,0,0.2,0s0.1,0,0.2,0c0.1,0,0.1,0.1,0.2,0.1c0,0,0.1,0.1,0.1,0.2C130.3,80.2,130.3,80.3,130.3,80.3z M130.1,81.9v5h-0.9v-5
			H130.1z"/>
		<path class="st1" d="M131.6,86.8v-5h0.5c0.1,0,0.2,0.1,0.2,0.2l0.1,0.6c0.2-0.2,0.5-0.5,0.7-0.6c0.2-0.1,0.6-0.2,0.9-0.2
			c0.2,0,0.5,0,0.7,0.1c0.2,0.1,0.3,0.2,0.5,0.3s0.2,0.3,0.3,0.6c0.1,0.2,0.1,0.5,0.1,0.8v3.1H135v-3.1c0-0.3-0.1-0.7-0.2-0.9
			c-0.1-0.2-0.5-0.3-0.8-0.3c-0.2,0-0.5,0.1-0.7,0.2c-0.2,0.1-0.5,0.3-0.6,0.5v3.7L131.6,86.8L131.6,86.8z"/>
	</g>
	<g>
		<path class="st1" d="M202.3,38.3c0.2,0,0.3,0,0.5,0c0.1,0,0.3,0,0.5-0.1c0.1,0,0.2-0.1,0.3-0.1s0.2-0.1,0.3-0.2v-1.5h-1
			c-0.1,0-0.1,0-0.1,0v-0.1v-0.6h2.2v2.7c-0.2,0.1-0.3,0.2-0.6,0.3c-0.2,0.1-0.3,0.1-0.6,0.2c-0.2,0.1-0.5,0.1-0.7,0.1
			c-0.2,0-0.5,0-0.8,0c-0.5,0-0.9-0.1-1.4-0.2c-0.5-0.2-0.8-0.5-1-0.7c-0.3-0.3-0.6-0.7-0.7-1.2c-0.1-0.5-0.2-0.9-0.2-1.5
			c0-0.6,0.1-1,0.2-1.5c0.1-0.5,0.5-0.8,0.7-1.2c0.3-0.3,0.7-0.6,1.2-0.7s0.9-0.2,1.5-0.2c0.2,0,0.6,0,0.8,0.1
			c0.2,0,0.5,0.1,0.7,0.2c0.2,0.1,0.3,0.1,0.6,0.2c0.1,0.1,0.3,0.2,0.5,0.3l-0.2,0.5c0,0.1-0.1,0.1-0.2,0.1h-0.1
			c-0.1,0-0.1-0.1-0.2-0.1c-0.1-0.1-0.2-0.1-0.3-0.2c-0.1-0.1-0.3-0.1-0.5-0.1c-0.2,0-0.5-0.1-0.7-0.1c-0.3,0-0.7,0.1-1,0.2
			c-0.3,0.1-0.6,0.3-0.8,0.6c-0.2,0.2-0.3,0.6-0.5,0.9s-0.2,0.7-0.2,1.2s0.1,0.8,0.2,1.2s0.3,0.7,0.6,0.9c0.2,0.2,0.5,0.5,0.8,0.6
			C201.6,38.2,201.9,38.3,202.3,38.3z"/>
		<path class="st1" d="M209.7,39c-0.1,0-0.2-0.1-0.2-0.2l-0.1-0.6c-0.2,0.2-0.5,0.5-0.7,0.6c-0.2,0.1-0.6,0.2-0.9,0.2
			c-0.2,0-0.6,0-0.8-0.1c-0.2-0.1-0.5-0.2-0.6-0.5c-0.1-0.2-0.2-0.5-0.3-0.8c-0.1-0.3-0.1-0.7-0.1-1s0-0.7,0.1-1s0.2-0.6,0.5-0.8
			c0.2-0.2,0.5-0.5,0.7-0.6s0.6-0.2,0.9-0.2c0.3,0,0.6,0,0.8,0.1c0.2,0.1,0.5,0.2,0.6,0.5v-2.8h0.9v7.2h-0.7V39z M208,38.3
			c0.2,0,0.6-0.1,0.7-0.2c0.2-0.1,0.5-0.3,0.6-0.6v-2.4c-0.1-0.2-0.3-0.3-0.6-0.5s-0.3-0.1-0.6-0.1c-0.5,0-0.8,0.1-1,0.5
			c-0.2,0.3-0.3,0.8-0.3,1.4c0,0.3,0,0.6,0.1,0.8c0,0.2,0.1,0.5,0.2,0.6c0.1,0.1,0.2,0.2,0.3,0.3C207.6,38.3,207.8,38.3,208,38.3z"
			/>
		<path class="st1" d="M213.2,40.4c0,0.1-0.1,0.1-0.1,0.1s-0.1,0-0.2,0h-0.7l0.9-2l-2.1-4.6h0.8c0.1,0,0.1,0,0.2,0l0.1,0.1l1.3,3.1
			c0,0.1,0,0.1,0.1,0.2c0,0.1,0,0.1,0,0.2c0-0.1,0-0.1,0.1-0.2c0-0.1,0-0.1,0.1-0.2l1.3-3.1c0,0,0-0.1,0.1-0.1h0.1h0.7L213.2,40.4z"
			/>
		<path class="st1" d="M216.6,39v-5h0.5c0.1,0,0.2,0.1,0.2,0.2l0.1,0.6c0.2-0.2,0.5-0.5,0.7-0.6s0.6-0.2,0.9-0.2
			c0.2,0,0.5,0,0.7,0.1c0.2,0.1,0.3,0.2,0.5,0.3c0.1,0.1,0.2,0.3,0.3,0.6c0.1,0.2,0.1,0.5,0.1,0.8V39h-0.9v-3.1
			c0-0.3-0.1-0.7-0.2-0.9c-0.1-0.2-0.5-0.3-0.8-0.3c-0.2,0-0.5,0.1-0.7,0.2c-0.2,0.1-0.5,0.3-0.6,0.5V39L216.6,39L216.6,39z"/>
		<path class="st1" d="M223.3,32.4c0,0.1,0,0.1,0,0.2s-0.1,0.1-0.1,0.2c0,0-0.1,0.1-0.2,0.1s-0.1,0-0.2,0c-0.1,0-0.1,0-0.2,0
			s-0.1-0.1-0.2-0.1c0,0-0.1-0.1-0.1-0.2s0-0.1,0-0.2c0-0.1,0-0.1,0-0.2s0.1-0.1,0.1-0.2c0,0,0.1-0.1,0.2-0.1s0.1,0,0.2,0
			c0.1,0,0.1,0,0.2,0s0.1,0.1,0.2,0.1c0,0,0.1,0.1,0.1,0.2S223.3,32.4,223.3,32.4z M223.1,34.1v5h-0.9v-5H223.1z"/>
		<path class="st1" d="M228.2,39h-0.3c-0.1,0-0.1,0-0.2,0l-0.1-0.1l-0.1-0.5c-0.1,0.1-0.2,0.2-0.3,0.3c-0.1,0.1-0.2,0.1-0.3,0.2
			c-0.1,0.1-0.2,0.1-0.5,0.1c-0.1,0-0.3,0-0.5,0c-0.2,0-0.3,0-0.6-0.1c-0.1,0-0.3-0.1-0.5-0.2c-0.1-0.1-0.2-0.2-0.3-0.5
			c-0.1-0.1-0.1-0.3-0.1-0.6c0-0.2,0-0.3,0.1-0.6c0.1-0.2,0.2-0.3,0.5-0.5c0.2-0.1,0.6-0.2,0.9-0.3c0.3-0.1,0.8-0.1,1.4-0.1v-0.3
			c0-0.3-0.1-0.7-0.2-0.9c-0.1-0.2-0.5-0.3-0.7-0.3s-0.3,0-0.6,0.1c-0.1,0-0.2,0.1-0.3,0.2c-0.1,0.1-0.2,0.1-0.2,0.2
			c-0.1,0-0.1,0.1-0.2,0.1s-0.1,0-0.1,0l-0.1-0.1l-0.1-0.2c0.2-0.2,0.6-0.5,0.9-0.6s0.7-0.2,1-0.2c0.2,0,0.6,0,0.7,0.1
			c0.1,0.1,0.3,0.2,0.6,0.3c0.1,0.1,0.2,0.3,0.3,0.6c0.1,0.2,0.1,0.5,0.1,0.8L228.2,39L228.2,39z M226,38.5c0.1,0,0.3,0,0.5,0
			s0.2-0.1,0.3-0.1c0.1,0,0.2-0.1,0.3-0.2c0.1-0.1,0.2-0.2,0.3-0.2v-1c-0.3,0-0.7,0-1,0.1c-0.2,0-0.5,0.1-0.7,0.2
			c-0.2,0.1-0.3,0.2-0.3,0.2c-0.1,0.1-0.1,0.2-0.1,0.3c0,0.1,0,0.2,0.1,0.3c0,0.1,0.1,0.1,0.1,0.2c0.1,0.1,0.1,0.1,0.2,0.1
			C225.8,38.5,225.9,38.5,226,38.5z"/>
	</g>
	<g>
		<path class="st1" d="M220.7,52C220.7,52.1,220.6,52.1,220.7,52c-0.1,0.1-0.1,0.1-0.2,0.1c0,0-0.1,0-0.2-0.1
			c-0.1,0-0.1-0.1-0.2-0.2c-0.1-0.1-0.2-0.1-0.5-0.2c-0.1,0-0.3-0.1-0.6-0.1s-0.3,0-0.6,0.1c-0.1,0-0.3,0.1-0.5,0.2
			c-0.1,0.1-0.2,0.2-0.2,0.3c0,0.1-0.1,0.2-0.1,0.5c0,0.2,0,0.3,0.1,0.5s0.2,0.2,0.3,0.3c0.1,0.1,0.3,0.1,0.6,0.2
			c0.2,0.1,0.5,0.1,0.6,0.2c0.2,0.1,0.5,0.1,0.6,0.2c0.2,0.1,0.3,0.2,0.6,0.3c0.1,0.1,0.2,0.3,0.3,0.5c0.1,0.2,0.1,0.5,0.1,0.7
			c0,0.3,0,0.6-0.1,0.8c-0.1,0.2-0.2,0.5-0.5,0.7c-0.2,0.2-0.5,0.3-0.7,0.5c-0.3,0.1-0.6,0.1-1,0.1c-0.5,0-0.8-0.1-1.3-0.2
			c-0.3-0.1-0.7-0.3-0.9-0.7l0.2-0.5c0,0,0-0.1,0.1-0.1h0.1c0.1,0,0.1,0,0.2,0.1c0.1,0.1,0.2,0.1,0.3,0.2c0.1,0.1,0.3,0.1,0.5,0.2
			c0.1,0.1,0.5,0.1,0.7,0.1s0.5,0,0.6-0.1c0.2-0.1,0.3-0.1,0.5-0.2c0.1-0.1,0.2-0.2,0.2-0.3c0.1-0.1,0.1-0.3,0.1-0.6
			c0-0.2,0-0.3-0.1-0.5c-0.1-0.1-0.2-0.2-0.3-0.3c-0.1-0.1-0.3-0.1-0.6-0.2c-0.2-0.1-0.3-0.1-0.6-0.2c-0.2-0.1-0.5-0.1-0.6-0.2
			c-0.2-0.1-0.3-0.2-0.6-0.3c-0.1-0.1-0.2-0.3-0.3-0.6c-0.1-0.2-0.1-0.5-0.1-0.8c0-0.2,0-0.5,0.1-0.7c0.1-0.2,0.2-0.5,0.5-0.6
			c0.2-0.2,0.5-0.3,0.7-0.5c0.2-0.1,0.6-0.1,0.9-0.1s0.7,0.1,1,0.2s0.6,0.3,0.8,0.6V52z"/>
		<path class="st1" d="M224.2,52.9c0.3,0,0.7,0.1,0.9,0.2c0.3,0.1,0.6,0.3,0.7,0.5c0.2,0.2,0.3,0.5,0.5,0.8c0.1,0.3,0.1,0.7,0.1,1
			s0,0.7-0.1,1s-0.2,0.6-0.5,0.8c-0.2,0.2-0.5,0.3-0.7,0.5c-0.3,0.1-0.6,0.2-0.9,0.2s-0.7-0.1-0.9-0.2c-0.2-0.1-0.6-0.2-0.7-0.5
			c-0.2-0.2-0.3-0.5-0.5-0.8c-0.1-0.3-0.1-0.7-0.1-1s0-0.7,0.1-1c0.1-0.3,0.2-0.6,0.5-0.8c0.2-0.2,0.5-0.3,0.7-0.5
			C223.5,52.9,223.8,52.9,224.2,52.9z M224.2,57.3c0.5,0,0.8-0.1,1-0.5s0.3-0.8,0.3-1.4c0-0.6-0.1-1-0.3-1.4c-0.2-0.3-0.6-0.5-1-0.5
			c-0.2,0-0.5,0-0.7,0.1s-0.3,0.2-0.5,0.3c-0.1,0.1-0.2,0.3-0.2,0.6c-0.1,0.2-0.1,0.5-0.1,0.8c0,0.3,0,0.6,0.1,0.8
			c0.1,0.2,0.1,0.5,0.2,0.6c0.1,0.1,0.2,0.2,0.5,0.3C223.7,57.3,223.9,57.3,224.2,57.3z"/>
		<path class="st1" d="M227.5,59.7v-6.6h0.5c0.1,0,0.2,0.1,0.2,0.2l0.1,0.6c0.2-0.2,0.5-0.5,0.7-0.6c0.2-0.1,0.6-0.2,0.9-0.2
			c0.2,0,0.6,0,0.8,0.1c0.2,0.1,0.5,0.2,0.6,0.5c0.1,0.2,0.2,0.5,0.3,0.8c0.1,0.3,0.1,0.7,0.1,1s0,0.7-0.1,1s-0.2,0.6-0.5,0.8
			c-0.2,0.2-0.5,0.5-0.7,0.6c-0.2,0.1-0.6,0.2-0.9,0.2s-0.6,0-0.8-0.1c-0.2-0.1-0.5-0.2-0.6-0.5v2.2h-0.7V59.7z M229.7,53.6
			c-0.2,0-0.6,0.1-0.7,0.2c-0.2,0.1-0.5,0.3-0.6,0.6v2.4c0.1,0.2,0.3,0.3,0.6,0.5c0.2,0.1,0.3,0.1,0.7,0.1c0.5,0,0.8-0.1,1-0.5
			c0.2-0.3,0.3-0.8,0.3-1.4c0-0.3,0-0.6-0.1-0.8c0-0.2-0.1-0.5-0.2-0.6s-0.2-0.2-0.3-0.3C230.2,53.6,230,53.6,229.7,53.6z"/>
		<path class="st1" d="M235,52.9c0.3,0,0.7,0.1,0.9,0.2c0.3,0.1,0.6,0.3,0.7,0.5c0.2,0.2,0.3,0.5,0.5,0.8c0.1,0.3,0.1,0.7,0.1,1
			s0,0.7-0.1,1s-0.2,0.6-0.5,0.8c-0.2,0.2-0.5,0.3-0.7,0.5c-0.3,0.1-0.6,0.2-0.9,0.2s-0.7-0.1-0.9-0.2c-0.2-0.1-0.6-0.2-0.7-0.5
			c-0.2-0.2-0.3-0.5-0.5-0.8c-0.1-0.3-0.1-0.7-0.1-1s0-0.7,0.1-1s0.2-0.6,0.5-0.8c0.2-0.2,0.5-0.3,0.7-0.5
			C234.3,52.9,234.6,52.9,235,52.9z M235,57.3c0.5,0,0.8-0.1,1-0.5s0.3-0.8,0.3-1.4c0-0.6-0.1-1-0.3-1.4c-0.2-0.3-0.6-0.5-1-0.5
			c-0.2,0-0.5,0-0.7,0.1c-0.2,0.1-0.3,0.2-0.5,0.3c-0.1,0.1-0.2,0.3-0.2,0.6c-0.1,0.2-0.1,0.5-0.1,0.8c0,0.3,0,0.6,0.1,0.8
			c0.1,0.2,0.1,0.5,0.2,0.6c0.1,0.1,0.2,0.2,0.5,0.3C234.5,57.3,234.7,57.3,235,57.3z"/>
		<path class="st1" d="M239.9,58c-0.3,0-0.7-0.1-0.9-0.3c-0.2-0.2-0.3-0.6-0.3-0.9v-3h-0.6H238v-0.1v-0.3l0.8-0.1l0.2-1.5
			c0,0,0-0.1,0.1-0.1h0.1h0.5v1.7h1.4v0.6h-1.4v3c0,0.2,0,0.3,0.1,0.5c0.1,0.1,0.2,0.1,0.3,0.1c0.1,0,0.1,0,0.2,0s0.1,0,0.1-0.1
			c0,0,0.1,0,0.1-0.1h0.1c0,0,0.1,0,0.1,0.1l0.2,0.5c-0.1,0.1-0.3,0.2-0.6,0.3C240.4,58,240.2,58,239.9,58z"/>
	</g>
	<g>
		<path class="st1" d="M244.5,71.8c0.2,0,0.3,0,0.5,0s0.3,0,0.5-0.1c0.1,0,0.2-0.1,0.3-0.1c0.1,0,0.2-0.1,0.3-0.2v-1.5h-1
			c-0.1,0-0.1,0-0.1,0v-0.1v-0.6h2.2v2.7c-0.2,0.1-0.3,0.2-0.6,0.3s-0.3,0.1-0.6,0.2c-0.2,0.1-0.5,0.1-0.7,0.1c-0.2,0-0.5,0-0.8,0
			c-0.5,0-0.9-0.1-1.4-0.2c-0.5-0.2-0.8-0.5-1-0.7c-0.2-0.2-0.6-0.7-0.7-1.2c-0.1-0.5-0.2-0.9-0.2-1.5s0.1-1,0.2-1.5
			c0.1-0.5,0.5-0.8,0.7-1.2c0.3-0.3,0.7-0.6,1.2-0.7s0.9-0.2,1.5-0.2c0.2,0,0.6,0,0.8,0.1c0.2,0,0.5,0.1,0.7,0.2
			c0.2,0.1,0.3,0.1,0.6,0.2c0.2,0.1,0.3,0.2,0.5,0.3l-0.2,0.5c0,0.1-0.1,0.1-0.2,0.1h-0.1c-0.1,0-0.2-0.1-0.2-0.1
			c-0.1-0.1-0.2-0.1-0.3-0.2c-0.1-0.1-0.3-0.1-0.5-0.1c-0.2,0-0.5-0.1-0.7-0.1c-0.3,0-0.7,0.1-1,0.2c-0.3,0.1-0.6,0.3-0.8,0.6
			c-0.2,0.2-0.3,0.6-0.5,0.9c-0.1,0.3-0.2,0.7-0.2,1.2c0,0.5,0.1,0.8,0.2,1.2c0.1,0.3,0.3,0.7,0.6,0.9c0.2,0.2,0.5,0.5,0.8,0.6
			C243.8,71.7,244.1,71.8,244.5,71.8z"/>
		<path class="st1" d="M251.9,72.5c-0.1,0-0.2-0.1-0.2-0.2l-0.1-0.6c-0.2,0.2-0.5,0.5-0.7,0.6c-0.2,0.1-0.6,0.2-0.9,0.2
			c-0.2,0-0.6,0-0.8-0.1c-0.2-0.1-0.5-0.2-0.6-0.5c-0.1-0.2-0.2-0.5-0.3-0.8c-0.1-0.3-0.1-0.7-0.1-1c0-0.3,0-0.7,0.1-1
			c0.1-0.3,0.2-0.6,0.5-0.8c0.2-0.2,0.5-0.5,0.7-0.6c0.2-0.1,0.6-0.2,0.9-0.2s0.6,0,0.8,0.1c0.2,0.1,0.5,0.2,0.6,0.5v-2.8h0.9v7.2
			h-0.7V72.5z M250.1,71.8c0.2,0,0.6-0.1,0.7-0.2c0.2-0.1,0.5-0.3,0.6-0.6v-2.4c-0.1-0.2-0.3-0.3-0.6-0.5c-0.2-0.1-0.3-0.1-0.6-0.1
			c-0.5,0-0.8,0.1-1,0.5c-0.2,0.3-0.3,0.8-0.3,1.4c0,0.3,0,0.6,0.1,0.8c0.1,0.2,0.1,0.5,0.2,0.6c0.1,0.1,0.2,0.2,0.3,0.3
			C249.8,71.8,249.9,71.8,250.1,71.8z"/>
		<path class="st1" d="M257.4,72.5h-0.3c-0.1,0-0.1,0-0.2,0l-0.1-0.1l-0.1-0.5c-0.1,0.1-0.2,0.2-0.3,0.3c-0.1,0.1-0.2,0.1-0.3,0.2
			c-0.1,0.1-0.2,0.1-0.5,0.1c-0.1,0-0.3,0-0.5,0c-0.2,0-0.3,0-0.6-0.1c-0.1,0-0.3-0.1-0.5-0.2s-0.2-0.2-0.3-0.5
			c-0.1-0.1-0.1-0.3-0.1-0.6c0-0.2,0-0.3,0.1-0.6s0.2-0.3,0.5-0.5c0.2-0.1,0.6-0.2,0.9-0.3s0.8-0.1,1.4-0.1v-0.3
			c0-0.3-0.1-0.7-0.2-0.9c-0.1-0.2-0.5-0.3-0.7-0.3s-0.3,0-0.6,0.1c-0.1,0-0.2,0.1-0.3,0.2c-0.1,0.1-0.2,0.1-0.2,0.2
			c-0.1,0-0.1,0.1-0.2,0.1H254l-0.1-0.1l-0.1-0.2c0.2-0.2,0.6-0.5,0.9-0.6c0.3-0.1,0.7-0.2,1-0.2c0.2,0,0.6,0,0.7,0.1
			c0.2,0.1,0.3,0.2,0.6,0.3c0.1,0.1,0.2,0.3,0.3,0.6c0.1,0.2,0.1,0.5,0.1,0.8L257.4,72.5L257.4,72.5z M255.2,71.9c0.1,0,0.3,0,0.5,0
			s0.2-0.1,0.3-0.1c0.1,0,0.2-0.1,0.3-0.2c0.1-0.1,0.2-0.2,0.3-0.2v-1.2c-0.3,0-0.7,0-1,0.1c-0.2,0-0.5,0.1-0.7,0.2
			c-0.2,0.1-0.3,0.2-0.3,0.2c-0.1,0.1-0.1,0.2-0.1,0.3c0,0.1,0,0.2,0.1,0.3c0,0.1,0.1,0.1,0.1,0.2c0.1,0.1,0.1,0.1,0.2,0.1
			C255,71.9,255.1,71.9,255.2,71.9z"/>
		<path class="st1" d="M258.8,72.5v-5h0.5c0.1,0,0.2,0.1,0.2,0.2l0.1,0.6c0.2-0.2,0.5-0.5,0.7-0.6c0.2-0.1,0.6-0.2,0.9-0.2
			c0.2,0,0.5,0,0.7,0.1s0.3,0.2,0.5,0.3c0.1,0.1,0.2,0.3,0.3,0.6c0.1,0.2,0.1,0.5,0.1,0.8v3.1h-0.9v-3.1c0-0.3-0.1-0.7-0.2-0.9
			c-0.1-0.2-0.5-0.3-0.8-0.3c-0.2,0-0.5,0.1-0.7,0.2c-0.2,0.1-0.5,0.3-0.6,0.5v3.7L258.8,72.5L258.8,72.5z M262.3,65.3l-1.2,1.3
			l-0.1,0.1h-0.1h-0.5l0.7-1.2c0-0.1,0.1-0.1,0.1-0.1s0.1,0,0.2,0h0.8V65.3z"/>
		<path class="st1" d="M267,68.4c0,0.1-0.1,0.1-0.2,0.1h-0.1c-0.1,0-0.1-0.1-0.2-0.1c-0.1,0-0.2-0.1-0.3-0.1s-0.2,0-0.5,0
			c-0.1,0-0.2,0-0.3,0s-0.2,0.1-0.3,0.1c-0.1,0.1-0.1,0.1-0.2,0.2c0,0.1-0.1,0.2-0.1,0.2c0,0.1,0,0.2,0.1,0.3
			c0.1,0.1,0.1,0.1,0.3,0.2c0.1,0.1,0.2,0.1,0.5,0.1c0.1,0,0.3,0.1,0.5,0.1c0.1,0,0.3,0.1,0.5,0.2c0.1,0.1,0.2,0.1,0.5,0.2
			c0.1,0.1,0.2,0.2,0.3,0.3c0.1,0.1,0.1,0.3,0.1,0.5c0,0.2,0,0.5-0.1,0.6c-0.1,0.2-0.2,0.3-0.3,0.5c-0.1,0.1-0.3,0.2-0.6,0.3
			c-0.2,0.1-0.5,0.1-0.8,0.1c-0.3,0-0.7,0-0.9-0.1c-0.2-0.1-0.5-0.2-0.7-0.5l0.2-0.3c0,0,0-0.1,0.1-0.1h0.1c0,0,0.1,0,0.2,0.1
			c0.1,0,0.1,0.1,0.2,0.1c0.1,0,0.2,0.1,0.3,0.1s0.3,0.1,0.5,0.1s0.3,0,0.5-0.1c0.1,0,0.2-0.1,0.3-0.2c0.1-0.1,0.1-0.1,0.2-0.2
			c0-0.1,0.1-0.2,0.1-0.3s0-0.2-0.1-0.3c-0.1-0.1-0.1-0.1-0.3-0.2c-0.1-0.1-0.2-0.1-0.5-0.1c-0.1,0-0.3-0.1-0.5-0.1
			s-0.3-0.1-0.5-0.2c-0.1-0.1-0.3-0.1-0.5-0.2c-0.1-0.1-0.2-0.2-0.2-0.3c-0.1-0.1-0.1-0.3-0.1-0.6s0-0.3,0.1-0.6
			c0.1-0.2,0.2-0.3,0.3-0.5c0.1-0.1,0.3-0.2,0.6-0.3c0.2-0.1,0.5-0.1,0.7-0.1c0.3,0,0.6,0,0.9,0.1c0.2,0.1,0.5,0.2,0.7,0.5L267,68.4
			z"/>
		<path class="st1" d="M269.4,65.2v4.3h0.2c0.1,0,0.1,0,0.1,0s0.1,0,0.1-0.1l1.6-1.6l0.1-0.1c0,0,0.1,0,0.2,0h0.8l-1.9,2l-0.1,0.1
			l-0.1,0.1l0.1,0.1c0,0,0.1,0.1,0.1,0.2l2,2.4h-0.8c-0.1,0-0.1,0-0.2,0l-0.1-0.1l-1.6-2.1c0-0.1-0.1-0.1-0.1-0.1s-0.1,0-0.2,0h-0.2
			v2.3h-0.9v-7.2h0.9V65.2z"/>
	</g>
	<g>
		<path class="st1" d="M494.8,186.1v-7h2.2c0.5,0,0.8,0,1.2,0.1c0.3,0.1,0.6,0.2,0.8,0.3s0.3,0.3,0.5,0.6c0.1,0.2,0.1,0.5,0.1,0.8
			c0,0.2,0,0.3-0.1,0.5c0,0.1-0.1,0.3-0.2,0.5c-0.1,0.1-0.2,0.2-0.5,0.3c-0.1,0.1-0.3,0.2-0.6,0.2c0.5,0.1,0.9,0.2,1.2,0.6
			c0.2,0.2,0.3,0.6,0.3,1c0,0.3,0,0.6-0.1,0.8c-0.1,0.2-0.2,0.5-0.5,0.6c-0.2,0.2-0.5,0.3-0.8,0.5c-0.3,0.1-0.7,0.1-1,0.1
			L494.8,186.1L494.8,186.1z M495.7,182.2h1.3c0.2,0,0.5,0,0.7-0.1c0.2,0,0.3-0.1,0.5-0.2c0.1-0.1,0.2-0.2,0.2-0.3
			c0.1-0.1,0.1-0.3,0.1-0.5c0-0.5-0.1-0.7-0.3-0.9s-0.6-0.2-1.2-0.2h-1.3V182.2z M495.7,182.9v2.4h1.5c0.2,0,0.5,0,0.7-0.1
			c0.2-0.1,0.3-0.1,0.5-0.2c0.1-0.1,0.2-0.2,0.2-0.3c0.1-0.1,0.1-0.3,0.1-0.5c0-0.3-0.1-0.7-0.3-0.8c-0.2-0.2-0.7-0.3-1.2-0.3h-1.5
			V182.9z"/>
		<path class="st1" d="M502.2,179.6c0,0.1,0,0.1,0,0.2c0,0.1-0.1,0.1-0.1,0.2c0,0-0.1,0.1-0.2,0.1c-0.1,0-0.1,0-0.2,0
			c-0.1,0-0.1,0-0.2,0c-0.1,0-0.1-0.1-0.2-0.1c0,0-0.1-0.1-0.1-0.2c0-0.1,0-0.1,0-0.2c0-0.1,0-0.1,0-0.2c0-0.1,0.1-0.1,0.1-0.2
			c0,0,0.1-0.1,0.2-0.1c0.1,0,0.1,0,0.2,0c0.1,0,0.1,0,0.2,0c0.1,0,0.1,0.1,0.2,0.1c0,0,0.1,0.1,0.1,0.2
			C502.1,179.5,502.2,179.5,502.2,179.6z M502,181.2v5h-0.9v-5H502z"/>
		<path class="st1" d="M507.2,186.1h-0.3c-0.1,0-0.1,0-0.2,0l-0.1-0.1l-0.1-0.5c-0.1,0.1-0.2,0.2-0.3,0.3c-0.1,0.1-0.2,0.1-0.3,0.2
			c-0.1,0.1-0.2,0.1-0.5,0.1c-0.1,0-0.3,0-0.5,0c-0.2,0-0.3,0-0.6-0.1c-0.1,0-0.3-0.1-0.5-0.2c-0.1-0.1-0.2-0.2-0.3-0.5
			c-0.1-0.1-0.1-0.3-0.1-0.6s0-0.3,0.1-0.6s0.2-0.3,0.5-0.5c0.2-0.1,0.6-0.2,0.9-0.3c0.3-0.1,0.8-0.1,1.4-0.1v-0.3
			c0-0.3-0.1-0.7-0.2-0.9c-0.1-0.2-0.5-0.3-0.7-0.3c-0.2,0-0.3,0-0.6,0.1c-0.1,0-0.2,0.1-0.3,0.2c-0.1,0.1-0.2,0.1-0.2,0.2
			c-0.1,0-0.1,0.1-0.2,0.1c-0.1,0-0.1,0-0.1,0l-0.1-0.1l-0.1-0.2c0.2-0.2,0.6-0.5,0.9-0.6c0.3-0.1,0.7-0.2,1-0.2
			c0.2,0,0.6,0,0.7,0.1c0.2,0.1,0.3,0.2,0.6,0.3c0.1,0.1,0.2,0.3,0.3,0.6c0.1,0.2,0.1,0.5,0.1,0.8L507.2,186.1L507.2,186.1z
			 M504.9,185.6c0.1,0,0.3,0,0.5,0c0.1,0,0.2-0.1,0.3-0.1c0.1,0,0.2-0.1,0.3-0.2c0.1-0.1,0.2-0.2,0.3-0.2v-1c-0.3,0-0.7,0-1,0.1
			c-0.2,0-0.5,0.1-0.7,0.2c-0.2,0.1-0.3,0.2-0.3,0.2c-0.1,0.1-0.1,0.2-0.1,0.3s0,0.2,0.1,0.3c0.1,0.1,0.1,0.1,0.1,0.2
			c0.1,0.1,0.1,0.1,0.2,0.1C504.7,185.6,504.8,185.6,504.9,185.6z"/>
		<path class="st1" d="M509.8,178.9v2.8l0.9-0.3v0.5v0.1c0,0,0,0.1-0.1,0.1l-0.7,0.3v3.7H509v-3.4l-0.8,0.3v-0.5
			c0-0.1,0-0.1,0.1-0.2l0.7-0.3v-3.1H509.8z"/>
		<path class="st1" d="M513.1,187.6c0,0.1-0.1,0.1-0.1,0.1s-0.1,0-0.2,0h-0.7l0.9-2l-2.1-4.6h0.7c0.1,0,0.1,0,0.2,0
			c0.1,0,0.1,0.1,0.1,0.1l1.3,3.1c0,0.1,0,0.1,0.1,0.2c0,0.1,0,0.1,0,0.2c0-0.1,0-0.1,0.1-0.2c0-0.1,0-0.1,0.1-0.2l1.3-3.1
			c0,0,0-0.1,0.1-0.1h0.1h0.7L513.1,187.6z"/>
		<path class="st1" d="M519.5,182c0,0.1-0.1,0.1-0.2,0.1h-0.1c-0.1,0-0.1-0.1-0.2-0.1c-0.1,0-0.2-0.1-0.3-0.1c-0.1,0-0.2,0-0.5,0
			c-0.1,0-0.2,0-0.3,0c-0.1,0-0.2,0.1-0.3,0.1c-0.1,0.1-0.1,0.1-0.2,0.2c0,0.1-0.1,0.2-0.1,0.2c0,0.1,0,0.2,0.1,0.3
			c0.1,0.1,0.1,0.1,0.3,0.2c0.1,0.1,0.2,0.1,0.5,0.1c0.1,0,0.3,0.1,0.5,0.1c0.1,0,0.3,0.1,0.5,0.2c0.1,0.1,0.2,0.1,0.5,0.2
			c0.1,0.1,0.2,0.2,0.3,0.3c0.1,0.1,0.1,0.3,0.1,0.5c0,0.2,0,0.5-0.1,0.6c-0.1,0.2-0.2,0.3-0.3,0.5c-0.1,0.1-0.3,0.2-0.6,0.3
			c-0.2,0.1-0.5,0.1-0.8,0.1s-0.7,0-0.9-0.1c-0.2-0.1-0.5-0.2-0.7-0.5l0.2-0.3c0,0,0-0.1,0.1-0.1h0.1c0,0,0.1,0,0.2,0.1
			c0.1,0,0.1,0.1,0.2,0.1s0.2,0.1,0.3,0.1c0.1,0,0.3,0.1,0.5,0.1c0.1,0,0.3,0,0.5-0.1c0.1,0,0.2-0.1,0.3-0.2
			c0.1-0.1,0.1-0.1,0.2-0.2c0-0.1,0.1-0.2,0.1-0.3s0-0.2-0.1-0.3s-0.1-0.1-0.3-0.2c-0.1-0.1-0.2-0.1-0.5-0.1c-0.1,0-0.3-0.1-0.5-0.1
			c-0.1,0-0.3-0.1-0.5-0.2c-0.1-0.1-0.3-0.1-0.5-0.2c-0.1-0.1-0.2-0.2-0.2-0.3c-0.1-0.1-0.1-0.3-0.1-0.6c0-0.2,0-0.3,0.1-0.6
			c0.1-0.2,0.2-0.3,0.3-0.5c0.1-0.1,0.3-0.2,0.6-0.3c0.2-0.1,0.5-0.1,0.7-0.1c0.3,0,0.6,0,0.9,0.1c0.2,0.1,0.5,0.2,0.7,0.5
			L519.5,182z"/>
		<path class="st1" d="M522.4,186.2c-0.3,0-0.7-0.1-0.9-0.3c-0.2-0.2-0.3-0.6-0.3-0.9v-3h-0.6h-0.1v-0.1v-0.3l0.8-0.1l0.2-1.5
			c0,0,0-0.1,0.1-0.1h0.1h0.5v1.7h1.4v0.6h-1.4v3c0,0.2,0,0.3,0.1,0.5c0.1,0.1,0.2,0.1,0.3,0.1c0.1,0,0.1,0,0.2,0
			c0.1,0,0.1,0,0.1-0.1c0,0,0.1,0,0.1-0.1h0.1c0,0,0.1,0,0.1,0.1l0.2,0.5c-0.1,0.1-0.3,0.2-0.6,0.3
			C522.9,186.2,522.6,186.2,522.4,186.2z"/>
		<path class="st1" d="M526.6,181.1c0.3,0,0.7,0.1,0.9,0.2c0.3,0.1,0.6,0.3,0.7,0.5c0.2,0.2,0.3,0.5,0.5,0.8c0.1,0.3,0.1,0.7,0.1,1
			c0,0.3,0,0.7-0.1,1c-0.1,0.3-0.2,0.6-0.5,0.8c-0.2,0.2-0.5,0.3-0.7,0.5c-0.3,0.1-0.6,0.2-0.9,0.2c-0.3,0-0.7-0.1-0.9-0.2
			c-0.3-0.1-0.6-0.2-0.7-0.5s-0.3-0.5-0.5-0.8c-0.1-0.3-0.1-0.7-0.1-1c0-0.3,0-0.7,0.1-1c0.1-0.3,0.2-0.6,0.5-0.8
			c0.2-0.2,0.5-0.3,0.7-0.5C525.9,181.1,526.2,181.1,526.6,181.1z M526.6,185.5c0.5,0,0.8-0.1,1-0.5c0.2-0.3,0.3-0.8,0.3-1.4
			c0-0.6-0.1-1-0.3-1.4c-0.2-0.3-0.6-0.5-1-0.5c-0.2,0-0.5,0-0.7,0.1c-0.2,0.1-0.3,0.2-0.5,0.3c-0.1,0.1-0.2,0.3-0.2,0.6
			c-0.1,0.2-0.1,0.5-0.1,0.8c0,0.3,0,0.6,0.1,0.8c0.1,0.2,0.1,0.5,0.2,0.6c0.1,0.1,0.2,0.2,0.5,0.3
			C526.1,185.5,526.3,185.5,526.6,185.5z"/>
		<path class="st1" d="M530.8,178.9v4.3h0.2c0.1,0,0.1,0,0.1,0s0.1,0,0.1-0.1l1.6-1.6l0.1-0.1c0,0,0.1,0,0.2,0h0.8l-1.9,2l-0.1,0.1
			l-0.1,0.1l0.1,0.1c0,0,0.1,0.1,0.1,0.2l2,2.4h-0.8c-0.1,0-0.1,0-0.2,0l-0.1-0.1l-1.6-2.1c0-0.1-0.1-0.1-0.1-0.1s-0.1,0-0.2,0h-0.2
			v2.3H530v-7.2h0.8V178.9z"/>
	</g>
	<g>
		<path class="st1" d="M152.7,251.4v2.7h-0.9V247h2.1c0.5,0,0.8,0,1.2,0.1s0.6,0.2,0.8,0.5c0.2,0.2,0.3,0.5,0.5,0.7
			c0.1,0.2,0.1,0.6,0.1,0.9s0,0.6-0.1,0.9c-0.1,0.2-0.2,0.5-0.5,0.7c-0.2,0.2-0.5,0.3-0.8,0.5c-0.3,0.1-0.7,0.1-1.2,0.1L152.7,251.4
			L152.7,251.4z M152.7,250.7h1.2c0.2,0,0.5,0,0.7-0.1s0.3-0.1,0.6-0.3c0.1-0.1,0.2-0.2,0.3-0.5s0.1-0.3,0.1-0.6
			c0-0.5-0.1-0.8-0.5-1c-0.2-0.2-0.7-0.3-1.3-0.3h-1.2V250.7z"/>
		<path class="st1" d="M159.3,249.1c0.3,0,0.7,0.1,0.9,0.2c0.3,0.1,0.6,0.3,0.7,0.5c0.2,0.2,0.3,0.5,0.5,0.8c0.1,0.3,0.1,0.7,0.1,1
			s0,0.7-0.1,1s-0.2,0.6-0.5,0.8c-0.2,0.2-0.5,0.3-0.7,0.5c-0.3,0.1-0.6,0.2-0.9,0.2s-0.7-0.1-0.9-0.2c-0.3-0.1-0.6-0.2-0.7-0.5
			c-0.2-0.2-0.3-0.5-0.5-0.8c-0.1-0.3-0.1-0.7-0.1-1s0-0.7,0.1-1c0.1-0.3,0.2-0.6,0.5-0.8c0.2-0.2,0.5-0.3,0.7-0.5
			C158.7,249.1,159,249.1,159.3,249.1z M159.3,253.5c0.5,0,0.8-0.1,1-0.5c0.2-0.3,0.3-0.8,0.3-1.4s-0.1-1-0.3-1.4
			c-0.2-0.3-0.6-0.5-1-0.5c-0.2,0-0.5,0-0.7,0.1c-0.2,0.1-0.3,0.2-0.5,0.3c-0.1,0.1-0.2,0.3-0.2,0.6c-0.1,0.2-0.1,0.5-0.1,0.8
			s0,0.6,0.1,0.8c0.1,0.2,0.1,0.5,0.2,0.6s0.2,0.2,0.5,0.3C158.8,253.4,159.1,253.5,159.3,253.5z"/>
		<path class="st1" d="M166.3,249.4c0,0.1,0,0.1,0,0.2c0,0,0,0.1-0.1,0.1l-2.7,3.6h2.7v0.7h-3.7v-0.3v-0.1c0,0,0-0.1,0.1-0.1
			l2.7-3.6h-2.7v-0.7h3.7V249.4z"/>
		<path class="st1" d="M167.3,254.1v-5h0.5c0.1,0,0.2,0.1,0.2,0.2l0.1,0.6c0.2-0.2,0.5-0.5,0.7-0.6c0.2-0.1,0.6-0.2,0.9-0.2
			c0.2,0,0.5,0,0.7,0.1c0.2,0.1,0.3,0.2,0.5,0.3c0.1,0.1,0.2,0.3,0.3,0.6c0.1,0.2,0.1,0.5,0.1,0.8v3.1h-0.9v-3.1
			c0-0.3-0.1-0.7-0.2-0.9c-0.1-0.2-0.5-0.3-0.8-0.3c-0.2,0-0.5,0.1-0.7,0.2c-0.2,0.1-0.5,0.3-0.6,0.5v3.7L167.3,254.1L167.3,254.1z"
			/>
		<path class="st1" d="M176.4,254.1h-0.3c-0.1,0-0.1,0-0.2,0l-0.1-0.1l-0.1-0.5c-0.1,0.1-0.2,0.2-0.3,0.3c-0.1,0.1-0.2,0.1-0.3,0.2
			c-0.1,0.1-0.2,0.1-0.5,0.1c-0.1,0-0.3,0-0.5,0c-0.2,0-0.3,0-0.6-0.1c-0.1,0-0.3-0.1-0.5-0.2c-0.1-0.1-0.2-0.2-0.3-0.5
			c-0.1-0.1-0.1-0.3-0.1-0.6c0-0.2,0-0.3,0.1-0.6c0.1-0.2,0.2-0.3,0.5-0.5c0.2-0.1,0.6-0.2,0.9-0.3c0.3-0.1,0.8-0.1,1.4-0.1v-0.3
			c0-0.3-0.1-0.7-0.2-0.9c-0.1-0.2-0.5-0.3-0.7-0.3s-0.3,0-0.6,0.1c-0.1,0-0.2,0.1-0.3,0.2c-0.1,0.1-0.2,0.1-0.2,0.2
			c-0.1,0-0.1,0.1-0.2,0.1s-0.1,0-0.1,0l-0.1-0.1l-0.1-0.2c0.2-0.2,0.6-0.5,0.9-0.6s0.7-0.2,1-0.2c0.2,0,0.6,0,0.7,0.1
			c0.2,0.1,0.3,0.2,0.6,0.3c0.1,0.1,0.2,0.3,0.3,0.6c0.1,0.2,0.1,0.5,0.1,0.8L176.4,254.1L176.4,254.1z M174.1,253.5
			c0.1,0,0.3,0,0.5,0s0.2-0.1,0.3-0.1c0.1,0,0.2-0.1,0.3-0.2s0.2-0.2,0.3-0.2v-1c-0.3,0-0.7,0-1,0.1c-0.2,0-0.5,0.1-0.7,0.2
			c-0.2,0.1-0.3,0.2-0.3,0.2c-0.1,0.1-0.1,0.2-0.1,0.3c0,0.1,0,0.2,0.1,0.3c0,0.1,0.1,0.1,0.1,0.2c0.1,0.1,0.1,0.1,0.2,0.1
			C173.9,253.5,174,253.5,174.1,253.5z"/>
		<path class="st1" d="M177.7,254.1v-5h0.5c0.1,0,0.2,0.1,0.2,0.2l0.1,0.6c0.2-0.2,0.5-0.5,0.7-0.6s0.6-0.2,0.9-0.2
			c0.2,0,0.5,0,0.7,0.1s0.3,0.2,0.5,0.3c0.1,0.1,0.2,0.3,0.3,0.6c0.1,0.2,0.1,0.5,0.1,0.8v3.1h-0.9v-3.1c0-0.3-0.1-0.7-0.2-0.9
			c-0.1-0.2-0.5-0.3-0.8-0.3c-0.2,0-0.5,0.1-0.7,0.2c-0.2,0.1-0.5,0.3-0.6,0.5v3.7L177.7,254.1L177.7,254.1z M181.2,247l-1.2,1.3
			l-0.1,0.1h-0.1h-0.5l0.7-1.2c0-0.1,0.1-0.1,0.1-0.1s0.1,0,0.2,0h0.8V247z"/>
	</g>
	<g>
		<path class="st1" d="M254.2,192.9v0.8h-2.3v6.3h-0.9v-6.3h-2.3v-0.8H254.2z"/>
		<path class="st1" d="M256,194.9c0.3,0,0.7,0.1,0.9,0.2c0.3,0.1,0.6,0.3,0.7,0.5c0.2,0.2,0.3,0.5,0.5,0.8c0.1,0.3,0.1,0.7,0.1,1
			s0,0.7-0.1,1c-0.1,0.3-0.2,0.6-0.5,0.8c-0.2,0.2-0.5,0.3-0.7,0.5c-0.3,0.1-0.6,0.2-0.9,0.2c-0.3,0-0.7-0.1-0.9-0.2
			c-0.3-0.1-0.6-0.2-0.7-0.5c-0.2-0.2-0.3-0.5-0.5-0.8s-0.1-0.7-0.1-1c0-0.3,0-0.7,0.1-1c0.1-0.3,0.2-0.6,0.5-0.8
			c0.2-0.2,0.5-0.3,0.7-0.5C255.3,195,255.7,194.9,256,194.9z M256,199.3c0.5,0,0.8-0.1,1-0.5c0.2-0.3,0.3-0.8,0.3-1.4
			c0-0.6-0.1-1-0.3-1.4c-0.2-0.3-0.6-0.5-1-0.5c-0.2,0-0.5,0-0.7,0.1c-0.2,0.1-0.3,0.2-0.5,0.3c-0.1,0.1-0.2,0.3-0.2,0.6
			c-0.1,0.2-0.1,0.5-0.1,0.8s0,0.6,0.1,0.8s0.1,0.5,0.2,0.6c0.1,0.1,0.2,0.2,0.5,0.3C255.6,199.3,255.8,199.3,256,199.3z"/>
		<path class="st1" d="M259.5,199.8v-5h0.5c0.1,0,0.1,0,0.2,0c0,0,0.1,0.1,0.1,0.2v0.8c0.1-0.3,0.3-0.6,0.6-0.8s0.6-0.2,0.9-0.2
			c0.1,0,0.2,0,0.3,0c0.1,0,0.2,0.1,0.3,0.1l-0.1,0.7c0,0.1-0.1,0.1-0.1,0.1s-0.1,0-0.2,0c-0.1,0-0.2,0-0.3,0
			c-0.3,0-0.6,0.1-0.8,0.2c-0.2,0.2-0.3,0.5-0.5,0.8v3.1h-0.9V199.8z"/>
		<path class="st1" d="M264.1,195v3.1c0,0.3,0.1,0.7,0.2,0.9c0.1,0.2,0.5,0.3,0.8,0.3c0.2,0,0.5-0.1,0.7-0.2
			c0.2-0.1,0.5-0.2,0.6-0.5V195h0.9v5h-0.5c-0.1,0-0.2-0.1-0.2-0.2l-0.1-0.6c-0.2,0.2-0.5,0.5-0.7,0.6s-0.6,0.2-0.9,0.2
			c-0.2,0-0.5,0-0.7-0.1s-0.3-0.2-0.5-0.3c-0.1-0.1-0.2-0.3-0.3-0.6c-0.1-0.2-0.1-0.5-0.1-0.8V195L264.1,195L264.1,195z"/>
		<path class="st1" d="M268.9,199.8v-5h0.5c0.1,0,0.2,0.1,0.2,0.2l0.1,0.6c0.2-0.2,0.5-0.5,0.7-0.6s0.6-0.2,0.9-0.2
			c0.2,0,0.5,0,0.7,0.1c0.2,0.1,0.3,0.2,0.5,0.3c0.1,0.1,0.2,0.3,0.3,0.6c0.1,0.2,0.1,0.5,0.1,0.8v3.1H272v-3.1
			c0-0.3-0.1-0.7-0.2-0.9c-0.1-0.2-0.5-0.3-0.8-0.3c-0.2,0-0.5,0.1-0.7,0.2c-0.2,0.1-0.5,0.3-0.6,0.5v3.7L268.9,199.8L268.9,199.8z
			 M272.4,192.8l-1.2,1.3l-0.1,0.1H271h-0.5l0.7-1.2c0-0.1,0.1-0.1,0.1-0.1s0.1,0,0.2,0h0.8V192.8z"/>
	</g>
	<g>
		<path class="st1" d="M300.2,284.3l1.9-0.9v0.6c0,0.1,0,0.1-0.1,0.2l-1.7,0.9v2.3h3v0.8h-3.9v-2.7l-0.9,0.5v-0.7
			c0-0.1,0-0.1,0.1-0.2l0.8-0.5v-3.5h0.9L300.2,284.3L300.2,284.3z"/>
		<path class="st1" d="M306.2,283.3c0.3,0,0.7,0.1,0.9,0.2c0.3,0.1,0.6,0.3,0.7,0.5c0.2,0.2,0.3,0.5,0.5,0.8s0.1,0.7,0.1,1
			s0,0.7-0.1,1c-0.1,0.3-0.2,0.6-0.5,0.8c-0.2,0.2-0.5,0.3-0.7,0.5c-0.3,0.1-0.6,0.2-0.9,0.2c-0.3,0-0.7-0.1-0.9-0.2
			c-0.3-0.1-0.6-0.2-0.7-0.5c-0.2-0.2-0.3-0.5-0.5-0.8c-0.1-0.3-0.1-0.7-0.1-1s0-0.7,0.1-1c0.1-0.3,0.2-0.6,0.5-0.8
			c0.2-0.2,0.5-0.3,0.7-0.5C305.5,283.3,305.9,283.3,306.2,283.3z M306.2,287.7c0.5,0,0.8-0.1,1-0.5c0.2-0.3,0.3-0.8,0.3-1.4
			s-0.1-1-0.3-1.4c-0.2-0.3-0.6-0.5-1-0.5c-0.2,0-0.5,0-0.7,0.1s-0.3,0.2-0.5,0.3c-0.1,0.1-0.2,0.3-0.2,0.6
			c-0.1,0.2-0.1,0.5-0.1,0.8c0,0.3,0,0.6,0.1,0.8s0.1,0.5,0.2,0.6c0.1,0.1,0.2,0.2,0.5,0.3C305.7,287.7,306,287.7,306.2,287.7z
			 M307.6,281.2l-1.2,1.3l-0.1,0.1h-0.1h-0.5l0.7-1.2c0-0.1,0.1-0.1,0.1-0.1s0.1,0,0.2,0h0.8V281.2z"/>
		<path class="st1" d="M313,288.2c-0.1,0-0.2-0.1-0.2-0.2l-0.1-0.6c-0.2,0.2-0.5,0.5-0.7,0.6c-0.2,0.1-0.6,0.2-0.9,0.2
			c-0.2,0-0.6,0-0.8-0.1c-0.2-0.1-0.5-0.2-0.6-0.5c-0.1-0.2-0.2-0.5-0.3-0.8c-0.1-0.3-0.1-0.7-0.1-1s0-0.7,0.1-1
			c0.1-0.3,0.2-0.6,0.5-0.8c0.2-0.2,0.5-0.5,0.7-0.6c0.2-0.1,0.6-0.2,0.9-0.2c0.3,0,0.6,0,0.8,0.1c0.2,0.1,0.5,0.2,0.6,0.5v-2.7h0.9
			v7.2H313z M311.4,287.7c0.2,0,0.6-0.1,0.7-0.2c0.2-0.1,0.5-0.3,0.6-0.6v-2.3c-0.1-0.2-0.3-0.3-0.6-0.5s-0.3-0.1-0.6-0.1
			c-0.5,0-0.8,0.1-1,0.5c-0.2,0.3-0.3,0.8-0.3,1.4c0,0.3,0,0.6,0.1,0.8c0,0.2,0.1,0.5,0.2,0.6c0.1,0.1,0.2,0.2,0.3,0.3
			C311.1,287.7,311.2,287.7,311.4,287.7z"/>
		<path class="st1" d="M318.5,283.7c0,0.1,0,0.1,0,0.2c0,0,0,0.1-0.1,0.1l-2.7,3.6h2.7v0.7h-3.7V288v-0.1c0,0,0-0.1,0.1-0.1l2.7-3.6
			h-2.7v-0.8h3.7V283.7z M318.1,281.2l-1.2,1.3l-0.1,0.1h-0.1h-0.5l0.7-1.2c0-0.1,0.1-0.1,0.1-0.1s0.1,0,0.2,0h0.8V281.2z"/>
	</g>
	<g>
		<path class="st1" d="M338.1,383.4h0.3c0.1,0,0.2,0,0.3,0s0.1-0.1,0.2-0.1l2.3-2.7c0.1-0.1,0.1-0.1,0.2-0.1c0.1,0,0.1,0,0.2,0h0.8
			l-2.7,3c-0.1,0.1-0.1,0.1-0.2,0.2c-0.1,0.1-0.1,0.1-0.2,0.1c0.1,0,0.1,0.1,0.2,0.1c0.1,0.1,0.1,0.1,0.2,0.2l2.8,3.4h-0.8
			c-0.1,0-0.1,0-0.1,0h-0.1c0,0-0.1,0-0.1-0.1c0,0,0,0-0.1-0.1l-2.4-2.8l-0.1-0.1c0,0-0.1,0-0.1-0.1h-0.1c0,0-0.1,0-0.2,0h-0.5v3.2
			H337v-7.1h0.9v2.9H338.1z"/>
		<path class="st1" d="M344.8,380.8c0,0.1,0,0.1,0,0.2c0,0.1-0.1,0.1-0.1,0.2c0,0-0.1,0.1-0.2,0.1c-0.1,0-0.1,0-0.2,0s-0.1,0-0.2,0
			c-0.1,0-0.1-0.1-0.2-0.1c0,0-0.1-0.1-0.1-0.2c0-0.1,0-0.1,0-0.2c0-0.1,0-0.1,0-0.2s0.1-0.1,0.1-0.2c0,0,0.1-0.1,0.2-0.1
			c0.1,0,0.1,0,0.2,0s0.1,0,0.2,0c0.1,0,0.1,0.1,0.2,0.1c0,0,0.1,0.1,0.1,0.2S344.8,380.7,344.8,380.8z M344.6,382.4v5h-0.9v-5
			H344.6z"/>
		<path class="st1" d="M348,382.3c0.3,0,0.6,0,0.8,0.1c0.2,0.1,0.5,0.2,0.7,0.5c0.2,0.2,0.3,0.5,0.5,0.7s0.1,0.6,0.1,0.9
			c0,0.1,0,0.2,0,0.2l-0.1,0.1h-3.2c0,0.3,0,0.6,0.1,0.8c0.1,0.2,0.2,0.5,0.3,0.6c0.1,0.1,0.3,0.2,0.5,0.3c0.2,0.1,0.3,0.1,0.6,0.1
			s0.5,0,0.6-0.1c0.1-0.1,0.3-0.1,0.5-0.1c0.1-0.1,0.2-0.1,0.2-0.1c0.1,0,0.1-0.1,0.2-0.1s0.1,0,0.1,0.1l0.2,0.3
			c-0.1,0.1-0.2,0.2-0.3,0.3s-0.3,0.2-0.5,0.2c-0.1,0.1-0.3,0.1-0.6,0.1s-0.3,0-0.6,0c-0.3,0-0.7-0.1-0.9-0.2
			c-0.2-0.1-0.6-0.2-0.7-0.5c-0.2-0.2-0.3-0.5-0.5-0.8c-0.1-0.3-0.2-0.7-0.2-1.2c0-0.3,0-0.7,0.1-0.9c0.1-0.3,0.2-0.6,0.5-0.8
			c0.2-0.2,0.5-0.3,0.7-0.5C347.3,382.3,347.7,382.3,348,382.3z M348,382.9c-0.5,0-0.7,0.1-1,0.3c-0.2,0.2-0.3,0.6-0.5,1h2.7
			c0-0.2,0-0.3-0.1-0.6c0-0.1-0.1-0.3-0.2-0.5c-0.1-0.1-0.2-0.2-0.3-0.2C348.5,383,348.3,382.9,348,382.9z"/>
		<path class="st1" d="M352.2,380.1v7.2h-0.9v-7.2H352.2z"/>
		<path class="st1" d="M357.1,383.2C357.1,383.4,357.1,383.4,357.1,383.2c-0.1,0.1-0.1,0.1-0.2,0.1c0,0-0.1,0-0.1-0.1
			c0,0-0.1-0.1-0.2-0.1c-0.1,0-0.2-0.1-0.3-0.1s-0.2-0.1-0.5-0.1c-0.2,0-0.5,0-0.7,0.1c-0.2,0.1-0.3,0.2-0.5,0.3
			c-0.1,0.1-0.2,0.3-0.2,0.6c-0.1,0.2-0.1,0.5-0.1,0.8s0,0.6,0.1,0.8c0.1,0.2,0.1,0.5,0.2,0.6c0.1,0.1,0.2,0.2,0.5,0.3
			c0.2,0.1,0.3,0.1,0.6,0.1c0.2,0,0.3,0,0.6-0.1c0.1,0,0.2-0.1,0.3-0.1c0.1-0.1,0.1-0.1,0.2-0.1s0.1-0.1,0.2-0.1
			c0.1,0,0.1,0,0.1,0.1l0.2,0.3c-0.2,0.2-0.5,0.5-0.8,0.6c-0.3,0.1-0.7,0.2-1,0.2c-0.3,0-0.6,0-0.8-0.1c-0.2-0.1-0.5-0.2-0.7-0.5
			c-0.2-0.2-0.3-0.5-0.5-0.8c-0.1-0.3-0.1-0.7-0.1-1c0-0.3,0-0.7,0.1-1c0.1-0.3,0.2-0.6,0.5-0.8c0.2-0.2,0.5-0.3,0.7-0.6
			c0.2-0.1,0.6-0.2,1-0.2c0.3,0,0.7,0,0.9,0.1c0.2,0.1,0.5,0.2,0.7,0.5L357.1,383.2z"/>
		<path class="st1" d="M360.3,382.3c0.3,0,0.6,0,0.8,0.1c0.2,0.1,0.5,0.2,0.7,0.5c0.2,0.2,0.3,0.5,0.5,0.7c0.1,0.2,0.1,0.6,0.1,0.9
			c0,0.1,0,0.2,0,0.2l-0.1,0.1H359c0,0.3,0,0.6,0.1,0.8c0.1,0.2,0.2,0.5,0.3,0.6c0.1,0.1,0.3,0.2,0.5,0.3c0.2,0.1,0.3,0.1,0.7,0.1
			c0.2,0,0.5,0,0.6-0.1s0.3-0.1,0.5-0.1c0.1-0.1,0.2-0.1,0.2-0.1s0.1-0.1,0.2-0.1c0.1,0,0.1,0,0.1,0.1l0.2,0.3
			c-0.1,0.1-0.2,0.2-0.3,0.3c-0.1,0.1-0.3,0.2-0.5,0.2c-0.1,0.1-0.3,0.1-0.6,0.1s-0.3,0-0.6,0c-0.3,0-0.7-0.1-0.9-0.2
			c-0.2-0.1-0.6-0.2-0.7-0.5c-0.2-0.2-0.3-0.5-0.5-0.8c-0.1-0.3-0.2-0.7-0.2-1.2c0-0.3,0-0.7,0.1-0.9c0.1-0.3,0.2-0.6,0.5-0.8
			c0.2-0.2,0.5-0.3,0.7-0.5C359.6,382.3,360,382.3,360.3,382.3z M360.3,382.9c-0.5,0-0.7,0.1-1,0.3c-0.2,0.2-0.3,0.6-0.5,1h2.7
			c0-0.2,0-0.3-0.1-0.6c0-0.1-0.1-0.3-0.2-0.5c-0.1-0.1-0.2-0.2-0.3-0.2C360.7,383,360.5,382.9,360.3,382.9z"/>
	</g>
	<g>
		<path class="st1" d="M491.8,88.5C491.8,88.5,491.7,88.6,491.8,88.5c-0.1,0.1-0.1,0.1-0.2,0.1c0,0-0.1,0-0.2-0.1
			c-0.1,0-0.1-0.1-0.2-0.2c-0.1-0.1-0.2-0.1-0.5-0.2c-0.1,0-0.3-0.1-0.6-0.1s-0.3,0-0.6,0.1c-0.1,0-0.3,0.1-0.5,0.2
			c-0.1,0.1-0.2,0.2-0.2,0.3s-0.1,0.2-0.1,0.5c0,0.2,0,0.3,0.1,0.5c0.1,0.1,0.2,0.2,0.3,0.3c0.1,0.1,0.3,0.1,0.6,0.2
			c0.2,0.1,0.5,0.1,0.6,0.2c0.2,0.1,0.5,0.1,0.6,0.2c0.2,0.1,0.3,0.2,0.6,0.3c0.1,0.1,0.2,0.3,0.3,0.5c0.1,0.2,0.1,0.5,0.1,0.7
			c0,0.3,0,0.6-0.1,0.8c-0.1,0.2-0.2,0.5-0.5,0.7c-0.2,0.2-0.5,0.3-0.7,0.5c-0.3,0.1-0.6,0.1-1,0.1c-0.5,0-0.8-0.1-1.3-0.2
			c-0.3-0.1-0.7-0.3-0.9-0.7l0.2-0.5l0.1-0.1h0.1c0.1,0,0.1,0,0.2,0.1c0.1,0.1,0.2,0.1,0.3,0.2c0.1,0.1,0.3,0.1,0.5,0.2
			c0.2,0.1,0.5,0.1,0.7,0.1c0.2,0,0.5,0,0.6-0.1c0.2-0.1,0.3-0.1,0.5-0.2c0.1-0.1,0.2-0.2,0.2-0.3c0.1-0.1,0.1-0.3,0.1-0.6
			s0-0.3-0.1-0.5c-0.1-0.1-0.2-0.2-0.3-0.3s-0.3-0.1-0.6-0.2c-0.2-0.1-0.5-0.1-0.6-0.2c-0.2-0.1-0.5-0.1-0.6-0.2s-0.3-0.2-0.6-0.3
			c-0.1-0.1-0.2-0.3-0.3-0.6c-0.1-0.2-0.1-0.5-0.1-0.8c0-0.2,0-0.5,0.1-0.7c0.1-0.2,0.2-0.5,0.5-0.6c0.2-0.2,0.5-0.3,0.7-0.5
			c0.2-0.1,0.6-0.1,0.9-0.1c0.3,0,0.7,0.1,1,0.2c0.3,0.1,0.6,0.3,0.8,0.6L491.8,88.5z"/>
		<path class="st1" d="M494,89.4v3.1c0,0.3,0.1,0.7,0.2,0.9s0.5,0.3,0.8,0.3c0.2,0,0.5-0.1,0.7-0.2c0.2-0.1,0.5-0.2,0.6-0.5v-3.7
			h0.9v5h-0.5c-0.1,0-0.2-0.1-0.2-0.2l-0.1-0.6c-0.2,0.2-0.5,0.5-0.7,0.6c-0.2,0.1-0.6,0.2-0.9,0.2c-0.2,0-0.5,0-0.7-0.1
			c-0.2-0.1-0.3-0.2-0.5-0.3c-0.1-0.1-0.2-0.3-0.3-0.6c-0.1-0.2-0.1-0.5-0.1-0.8v-3.1L494,89.4L494,89.4z"/>
		<path class="st1" d="M498.1,89.4h0.7c0.1,0,0.1,0,0.2,0c0.1,0,0.1,0.1,0.1,0.1l0.9,3.2c0,0.1,0,0.2,0.1,0.3c0,0.1,0,0.2,0.1,0.3
			c0-0.1,0-0.2,0.1-0.3c0-0.1,0.1-0.2,0.1-0.3l1-3.2c0,0,0-0.1,0.1-0.1h0.1h0.3c0.1,0,0.1,0,0.1,0l0.1,0.1l1,3.2
			c0,0.1,0.1,0.2,0.1,0.3c0,0.1,0,0.2,0.1,0.3c0-0.1,0-0.2,0.1-0.3c0-0.1,0-0.2,0.1-0.3l0.9-3.2c0,0,0-0.1,0.1-0.1h0.1h0.7l-1.6,5
			h-0.7c-0.1,0-0.1,0-0.2-0.1l-1-3.4c0-0.1,0-0.1-0.1-0.2c0-0.1,0-0.1,0-0.2c0,0.1,0,0.1,0,0.2c0,0.1,0,0.1-0.1,0.2l-1.2,3.4
			c0,0.1-0.1,0.1-0.2,0.1h-0.7L498.1,89.4z"/>
		<path class="st1" d="M509.8,94.4h-0.3c-0.1,0-0.1,0-0.2,0l-0.1-0.1l-0.1-0.5c-0.1,0.1-0.2,0.2-0.3,0.3c-0.1,0.1-0.2,0.1-0.3,0.2
			c-0.1,0.1-0.2,0.1-0.5,0.1c-0.1,0-0.3,0-0.5,0c-0.2,0-0.3,0-0.6-0.1c-0.1,0-0.3-0.1-0.5-0.2c-0.1-0.1-0.2-0.2-0.3-0.5
			c-0.1-0.1-0.1-0.3-0.1-0.6c0-0.2,0-0.3,0.1-0.6c0.1-0.2,0.2-0.3,0.5-0.5c0.2-0.1,0.6-0.2,0.9-0.3c0.3-0.1,0.8-0.1,1.4-0.1v-0.3
			c0-0.3-0.1-0.7-0.2-0.9c-0.1-0.2-0.5-0.3-0.7-0.3c-0.2,0-0.3,0-0.6,0.1c-0.1,0-0.2,0.1-0.3,0.2c-0.1,0.1-0.2,0.1-0.2,0.2
			c-0.1,0-0.1,0.1-0.2,0.1c-0.1,0-0.1,0-0.1,0l-0.1-0.1l-0.1-0.2c0.2-0.2,0.6-0.5,0.9-0.6c0.3-0.1,0.7-0.2,1-0.2
			c0.2,0,0.6,0,0.7,0.1c0.2,0.1,0.3,0.2,0.6,0.3c0.1,0.1,0.2,0.3,0.3,0.6c0.1,0.2,0.1,0.5,0.1,0.8L509.8,94.4L509.8,94.4z
			 M507.6,93.8c0.1,0,0.3,0,0.5,0c0.1,0,0.2-0.1,0.3-0.1s0.2-0.1,0.3-0.2c0.1-0.1,0.2-0.2,0.3-0.2v-1c-0.3,0-0.7,0-1,0.1
			c-0.2,0-0.5,0.1-0.7,0.2c-0.2,0.1-0.3,0.2-0.3,0.3c-0.1,0.1-0.1,0.2-0.1,0.3c0,0.1,0,0.2,0.1,0.3c0,0.1,0.1,0.1,0.1,0.2
			c0.1,0.1,0.1,0.1,0.2,0.1C507.3,93.8,507.4,93.8,507.6,93.8z"/>
		<path class="st1" d="M512.4,87.2V90l0.9-0.3v0.5v0.1c0,0,0,0.1-0.1,0.1l-0.7,0.3v3.7h-1v-3.4l-0.8,0.3v-0.5c0-0.1,0-0.1,0.1-0.2
			l0.7-0.3v-3.1L512.4,87.2L512.4,87.2z"/>
		<path class="st1" d="M515.2,87.2v4.3h0.2c0.1,0,0.1,0,0.1,0s0.1,0,0.1-0.1l1.6-1.6l0.1-0.1c0,0,0.1,0,0.2,0h0.8l-1.9,2l-0.1,0.1
			l-0.1,0.1l0.1,0.1l0.1,0.1l2,2.4h-0.8c-0.1,0-0.1,0-0.2,0l-0.1-0.1l-1.6-2.1c0-0.1-0.1-0.1-0.1-0.1s-0.1,0-0.2,0h-0.2v2.3h-0.9
			v-7.2h0.9V87.2z"/>
		<path class="st1" d="M520.5,87.9c0,0.1,0,0.1,0,0.2c0,0.1-0.1,0.1-0.1,0.2c0,0-0.1,0.1-0.2,0.1c-0.1,0-0.1,0-0.2,0
			c-0.1,0-0.1,0-0.2,0c-0.1,0-0.1-0.1-0.2-0.1c-0.1,0-0.1-0.1-0.1-0.2c0-0.1,0-0.1,0-0.2s0-0.1,0-0.2c0-0.1,0.1-0.1,0.1-0.2
			c0,0,0.1-0.1,0.2-0.1c0.1,0,0.1,0,0.2,0c0.1,0,0.1,0,0.2,0c0.1,0,0.1,0.1,0.2,0.1c0,0,0.1,0.1,0.1,0.2
			C520.5,87.7,520.5,87.8,520.5,87.9z M520.4,89.4v5h-0.9v-5H520.4z"/>
	</g>
	<g id="kropki">
		<circle id="warszawa_1_" class="st2" cx="391.6" cy="253.7" r="5.3"/>
		<circle id="radom_1_" class="st2" cx="402.8" cy="331.8" r="5.3"/>
		<circle id="bialystok_1_" class="st2" cx="509.5" cy="165.2" r="5.3"/>
		<circle id="suwaki_1_" class="st2" cx="491.7" cy="76.5" r="5.3"/>
		<circle id="olsztyn_1_" class="st2" cx="362.8" cy="107.6" r="5.3"/>
		
			<ellipse id="sopot_1_" transform="matrix(0.2298 -0.9732 0.9732 0.2298 147.9738 284.773)" class="st2" cx="253.9" cy="48.9" rx="5.3" ry="5.3"/>
		<circle id="gdask_1_" class="st2" cx="265.2" cy="53.2" r="5.3"/>
		<circle id="gdynia_1_" class="st2" cx="246.3" cy="39.7" r="5.3"/>
		<circle id="koszalin_x27__1_" class="st2" cx="127.5" cy="67.3" r="5.3"/>
		<circle id="szczecin_1_" class="st2" cx="38.4" cy="132.5" r="5.3"/>
		<circle id="zgora_1_" class="st2" cx="79.2" cy="275.4" r="5.3"/>
		<circle id="poznan_1_" class="st2" cx="162.1" cy="234.7" r="5.3"/>
		<circle id="wroclaw_1_" class="st2" cx="162.1" cy="356.5" r="5.3"/>
		<circle id="opole_1_" class="st2" cx="214" cy="398.8" r="5.3"/>
		<circle id="katowice_1_" class="st2" cx="276.1" cy="439.7" r="5.3"/>
		<circle id="krakow_1_" class="st2" cx="332" cy="457.6" r="5.3"/>
		<circle id="rzeszow_1_" class="st2" cx="453.3" cy="457.6" r="5.3"/>
		<circle id="przemysl_1_" class="st2" cx="484.2" cy="466.7" r="5.3"/>
		<circle id="lublin_1_" class="st2" cx="482" cy="342.5" r="5.3"/>
		<circle id="kielce_1_" class="st2" cx="370.2" cy="380.1" r="5.3"/>
		<circle id="lodz_1_" class="st2" cx="303.8" cy="302.1" r="5.3"/>
		
			<ellipse id="torun_1_" transform="matrix(0.1602 -0.9871 0.9871 0.1602 36.824 404.2815)" class="st2" cx="256" cy="180.5" rx="5.3" ry="5.3"/>
	</g>
</g>
</svg>
